<svg width="180" height="40" viewBox="0 0 180 40" fill="none" xmlns="http://www.w3.org/2000/svg">
<rect width="180" height="40" rx="10" fill="#20B038"/>
<path d="M71.3125 21.5625L73.5703 13.625H74.6641L74.0312 16.7109L71.6016 25H70.5156L71.3125 21.5625ZM68.9766 13.625L70.7734 21.4062L71.3125 25H70.2344L67.4766 13.625H68.9766ZM77.5859 21.3984L79.3438 13.625H80.8516L78.1016 25H77.0234L77.5859 21.3984ZM74.8281 13.625L77.0234 21.5625L77.8203 25H76.7344L74.3906 16.7109L73.75 13.625H74.8281ZM83.75 13V25H82.3047V13H83.75ZM83.4062 20.4531L82.8047 20.4297C82.8099 19.8516 82.8958 19.3177 83.0625 18.8281C83.2292 18.3333 83.4635 17.9036 83.7656 17.5391C84.0677 17.1745 84.4271 16.8932 84.8438 16.6953C85.2656 16.4922 85.7318 16.3906 86.2422 16.3906C86.6589 16.3906 87.0339 16.4479 87.3672 16.5625C87.7005 16.6719 87.9844 16.849 88.2188 17.0938C88.4583 17.3385 88.6406 17.6562 88.7656 18.0469C88.8906 18.4323 88.9531 18.9036 88.9531 19.4609V25H87.5V19.4453C87.5 19.0026 87.4349 18.6484 87.3047 18.3828C87.1745 18.112 86.9844 17.9167 86.7344 17.7969C86.4844 17.6719 86.1771 17.6094 85.8125 17.6094C85.4531 17.6094 85.125 17.6849 84.8281 17.8359C84.5365 17.987 84.2839 18.1953 84.0703 18.4609C83.862 18.7266 83.6979 19.0312 83.5781 19.375C83.4635 19.7135 83.4062 20.0729 83.4062 20.4531ZM96.1016 23.5547V19.2031C96.1016 18.8698 96.0339 18.5807 95.8984 18.3359C95.7682 18.0859 95.5703 17.8932 95.3047 17.7578C95.0391 17.6224 94.7109 17.5547 94.3203 17.5547C93.9557 17.5547 93.6354 17.6172 93.3594 17.7422C93.0885 17.8672 92.875 18.0312 92.7188 18.2344C92.5677 18.4375 92.4922 18.6562 92.4922 18.8906H91.0469C91.0469 18.5885 91.125 18.2891 91.2812 17.9922C91.4375 17.6953 91.6615 17.4271 91.9531 17.1875C92.25 16.9427 92.6042 16.75 93.0156 16.6094C93.4323 16.4635 93.8958 16.3906 94.4062 16.3906C95.0208 16.3906 95.5625 16.4948 96.0312 16.7031C96.5052 16.9115 96.875 17.2266 97.1406 17.6484C97.4115 18.0651 97.5469 18.5885 97.5469 19.2188V23.1562C97.5469 23.4375 97.5703 23.737 97.6172 24.0547C97.6693 24.3724 97.7448 24.6458 97.8438 24.875V25H96.3359C96.263 24.8333 96.2057 24.612 96.1641 24.3359C96.1224 24.0547 96.1016 23.7943 96.1016 23.5547ZM96.3516 19.875L96.3672 20.8906H94.9062C94.4948 20.8906 94.1276 20.9245 93.8047 20.9922C93.4818 21.0547 93.2109 21.151 92.9922 21.2812C92.7734 21.4115 92.6068 21.5755 92.4922 21.7734C92.3776 21.9661 92.3203 22.1927 92.3203 22.4531C92.3203 22.7188 92.3802 22.9609 92.5 23.1797C92.6198 23.3984 92.7995 23.5729 93.0391 23.7031C93.2839 23.8281 93.5833 23.8906 93.9375 23.8906C94.3802 23.8906 94.7708 23.7969 95.1094 23.6094C95.4479 23.4219 95.7161 23.1927 95.9141 22.9219C96.1172 22.651 96.2266 22.388 96.2422 22.1328L96.8594 22.8281C96.8229 23.0469 96.724 23.2891 96.5625 23.5547C96.401 23.8203 96.1849 24.0755 95.9141 24.3203C95.6484 24.5599 95.3307 24.7604 94.9609 24.9219C94.5964 25.0781 94.1849 25.1562 93.7266 25.1562C93.1536 25.1562 92.651 25.0443 92.2188 24.8203C91.7917 24.5964 91.4583 24.2969 91.2188 23.9219C90.9844 23.5417 90.8672 23.1172 90.8672 22.6484C90.8672 22.1953 90.9557 21.7969 91.1328 21.4531C91.3099 21.1042 91.5651 20.8151 91.8984 20.5859C92.2318 20.3516 92.6328 20.1745 93.1016 20.0547C93.5703 19.9349 94.0938 19.875 94.6719 19.875H96.3516ZM103.359 16.5469V17.6562H98.7891V16.5469H103.359ZM100.336 14.4922H101.781V22.9062C101.781 23.1927 101.826 23.4089 101.914 23.5547C102.003 23.7005 102.117 23.7969 102.258 23.8438C102.398 23.8906 102.549 23.9141 102.711 23.9141C102.831 23.9141 102.956 23.9036 103.086 23.8828C103.221 23.8568 103.323 23.8359 103.391 23.8203L103.398 25C103.284 25.0365 103.133 25.0703 102.945 25.1016C102.763 25.138 102.542 25.1562 102.281 25.1562C101.927 25.1562 101.602 25.0859 101.305 24.9453C101.008 24.8047 100.771 24.5703 100.594 24.2422C100.422 23.9089 100.336 23.4609 100.336 22.8984V14.4922ZM109.977 22.7578C109.977 22.5495 109.93 22.3568 109.836 22.1797C109.747 21.9974 109.562 21.8333 109.281 21.6875C109.005 21.5365 108.589 21.4062 108.031 21.2969C107.562 21.1979 107.138 21.0807 106.758 20.9453C106.383 20.8099 106.062 20.6458 105.797 20.4531C105.536 20.2604 105.336 20.0339 105.195 19.7734C105.055 19.513 104.984 19.2083 104.984 18.8594C104.984 18.526 105.057 18.2109 105.203 17.9141C105.354 17.6172 105.565 17.3542 105.836 17.125C106.112 16.8958 106.443 16.7161 106.828 16.5859C107.214 16.4557 107.643 16.3906 108.117 16.3906C108.794 16.3906 109.372 16.5104 109.852 16.75C110.331 16.9896 110.698 17.3099 110.953 17.7109C111.208 18.1068 111.336 18.5469 111.336 19.0312H109.891C109.891 18.7969 109.82 18.5703 109.68 18.3516C109.544 18.1276 109.344 17.9427 109.078 17.7969C108.818 17.651 108.497 17.5781 108.117 17.5781C107.716 17.5781 107.391 17.6406 107.141 17.7656C106.896 17.8854 106.716 18.0391 106.602 18.2266C106.492 18.4141 106.438 18.612 106.438 18.8203C106.438 18.9766 106.464 19.1172 106.516 19.2422C106.573 19.362 106.672 19.474 106.812 19.5781C106.953 19.6771 107.151 19.7708 107.406 19.8594C107.661 19.9479 107.987 20.0365 108.383 20.125C109.076 20.2812 109.646 20.4688 110.094 20.6875C110.542 20.9062 110.875 21.1745 111.094 21.4922C111.312 21.8099 111.422 22.1953 111.422 22.6484C111.422 23.0182 111.344 23.3568 111.188 23.6641C111.036 23.9714 110.815 24.237 110.523 24.4609C110.237 24.6797 109.893 24.8516 109.492 24.9766C109.096 25.0964 108.651 25.1562 108.156 25.1562C107.411 25.1562 106.781 25.0234 106.266 24.7578C105.75 24.4922 105.359 24.1484 105.094 23.7266C104.828 23.3047 104.695 22.8594 104.695 22.3906H106.148C106.169 22.7865 106.284 23.1016 106.492 23.3359C106.701 23.5651 106.956 23.7292 107.258 23.8281C107.56 23.9219 107.859 23.9688 108.156 23.9688C108.552 23.9688 108.883 23.9167 109.148 23.8125C109.419 23.7083 109.625 23.5651 109.766 23.3828C109.906 23.2005 109.977 22.9922 109.977 22.7578ZM117.75 14.6328L113.984 25H112.445L116.781 13.625H117.773L117.75 14.6328ZM120.906 25L117.133 14.6328L117.109 13.625H118.102L122.453 25H120.906ZM120.711 20.7891V22.0234H114.32V20.7891H120.711ZM125.203 18.1719V28.25H123.75V16.5469H125.078L125.203 18.1719ZM130.898 20.7031V20.8672C130.898 21.4818 130.826 22.0521 130.68 22.5781C130.534 23.099 130.32 23.5521 130.039 23.9375C129.763 24.3229 129.422 24.6224 129.016 24.8359C128.609 25.0495 128.143 25.1562 127.617 25.1562C127.081 25.1562 126.607 25.0677 126.195 24.8906C125.784 24.7135 125.435 24.4557 125.148 24.1172C124.862 23.7786 124.633 23.3724 124.461 22.8984C124.294 22.4245 124.18 21.8906 124.117 21.2969V20.4219C124.18 19.7969 124.297 19.237 124.469 18.7422C124.641 18.2474 124.867 17.8255 125.148 17.4766C125.435 17.1224 125.781 16.8542 126.188 16.6719C126.594 16.4844 127.062 16.3906 127.594 16.3906C128.125 16.3906 128.596 16.4948 129.008 16.7031C129.419 16.9062 129.766 17.1979 130.047 17.5781C130.328 17.9583 130.539 18.4141 130.68 18.9453C130.826 19.4714 130.898 20.0573 130.898 20.7031ZM129.445 20.8672V20.7031C129.445 20.2812 129.401 19.8854 129.312 19.5156C129.224 19.1406 129.086 18.8125 128.898 18.5312C128.716 18.2448 128.482 18.0208 128.195 17.8594C127.909 17.6927 127.568 17.6094 127.172 17.6094C126.807 17.6094 126.49 17.6719 126.219 17.7969C125.953 17.9219 125.727 18.0911 125.539 18.3047C125.352 18.513 125.198 18.7526 125.078 19.0234C124.964 19.2891 124.878 19.5651 124.82 19.8516V21.875C124.924 22.2396 125.07 22.5833 125.258 22.9062C125.445 23.224 125.695 23.4818 126.008 23.6797C126.32 23.8724 126.714 23.9688 127.188 23.9688C127.578 23.9688 127.914 23.888 128.195 23.7266C128.482 23.5599 128.716 23.3333 128.898 23.0469C129.086 22.7604 129.224 22.4323 129.312 22.0625C129.401 21.6875 129.445 21.2891 129.445 20.8672ZM134.188 18.1719V28.25H132.734V16.5469H134.062L134.188 18.1719ZM139.883 20.7031V20.8672C139.883 21.4818 139.81 22.0521 139.664 22.5781C139.518 23.099 139.305 23.5521 139.023 23.9375C138.747 24.3229 138.406 24.6224 138 24.8359C137.594 25.0495 137.128 25.1562 136.602 25.1562C136.065 25.1562 135.591 25.0677 135.18 24.8906C134.768 24.7135 134.419 24.4557 134.133 24.1172C133.846 23.7786 133.617 23.3724 133.445 22.8984C133.279 22.4245 133.164 21.8906 133.102 21.2969V20.4219C133.164 19.7969 133.281 19.237 133.453 18.7422C133.625 18.2474 133.852 17.8255 134.133 17.4766C134.419 17.1224 134.766 16.8542 135.172 16.6719C135.578 16.4844 136.047 16.3906 136.578 16.3906C137.109 16.3906 137.581 16.4948 137.992 16.7031C138.404 16.9062 138.75 17.1979 139.031 17.5781C139.312 17.9583 139.523 18.4141 139.664 18.9453C139.81 19.4714 139.883 20.0573 139.883 20.7031ZM138.43 20.8672V20.7031C138.43 20.2812 138.385 19.8854 138.297 19.5156C138.208 19.1406 138.07 18.8125 137.883 18.5312C137.701 18.2448 137.466 18.0208 137.18 17.8594C136.893 17.6927 136.552 17.6094 136.156 17.6094C135.792 17.6094 135.474 17.6719 135.203 17.7969C134.938 17.9219 134.711 18.0911 134.523 18.3047C134.336 18.513 134.182 18.7526 134.062 19.0234C133.948 19.2891 133.862 19.5651 133.805 19.8516V21.875C133.909 22.2396 134.055 22.5833 134.242 22.9062C134.43 23.224 134.68 23.4818 134.992 23.6797C135.305 23.8724 135.698 23.9688 136.172 23.9688C136.562 23.9688 136.898 23.888 137.18 23.7266C137.466 23.5599 137.701 23.3333 137.883 23.0469C138.07 22.7604 138.208 22.4323 138.297 22.0625C138.385 21.6875 138.43 21.2891 138.43 20.8672Z" fill="white"/>
<path d="M39 29L40.2722 24.3802C39.4857 23.0242 39.0731 21.4886 39.0774 19.9187C39.0774 14.9995 43.1003 11 48.0387 11C50.437 11 52.6891 11.9282 54.3782 13.6136C56.0716 15.299 57.0043 17.5404 57 19.923C57 24.8422 52.9771 28.8417 48.0344 28.8417H48.0301C46.5301 28.8417 45.0559 28.4653 43.745 27.7552L39 29ZM43.9728 26.1426L44.2435 26.3051C45.3868 26.981 46.6977 27.336 48.0344 27.3403H48.0387C52.1433 27.3403 55.4871 24.0166 55.4871 19.9273C55.4871 17.9468 54.7135 16.086 53.308 14.683C51.9026 13.2799 50.0286 12.51 48.0387 12.51C43.9341 12.5057 40.5903 15.8294 40.5903 19.9187C40.5903 21.3175 40.9814 22.682 41.7292 23.8626L41.9054 24.145L41.1533 26.8783L43.9728 26.1426Z" fill="url(#paint0_linear_75_159)"/>
<path fill-rule="evenodd" clip-rule="evenodd" d="M45.7967 16.1891C45.6291 15.8169 45.4529 15.8084 45.2938 15.8041C45.1649 15.7998 45.0145 15.7998 44.864 15.7998C44.7136 15.7998 44.4729 15.8554 44.2666 16.0778C44.0603 16.3003 43.4844 16.8393 43.4844 17.9386C43.4844 19.0336 44.2881 20.0945 44.3998 20.2442C44.5116 20.3939 45.9514 22.7166 48.2251 23.6106C50.1162 24.3549 50.503 24.2052 50.9113 24.1667C51.3196 24.1282 52.2351 23.6278 52.4242 23.1059C52.609 22.584 52.609 22.1392 52.5531 22.0451C52.4973 21.9509 52.3468 21.8953 52.1233 21.7841C51.8998 21.6729 50.7996 21.1339 50.5933 21.0569C50.3869 20.9842 50.2365 20.9457 50.0904 21.1682C49.94 21.3906 49.5102 21.8911 49.3812 22.0408C49.2523 22.1905 49.119 22.2076 48.8955 22.0964C48.672 21.9852 47.95 21.7499 47.0947 20.9885C46.4285 20.3982 45.9772 19.6667 45.8483 19.4443C45.7193 19.2219 45.8354 19.1021 45.9471 18.9909C46.046 18.8925 46.1706 18.7299 46.2824 18.6016C46.3941 18.4733 46.4328 18.3792 46.5059 18.2295C46.5789 18.0797 46.5445 17.9514 46.4887 17.8402C46.4328 17.7333 45.9944 16.6297 45.7967 16.1891Z" fill="white"/>
<defs>
<linearGradient id="paint0_linear_75_159" x1="48.0018" y1="28.9983" x2="48.0018" y2="11" gradientUnits="userSpaceOnUse">
<stop stop-color="#F9F9F9"/>
<stop offset="1" stop-color="white"/>
</linearGradient>
</defs>
</svg>
