<svg width="19" height="19" viewBox="0 0 19 19" fill="none" xmlns="http://www.w3.org/2000/svg">
<path d="M1 18L2.20153 13.6369C1.45869 12.3562 1.06901 10.9059 1.07307 9.42324C1.07307 4.77733 4.87249 1 9.53653 1C11.8016 1 13.9286 1.87666 15.5239 3.46839C17.1232 5.06012 18.004 7.17704 18 9.42728C18 14.0732 14.2006 17.8505 9.53247 17.8505H9.52841C8.11174 17.8505 6.71943 17.495 5.48137 16.8244L1 18ZM5.69651 15.3013L5.95224 15.4548C7.03199 16.0932 8.27005 16.4285 9.53247 16.4325H9.53653C13.4131 16.4325 16.5711 13.2935 16.5711 9.43132C16.5711 7.56084 15.8405 5.80347 14.5131 4.47837C13.1858 3.15328 11.4159 2.42609 9.53653 2.42609C5.65998 2.42205 2.50191 5.56107 2.50191 9.42324C2.50191 10.7443 2.8713 12.033 3.5776 13.1481L3.74403 13.4147L3.03367 15.9962L5.69651 15.3013Z" fill="#7786A5" stroke="#7786A5" stroke-width="0.5"/>
<path fill-rule="evenodd" clip-rule="evenodd" d="M7.41912 5.90059C7.26081 5.54912 7.09438 5.54104 6.94419 5.537C6.82241 5.53296 6.68034 5.53296 6.53827 5.53296C6.3962 5.53296 6.16888 5.58548 5.97404 5.79555C5.77919 6.00563 5.23526 6.51466 5.23526 7.55292C5.23526 8.58714 5.99433 9.58904 6.09987 9.73044C6.20541 9.87184 7.56525 12.0655 9.71257 12.9099C11.4986 13.6128 11.864 13.4714 12.2496 13.435C12.6352 13.3987 13.4998 12.926 13.6784 12.4331C13.853 11.9403 13.853 11.5201 13.8002 11.4312C13.7474 11.3424 13.6054 11.2899 13.3943 11.1848C13.1832 11.0798 12.144 10.5707 11.9492 10.498C11.7544 10.4293 11.6123 10.393 11.4743 10.6031C11.3322 10.8131 10.9263 11.2858 10.8045 11.4272C10.6827 11.5686 10.5569 11.5848 10.3458 11.4797C10.1347 11.3747 9.45278 11.1525 8.645 10.4334C8.01582 9.87588 7.5896 9.18505 7.46783 8.97497C7.34605 8.7649 7.45565 8.65178 7.56119 8.54674C7.65455 8.45382 7.77227 8.30031 7.87781 8.17911C7.98335 8.05791 8.01988 7.96903 8.08889 7.82764C8.15789 7.68624 8.12542 7.56504 8.07265 7.46C8.01988 7.359 7.60584 6.3167 7.41912 5.90059Z" fill="#7786A5" stroke="#7786A5" stroke-width="0.5"/>
</svg>
