<svg width="38" height="30" viewBox="0 0 38 30" fill="none" xmlns="http://www.w3.org/2000/svg">
<path opacity="0.4" d="M28.3241 13.2184C30.9947 13.2184 33.161 11.0536 33.161 8.38302C33.161 5.71247 30.9947 3.54761 28.3241 3.54761" stroke="#2A344A" stroke-width="2.67858" stroke-linecap="round" stroke-linejoin="round"/>
<path d="M30.5469 18.4736C31.3444 18.5286 32.1373 18.6417 32.918 18.8174C34.0027 19.0297 35.3074 19.4743 35.7719 20.4475C36.0683 21.0709 36.0683 21.7966 35.7719 22.4214C35.309 23.3946 34.0027 23.8377 32.918 24.0607" stroke="#A1A9B7" stroke-width="2.67858" stroke-linecap="round" stroke-linejoin="round"/>
<path opacity="0.4" d="M9.48538 13.2187C6.81483 13.2187 4.64844 11.0538 4.64844 8.38327C4.64844 5.71271 6.81483 3.54785 9.48538 3.54785" stroke="#2A344A" stroke-width="2.67858" stroke-linecap="round" stroke-linejoin="round"/>
<path d="M7.25941 18.4738C6.46191 18.5288 5.66899 18.6418 4.8883 18.8175C3.80358 19.0299 2.49885 19.4745 2.03594 20.4477C1.73802 21.071 1.73802 21.7967 2.03594 22.4216C2.49733 23.3948 3.80358 23.8378 4.8883 24.0609" stroke="#A1A9B7" stroke-width="2.67858" stroke-linecap="round" stroke-linejoin="round"/>
<path fill-rule="evenodd" clip-rule="evenodd" d="M18.8977 19.5146C24.3091 19.5146 28.9322 20.3335 28.9322 23.6106C28.9322 26.8862 24.3397 27.7356 18.8977 27.7356C13.4848 27.7356 8.86328 26.9167 8.86328 23.6397C8.86328 20.3626 13.4558 19.5146 18.8977 19.5146Z" stroke="#A1A9B7" stroke-width="2.67858" stroke-linecap="round" stroke-linejoin="round"/>
<path opacity="0.4" fill-rule="evenodd" clip-rule="evenodd" d="M18.8953 14.8399C15.3264 14.8399 12.4648 11.9784 12.4648 8.40796C12.4648 4.83907 15.3264 1.97754 18.8953 1.97754C22.4642 1.97754 25.3257 4.83907 25.3257 8.40796C25.3257 11.9784 22.4642 14.8399 18.8953 14.8399Z" stroke="#2A344A" stroke-width="2.67858" stroke-linecap="round" stroke-linejoin="round"/>
</svg>
