<svg width="180" height="40" viewBox="0 0 180 40" fill="none" xmlns="http://www.w3.org/2000/svg">
<rect width="180" height="40" rx="10" fill="url(#paint0_linear_75_167)"/>
<path d="M65.7969 13.625H67.2578L70.9844 22.8984L74.7031 13.625H76.1719L71.5469 25H70.4062L65.7969 13.625ZM65.3203 13.625H66.6094L66.8203 20.5625V25H65.3203V13.625ZM75.3516 13.625H76.6406V25H75.1406V20.5625L75.3516 13.625ZM82.5781 25.1562C81.9896 25.1562 81.4557 25.0573 80.9766 24.8594C80.5026 24.6562 80.0938 24.3724 79.75 24.0078C79.4115 23.6432 79.151 23.2109 78.9688 22.7109C78.7865 22.2109 78.6953 21.6641 78.6953 21.0703V20.7422C78.6953 20.0547 78.7969 19.4427 79 18.9062C79.2031 18.3646 79.4792 17.9062 79.8281 17.5312C80.1771 17.1562 80.5729 16.8724 81.0156 16.6797C81.4583 16.487 81.9167 16.3906 82.3906 16.3906C82.9948 16.3906 83.5156 16.4948 83.9531 16.7031C84.3958 16.9115 84.7578 17.2031 85.0391 17.5781C85.3203 17.9479 85.5286 18.3854 85.6641 18.8906C85.7995 19.3906 85.8672 19.9375 85.8672 20.5312V21.1797H79.5547V20H84.4219V19.8906C84.401 19.5156 84.3229 19.151 84.1875 18.7969C84.0573 18.4427 83.849 18.151 83.5625 17.9219C83.276 17.6927 82.8854 17.5781 82.3906 17.5781C82.0625 17.5781 81.7604 17.6484 81.4844 17.7891C81.2083 17.9245 80.9714 18.1276 80.7734 18.3984C80.5755 18.6693 80.4219 19 80.3125 19.3906C80.2031 19.7812 80.1484 20.2318 80.1484 20.7422V21.0703C80.1484 21.4714 80.2031 21.849 80.3125 22.2031C80.4271 22.5521 80.5911 22.8594 80.8047 23.125C81.0234 23.3906 81.2865 23.599 81.5938 23.75C81.9062 23.901 82.2604 23.9766 82.6562 23.9766C83.1667 23.9766 83.599 23.8724 83.9531 23.6641C84.3073 23.4557 84.6172 23.1771 84.8828 22.8281L85.7578 23.5234C85.5755 23.7995 85.3438 24.0625 85.0625 24.3125C84.7812 24.5625 84.4349 24.7656 84.0234 24.9219C83.6172 25.0781 83.1354 25.1562 82.5781 25.1562ZM92.4766 22.7578C92.4766 22.5495 92.4297 22.3568 92.3359 22.1797C92.2474 21.9974 92.0625 21.8333 91.7812 21.6875C91.5052 21.5365 91.0885 21.4062 90.5312 21.2969C90.0625 21.1979 89.638 21.0807 89.2578 20.9453C88.8828 20.8099 88.5625 20.6458 88.2969 20.4531C88.0365 20.2604 87.8359 20.0339 87.6953 19.7734C87.5547 19.513 87.4844 19.2083 87.4844 18.8594C87.4844 18.526 87.5573 18.2109 87.7031 17.9141C87.8542 17.6172 88.0651 17.3542 88.3359 17.125C88.612 16.8958 88.9427 16.7161 89.3281 16.5859C89.7135 16.4557 90.1432 16.3906 90.6172 16.3906C91.2943 16.3906 91.8724 16.5104 92.3516 16.75C92.8307 16.9896 93.1979 17.3099 93.4531 17.7109C93.7083 18.1068 93.8359 18.5469 93.8359 19.0312H92.3906C92.3906 18.7969 92.3203 18.5703 92.1797 18.3516C92.0443 18.1276 91.8438 17.9427 91.5781 17.7969C91.3177 17.651 90.9974 17.5781 90.6172 17.5781C90.2161 17.5781 89.8906 17.6406 89.6406 17.7656C89.3958 17.8854 89.2161 18.0391 89.1016 18.2266C88.9922 18.4141 88.9375 18.612 88.9375 18.8203C88.9375 18.9766 88.9635 19.1172 89.0156 19.2422C89.0729 19.362 89.1719 19.474 89.3125 19.5781C89.4531 19.6771 89.651 19.7708 89.9062 19.8594C90.1615 19.9479 90.487 20.0365 90.8828 20.125C91.5755 20.2812 92.1458 20.4688 92.5938 20.6875C93.0417 20.9062 93.375 21.1745 93.5938 21.4922C93.8125 21.8099 93.9219 22.1953 93.9219 22.6484C93.9219 23.0182 93.8438 23.3568 93.6875 23.6641C93.5365 23.9714 93.3151 24.237 93.0234 24.4609C92.737 24.6797 92.3932 24.8516 91.9922 24.9766C91.5964 25.0964 91.151 25.1562 90.6562 25.1562C89.9115 25.1562 89.2812 25.0234 88.7656 24.7578C88.25 24.4922 87.8594 24.1484 87.5938 23.7266C87.3281 23.3047 87.1953 22.8594 87.1953 22.3906H88.6484C88.6693 22.7865 88.7839 23.1016 88.9922 23.3359C89.2005 23.5651 89.4557 23.7292 89.7578 23.8281C90.0599 23.9219 90.3594 23.9688 90.6562 23.9688C91.0521 23.9688 91.3828 23.9167 91.6484 23.8125C91.9193 23.7083 92.125 23.5651 92.2656 23.3828C92.4062 23.2005 92.4766 22.9922 92.4766 22.7578ZM100.742 22.7578C100.742 22.5495 100.695 22.3568 100.602 22.1797C100.513 21.9974 100.328 21.8333 100.047 21.6875C99.7708 21.5365 99.3542 21.4062 98.7969 21.2969C98.3281 21.1979 97.9036 21.0807 97.5234 20.9453C97.1484 20.8099 96.8281 20.6458 96.5625 20.4531C96.3021 20.2604 96.1016 20.0339 95.9609 19.7734C95.8203 19.513 95.75 19.2083 95.75 18.8594C95.75 18.526 95.8229 18.2109 95.9688 17.9141C96.1198 17.6172 96.3307 17.3542 96.6016 17.125C96.8776 16.8958 97.2083 16.7161 97.5938 16.5859C97.9792 16.4557 98.4089 16.3906 98.8828 16.3906C99.5599 16.3906 100.138 16.5104 100.617 16.75C101.096 16.9896 101.464 17.3099 101.719 17.7109C101.974 18.1068 102.102 18.5469 102.102 19.0312H100.656C100.656 18.7969 100.586 18.5703 100.445 18.3516C100.31 18.1276 100.109 17.9427 99.8438 17.7969C99.5833 17.651 99.263 17.5781 98.8828 17.5781C98.4818 17.5781 98.1562 17.6406 97.9062 17.7656C97.6615 17.8854 97.4818 18.0391 97.3672 18.2266C97.2578 18.4141 97.2031 18.612 97.2031 18.8203C97.2031 18.9766 97.2292 19.1172 97.2812 19.2422C97.3385 19.362 97.4375 19.474 97.5781 19.5781C97.7188 19.6771 97.9167 19.7708 98.1719 19.8594C98.4271 19.9479 98.7526 20.0365 99.1484 20.125C99.8411 20.2812 100.411 20.4688 100.859 20.6875C101.307 20.9062 101.641 21.1745 101.859 21.4922C102.078 21.8099 102.188 22.1953 102.188 22.6484C102.188 23.0182 102.109 23.3568 101.953 23.6641C101.802 23.9714 101.581 24.237 101.289 24.4609C101.003 24.6797 100.659 24.8516 100.258 24.9766C99.862 25.0964 99.4167 25.1562 98.9219 25.1562C98.1771 25.1562 97.5469 25.0234 97.0312 24.7578C96.5156 24.4922 96.125 24.1484 95.8594 23.7266C95.5938 23.3047 95.4609 22.8594 95.4609 22.3906H96.9141C96.9349 22.7865 97.0495 23.1016 97.2578 23.3359C97.4661 23.5651 97.7214 23.7292 98.0234 23.8281C98.3255 23.9219 98.625 23.9688 98.9219 23.9688C99.3177 23.9688 99.6484 23.9167 99.9141 23.8125C100.185 23.7083 100.391 23.5651 100.531 23.3828C100.672 23.2005 100.742 22.9922 100.742 22.7578ZM107.594 25.1562C107.005 25.1562 106.471 25.0573 105.992 24.8594C105.518 24.6562 105.109 24.3724 104.766 24.0078C104.427 23.6432 104.167 23.2109 103.984 22.7109C103.802 22.2109 103.711 21.6641 103.711 21.0703V20.7422C103.711 20.0547 103.812 19.4427 104.016 18.9062C104.219 18.3646 104.495 17.9062 104.844 17.5312C105.193 17.1562 105.589 16.8724 106.031 16.6797C106.474 16.487 106.932 16.3906 107.406 16.3906C108.01 16.3906 108.531 16.4948 108.969 16.7031C109.411 16.9115 109.773 17.2031 110.055 17.5781C110.336 17.9479 110.544 18.3854 110.68 18.8906C110.815 19.3906 110.883 19.9375 110.883 20.5312V21.1797H104.57V20H109.438V19.8906C109.417 19.5156 109.339 19.151 109.203 18.7969C109.073 18.4427 108.865 18.151 108.578 17.9219C108.292 17.6927 107.901 17.5781 107.406 17.5781C107.078 17.5781 106.776 17.6484 106.5 17.7891C106.224 17.9245 105.987 18.1276 105.789 18.3984C105.591 18.6693 105.438 19 105.328 19.3906C105.219 19.7812 105.164 20.2318 105.164 20.7422V21.0703C105.164 21.4714 105.219 21.849 105.328 22.2031C105.443 22.5521 105.607 22.8594 105.82 23.125C106.039 23.3906 106.302 23.599 106.609 23.75C106.922 23.901 107.276 23.9766 107.672 23.9766C108.182 23.9766 108.615 23.8724 108.969 23.6641C109.323 23.4557 109.633 23.1771 109.898 22.8281L110.773 23.5234C110.591 23.7995 110.359 24.0625 110.078 24.3125C109.797 24.5625 109.451 24.7656 109.039 24.9219C108.633 25.0781 108.151 25.1562 107.594 25.1562ZM114.016 18.3516V25H112.57V16.5469H113.938L114.016 18.3516ZM113.672 20.4531L113.07 20.4297C113.076 19.8516 113.161 19.3177 113.328 18.8281C113.495 18.3333 113.729 17.9036 114.031 17.5391C114.333 17.1745 114.693 16.8932 115.109 16.6953C115.531 16.4922 115.997 16.3906 116.508 16.3906C116.924 16.3906 117.299 16.4479 117.633 16.5625C117.966 16.6719 118.25 16.849 118.484 17.0938C118.724 17.3385 118.906 17.6562 119.031 18.0469C119.156 18.4323 119.219 18.9036 119.219 19.4609V25H117.766V19.4453C117.766 19.0026 117.701 18.6484 117.57 18.3828C117.44 18.112 117.25 17.9167 117 17.7969C116.75 17.6719 116.443 17.6094 116.078 17.6094C115.719 17.6094 115.391 17.6849 115.094 17.8359C114.802 17.987 114.549 18.1953 114.336 18.4609C114.128 18.7266 113.964 19.0312 113.844 19.375C113.729 19.7135 113.672 20.0729 113.672 20.4531ZM126.891 16.5469H128.203V24.8203C128.203 25.5651 128.052 26.2005 127.75 26.7266C127.448 27.2526 127.026 27.651 126.484 27.9219C125.948 28.1979 125.328 28.3359 124.625 28.3359C124.333 28.3359 123.99 28.2891 123.594 28.1953C123.203 28.1068 122.818 27.9531 122.438 27.7344C122.062 27.5208 121.747 27.2318 121.492 26.8672L122.25 26.0078C122.604 26.4349 122.974 26.7318 123.359 26.8984C123.75 27.0651 124.135 27.1484 124.516 27.1484C124.974 27.1484 125.37 27.0625 125.703 26.8906C126.036 26.7188 126.294 26.4635 126.477 26.125C126.664 25.7917 126.758 25.3802 126.758 24.8906V18.4062L126.891 16.5469ZM121.07 20.8672V20.7031C121.07 20.0573 121.146 19.4714 121.297 18.9453C121.453 18.4141 121.674 17.9583 121.961 17.5781C122.253 17.1979 122.604 16.9062 123.016 16.7031C123.427 16.4948 123.891 16.3906 124.406 16.3906C124.938 16.3906 125.401 16.4844 125.797 16.6719C126.198 16.8542 126.536 17.1224 126.812 17.4766C127.094 17.8255 127.315 18.2474 127.477 18.7422C127.638 19.237 127.75 19.7969 127.812 20.4219V21.1406C127.755 21.7604 127.643 22.3177 127.477 22.8125C127.315 23.3073 127.094 23.7292 126.812 24.0781C126.536 24.4271 126.198 24.6953 125.797 24.8828C125.396 25.0651 124.927 25.1562 124.391 25.1562C123.885 25.1562 123.427 25.0495 123.016 24.8359C122.609 24.6224 122.26 24.3229 121.969 23.9375C121.677 23.5521 121.453 23.099 121.297 22.5781C121.146 22.0521 121.07 21.4818 121.07 20.8672ZM122.516 20.7031V20.8672C122.516 21.2891 122.557 21.6849 122.641 22.0547C122.729 22.4245 122.862 22.75 123.039 23.0312C123.221 23.3125 123.453 23.5339 123.734 23.6953C124.016 23.8516 124.352 23.9297 124.742 23.9297C125.221 23.9297 125.617 23.8281 125.93 23.625C126.242 23.4219 126.49 23.1536 126.672 22.8203C126.859 22.487 127.005 22.125 127.109 21.7344V19.8516C127.052 19.5651 126.964 19.2891 126.844 19.0234C126.729 18.7526 126.578 18.513 126.391 18.3047C126.208 18.0911 125.982 17.9219 125.711 17.7969C125.44 17.6719 125.122 17.6094 124.758 17.6094C124.362 17.6094 124.021 17.6927 123.734 17.8594C123.453 18.0208 123.221 18.2448 123.039 18.5312C122.862 18.8125 122.729 19.1406 122.641 19.5156C122.557 19.8854 122.516 20.2812 122.516 20.7031ZM133.906 25.1562C133.318 25.1562 132.784 25.0573 132.305 24.8594C131.831 24.6562 131.422 24.3724 131.078 24.0078C130.74 23.6432 130.479 23.2109 130.297 22.7109C130.115 22.2109 130.023 21.6641 130.023 21.0703V20.7422C130.023 20.0547 130.125 19.4427 130.328 18.9062C130.531 18.3646 130.807 17.9062 131.156 17.5312C131.505 17.1562 131.901 16.8724 132.344 16.6797C132.786 16.487 133.245 16.3906 133.719 16.3906C134.323 16.3906 134.844 16.4948 135.281 16.7031C135.724 16.9115 136.086 17.2031 136.367 17.5781C136.648 17.9479 136.857 18.3854 136.992 18.8906C137.128 19.3906 137.195 19.9375 137.195 20.5312V21.1797H130.883V20H135.75V19.8906C135.729 19.5156 135.651 19.151 135.516 18.7969C135.385 18.4427 135.177 18.151 134.891 17.9219C134.604 17.6927 134.214 17.5781 133.719 17.5781C133.391 17.5781 133.089 17.6484 132.812 17.7891C132.536 17.9245 132.299 18.1276 132.102 18.3984C131.904 18.6693 131.75 19 131.641 19.3906C131.531 19.7812 131.477 20.2318 131.477 20.7422V21.0703C131.477 21.4714 131.531 21.849 131.641 22.2031C131.755 22.5521 131.919 22.8594 132.133 23.125C132.352 23.3906 132.615 23.599 132.922 23.75C133.234 23.901 133.589 23.9766 133.984 23.9766C134.495 23.9766 134.927 23.8724 135.281 23.6641C135.635 23.4557 135.945 23.1771 136.211 22.8281L137.086 23.5234C136.904 23.7995 136.672 24.0625 136.391 24.3125C136.109 24.5625 135.763 24.7656 135.352 24.9219C134.945 25.0781 134.464 25.1562 133.906 25.1562ZM140.328 17.875V25H138.883V16.5469H140.289L140.328 17.875ZM142.969 16.5L142.961 17.8438C142.841 17.8177 142.727 17.8021 142.617 17.7969C142.513 17.7865 142.393 17.7812 142.258 17.7812C141.924 17.7812 141.63 17.8333 141.375 17.9375C141.12 18.0417 140.904 18.1875 140.727 18.375C140.549 18.5625 140.409 18.7865 140.305 19.0469C140.206 19.3021 140.141 19.5833 140.109 19.8906L139.703 20.125C139.703 19.6146 139.753 19.1354 139.852 18.6875C139.956 18.2396 140.115 17.8438 140.328 17.5C140.542 17.151 140.812 16.8802 141.141 16.6875C141.474 16.4896 141.87 16.3906 142.328 16.3906C142.432 16.3906 142.552 16.4036 142.688 16.4297C142.823 16.4505 142.917 16.474 142.969 16.5Z" fill="white"/>
<path fill-rule="evenodd" clip-rule="evenodd" d="M36.1146 23.5897L40.4606 16.6952C41.1523 15.5967 42.6318 15.3267 43.6712 16.1034L47.1295 18.6963C47.4476 18.933 47.884 18.933 48.1984 18.6926L52.8663 15.1491C53.4877 14.6757 54.3014 15.4229 53.8871 16.0849L49.5374 22.9757C48.8457 24.0743 47.3662 24.3443 46.3269 23.5675L42.8685 20.9747C42.5504 20.738 42.114 20.738 41.7996 20.9784L37.1318 24.5218C36.5104 24.9952 35.6967 24.2518 36.1146 23.5897Z" fill="white"/>
<defs>
<linearGradient id="paint0_linear_75_167" x1="90" y1="0" x2="90" y2="40" gradientUnits="userSpaceOnUse">
<stop stop-color="#FE5280"/>
<stop offset="1" stop-color="#5E5DFF"/>
</linearGradient>
</defs>
</svg>
