<svg width="180" height="40" viewBox="0 0 180 40" fill="none" xmlns="http://www.w3.org/2000/svg">
<rect width="180" height="40" rx="10" fill="#2AABEE"/>
<path d="M76.5234 13.625V25H75.0391V13.625H76.5234ZM80.1797 13.625V14.8594H71.3906V13.625H80.1797ZM84.375 25.1562C83.7865 25.1562 83.2526 25.0573 82.7734 24.8594C82.2995 24.6562 81.8906 24.3724 81.5469 24.0078C81.2083 23.6432 80.9479 23.2109 80.7656 22.7109C80.5833 22.2109 80.4922 21.6641 80.4922 21.0703V20.7422C80.4922 20.0547 80.5938 19.4427 80.7969 18.9062C81 18.3646 81.276 17.9062 81.625 17.5312C81.974 17.1562 82.3698 16.8724 82.8125 16.6797C83.2552 16.487 83.7135 16.3906 84.1875 16.3906C84.7917 16.3906 85.3125 16.4948 85.75 16.7031C86.1927 16.9115 86.5547 17.2031 86.8359 17.5781C87.1172 17.9479 87.3255 18.3854 87.4609 18.8906C87.5964 19.3906 87.6641 19.9375 87.6641 20.5312V21.1797H81.3516V20H86.2188V19.8906C86.1979 19.5156 86.1198 19.151 85.9844 18.7969C85.8542 18.4427 85.6458 18.151 85.3594 17.9219C85.0729 17.6927 84.6823 17.5781 84.1875 17.5781C83.8594 17.5781 83.5573 17.6484 83.2812 17.7891C83.0052 17.9245 82.7682 18.1276 82.5703 18.3984C82.3724 18.6693 82.2188 19 82.1094 19.3906C82 19.7812 81.9453 20.2318 81.9453 20.7422V21.0703C81.9453 21.4714 82 21.849 82.1094 22.2031C82.224 22.5521 82.388 22.8594 82.6016 23.125C82.8203 23.3906 83.0833 23.599 83.3906 23.75C83.7031 23.901 84.0573 23.9766 84.4531 23.9766C84.9635 23.9766 85.3958 23.8724 85.75 23.6641C86.1042 23.4557 86.4141 23.1771 86.6797 22.8281L87.5547 23.5234C87.3724 23.7995 87.1406 24.0625 86.8594 24.3125C86.5781 24.5625 86.2318 24.7656 85.8203 24.9219C85.4141 25.0781 84.9323 25.1562 84.375 25.1562ZM90.9219 13V25H89.4688V13H90.9219ZM96.75 25.1562C96.1615 25.1562 95.6276 25.0573 95.1484 24.8594C94.6745 24.6562 94.2656 24.3724 93.9219 24.0078C93.5833 23.6432 93.3229 23.2109 93.1406 22.7109C92.9583 22.2109 92.8672 21.6641 92.8672 21.0703V20.7422C92.8672 20.0547 92.9688 19.4427 93.1719 18.9062C93.375 18.3646 93.651 17.9062 94 17.5312C94.349 17.1562 94.7448 16.8724 95.1875 16.6797C95.6302 16.487 96.0885 16.3906 96.5625 16.3906C97.1667 16.3906 97.6875 16.4948 98.125 16.7031C98.5677 16.9115 98.9297 17.2031 99.2109 17.5781C99.4922 17.9479 99.7005 18.3854 99.8359 18.8906C99.9714 19.3906 100.039 19.9375 100.039 20.5312V21.1797H93.7266V20H98.5938V19.8906C98.5729 19.5156 98.4948 19.151 98.3594 18.7969C98.2292 18.4427 98.0208 18.151 97.7344 17.9219C97.4479 17.6927 97.0573 17.5781 96.5625 17.5781C96.2344 17.5781 95.9323 17.6484 95.6562 17.7891C95.3802 17.9245 95.1432 18.1276 94.9453 18.3984C94.7474 18.6693 94.5938 19 94.4844 19.3906C94.375 19.7812 94.3203 20.2318 94.3203 20.7422V21.0703C94.3203 21.4714 94.375 21.849 94.4844 22.2031C94.599 22.5521 94.763 22.8594 94.9766 23.125C95.1953 23.3906 95.4583 23.599 95.7656 23.75C96.0781 23.901 96.4323 23.9766 96.8281 23.9766C97.3385 23.9766 97.7708 23.8724 98.125 23.6641C98.4792 23.4557 98.7891 23.1771 99.0547 22.8281L99.9297 23.5234C99.7474 23.7995 99.5156 24.0625 99.2344 24.3125C98.9531 24.5625 98.6068 24.7656 98.1953 24.9219C97.7891 25.0781 97.3073 25.1562 96.75 25.1562ZM107.203 16.5469H108.516V24.8203C108.516 25.5651 108.365 26.2005 108.062 26.7266C107.76 27.2526 107.339 27.651 106.797 27.9219C106.26 28.1979 105.641 28.3359 104.938 28.3359C104.646 28.3359 104.302 28.2891 103.906 28.1953C103.516 28.1068 103.13 27.9531 102.75 27.7344C102.375 27.5208 102.06 27.2318 101.805 26.8672L102.562 26.0078C102.917 26.4349 103.286 26.7318 103.672 26.8984C104.062 27.0651 104.448 27.1484 104.828 27.1484C105.286 27.1484 105.682 27.0625 106.016 26.8906C106.349 26.7188 106.607 26.4635 106.789 26.125C106.977 25.7917 107.07 25.3802 107.07 24.8906V18.4062L107.203 16.5469ZM101.383 20.8672V20.7031C101.383 20.0573 101.458 19.4714 101.609 18.9453C101.766 18.4141 101.987 17.9583 102.273 17.5781C102.565 17.1979 102.917 16.9062 103.328 16.7031C103.74 16.4948 104.203 16.3906 104.719 16.3906C105.25 16.3906 105.714 16.4844 106.109 16.6719C106.51 16.8542 106.849 17.1224 107.125 17.4766C107.406 17.8255 107.628 18.2474 107.789 18.7422C107.951 19.237 108.062 19.7969 108.125 20.4219V21.1406C108.068 21.7604 107.956 22.3177 107.789 22.8125C107.628 23.3073 107.406 23.7292 107.125 24.0781C106.849 24.4271 106.51 24.6953 106.109 24.8828C105.708 25.0651 105.24 25.1562 104.703 25.1562C104.198 25.1562 103.74 25.0495 103.328 24.8359C102.922 24.6224 102.573 24.3229 102.281 23.9375C101.99 23.5521 101.766 23.099 101.609 22.5781C101.458 22.0521 101.383 21.4818 101.383 20.8672ZM102.828 20.7031V20.8672C102.828 21.2891 102.87 21.6849 102.953 22.0547C103.042 22.4245 103.174 22.75 103.352 23.0312C103.534 23.3125 103.766 23.5339 104.047 23.6953C104.328 23.8516 104.664 23.9297 105.055 23.9297C105.534 23.9297 105.93 23.8281 106.242 23.625C106.555 23.4219 106.802 23.1536 106.984 22.8203C107.172 22.487 107.318 22.125 107.422 21.7344V19.8516C107.365 19.5651 107.276 19.2891 107.156 19.0234C107.042 18.7526 106.891 18.513 106.703 18.3047C106.521 18.0911 106.294 17.9219 106.023 17.7969C105.753 17.6719 105.435 17.6094 105.07 17.6094C104.674 17.6094 104.333 17.6927 104.047 17.8594C103.766 18.0208 103.534 18.2448 103.352 18.5312C103.174 18.8125 103.042 19.1406 102.953 19.5156C102.87 19.8854 102.828 20.2812 102.828 20.7031ZM112.156 17.875V25H110.711V16.5469H112.117L112.156 17.875ZM114.797 16.5L114.789 17.8438C114.669 17.8177 114.555 17.8021 114.445 17.7969C114.341 17.7865 114.221 17.7812 114.086 17.7812C113.753 17.7812 113.458 17.8333 113.203 17.9375C112.948 18.0417 112.732 18.1875 112.555 18.375C112.378 18.5625 112.237 18.7865 112.133 19.0469C112.034 19.3021 111.969 19.5833 111.938 19.8906L111.531 20.125C111.531 19.6146 111.581 19.1354 111.68 18.6875C111.784 18.2396 111.943 17.8438 112.156 17.5C112.37 17.151 112.641 16.8802 112.969 16.6875C113.302 16.4896 113.698 16.3906 114.156 16.3906C114.26 16.3906 114.38 16.4036 114.516 16.4297C114.651 16.4505 114.745 16.474 114.797 16.5ZM120.805 23.5547V19.2031C120.805 18.8698 120.737 18.5807 120.602 18.3359C120.471 18.0859 120.273 17.8932 120.008 17.7578C119.742 17.6224 119.414 17.5547 119.023 17.5547C118.659 17.5547 118.339 17.6172 118.062 17.7422C117.792 17.8672 117.578 18.0312 117.422 18.2344C117.271 18.4375 117.195 18.6562 117.195 18.8906H115.75C115.75 18.5885 115.828 18.2891 115.984 17.9922C116.141 17.6953 116.365 17.4271 116.656 17.1875C116.953 16.9427 117.307 16.75 117.719 16.6094C118.135 16.4635 118.599 16.3906 119.109 16.3906C119.724 16.3906 120.266 16.4948 120.734 16.7031C121.208 16.9115 121.578 17.2266 121.844 17.6484C122.115 18.0651 122.25 18.5885 122.25 19.2188V23.1562C122.25 23.4375 122.273 23.737 122.32 24.0547C122.372 24.3724 122.448 24.6458 122.547 24.875V25H121.039C120.966 24.8333 120.909 24.612 120.867 24.3359C120.826 24.0547 120.805 23.7943 120.805 23.5547ZM121.055 19.875L121.07 20.8906H119.609C119.198 20.8906 118.831 20.9245 118.508 20.9922C118.185 21.0547 117.914 21.151 117.695 21.2812C117.477 21.4115 117.31 21.5755 117.195 21.7734C117.081 21.9661 117.023 22.1927 117.023 22.4531C117.023 22.7188 117.083 22.9609 117.203 23.1797C117.323 23.3984 117.503 23.5729 117.742 23.7031C117.987 23.8281 118.286 23.8906 118.641 23.8906C119.083 23.8906 119.474 23.7969 119.812 23.6094C120.151 23.4219 120.419 23.1927 120.617 22.9219C120.82 22.651 120.93 22.388 120.945 22.1328L121.562 22.8281C121.526 23.0469 121.427 23.2891 121.266 23.5547C121.104 23.8203 120.888 24.0755 120.617 24.3203C120.352 24.5599 120.034 24.7604 119.664 24.9219C119.299 25.0781 118.888 25.1562 118.43 25.1562C117.857 25.1562 117.354 25.0443 116.922 24.8203C116.495 24.5964 116.161 24.2969 115.922 23.9219C115.688 23.5417 115.57 23.1172 115.57 22.6484C115.57 22.1953 115.659 21.7969 115.836 21.4531C116.013 21.1042 116.268 20.8151 116.602 20.5859C116.935 20.3516 117.336 20.1745 117.805 20.0547C118.273 19.9349 118.797 19.875 119.375 19.875H121.055ZM125.961 18.2266V25H124.508V16.5469H125.883L125.961 18.2266ZM125.664 20.4531L124.992 20.4297C124.997 19.8516 125.073 19.3177 125.219 18.8281C125.365 18.3333 125.581 17.9036 125.867 17.5391C126.154 17.1745 126.51 16.8932 126.938 16.6953C127.365 16.4922 127.859 16.3906 128.422 16.3906C128.818 16.3906 129.182 16.4479 129.516 16.5625C129.849 16.6719 130.138 16.8464 130.383 17.0859C130.628 17.3255 130.818 17.6328 130.953 18.0078C131.089 18.3828 131.156 18.8359 131.156 19.3672V25H129.711V19.4375C129.711 18.9948 129.635 18.6406 129.484 18.375C129.339 18.1094 129.13 17.9167 128.859 17.7969C128.589 17.6719 128.271 17.6094 127.906 17.6094C127.479 17.6094 127.122 17.6849 126.836 17.8359C126.549 17.987 126.32 18.1953 126.148 18.4609C125.977 18.7266 125.852 19.0312 125.773 19.375C125.701 19.7135 125.664 20.0729 125.664 20.4531ZM131.141 19.6562L130.172 19.9531C130.177 19.4896 130.253 19.0443 130.398 18.6172C130.549 18.1901 130.766 17.8099 131.047 17.4766C131.333 17.1432 131.685 16.8802 132.102 16.6875C132.518 16.4896 132.995 16.3906 133.531 16.3906C133.984 16.3906 134.385 16.4505 134.734 16.5703C135.089 16.6901 135.385 16.875 135.625 17.125C135.87 17.3698 136.055 17.6849 136.18 18.0703C136.305 18.4557 136.367 18.9141 136.367 19.4453V25H134.914V19.4297C134.914 18.9557 134.839 18.5885 134.688 18.3281C134.542 18.0625 134.333 17.8776 134.062 17.7734C133.797 17.6641 133.479 17.6094 133.109 17.6094C132.792 17.6094 132.51 17.6641 132.266 17.7734C132.021 17.8828 131.815 18.0339 131.648 18.2266C131.482 18.4141 131.354 18.6302 131.266 18.875C131.182 19.1198 131.141 19.3802 131.141 19.6562Z" fill="white"/>
<path fill-rule="evenodd" clip-rule="evenodd" d="M44.2374 19.4217C49.0692 17.3166 52.2912 15.9287 53.9033 15.2582C58.5063 13.3437 59.4627 13.0111 60.0861 13.0001C60.2232 12.9977 60.5298 13.0317 60.7284 13.1928C60.8961 13.3289 60.9422 13.5127 60.9643 13.6417C60.9864 13.7707 61.0139 14.0645 60.992 14.2942C60.7426 16.915 59.6633 23.2751 59.1142 26.2104C58.8818 27.4525 58.4244 27.869 57.9815 27.9097C57.0189 27.9983 56.288 27.2736 55.3558 26.6625C53.897 25.7063 53.0729 25.111 51.6569 24.1779C50.0205 23.0995 51.0813 22.5068 52.0139 21.5382C52.258 21.2847 56.4988 17.4273 56.5809 17.0774C56.5912 17.0336 56.6007 16.8705 56.5038 16.7843C56.4069 16.6982 56.2639 16.7276 56.1606 16.7511C56.0143 16.7843 53.6839 18.3246 49.1694 21.372C48.5079 21.8262 47.9087 22.0476 47.3719 22.036C46.7801 22.0232 45.6417 21.7013 44.7955 21.4263C43.7575 21.0888 42.9325 20.9105 43.0044 20.3374C43.0418 20.039 43.4528 19.7337 44.2374 19.4217Z" fill="white"/>
</svg>
