<svg width="1824" height="424" viewBox="0 0 1824 424" fill="none" xmlns="http://www.w3.org/2000/svg">
<path d="M0 405.251L64.676 418.407C71.3263 419.759 78.2259 419.162 84.5448 416.686L161.744 386.442C165.838 384.838 170.195 384.015 174.592 384.015H235.487C242.875 384.015 250.076 381.692 256.071 377.374L314.994 334.939C323.132 329.078 333.382 326.964 343.175 329.127L386.368 338.668C394.281 340.416 402.555 339.382 409.794 335.74L465.414 307.76C474.397 303.242 484.883 302.778 494.23 306.486L540.741 324.936C553.921 330.164 568.951 326.98 578.878 316.855L619.527 275.4C626.967 267.813 637.433 263.99 648.01 264.996L751.768 274.86C758.321 275.484 764.918 274.258 770.81 271.322L873.249 220.281C876.489 218.667 879.958 217.562 883.535 217.005L1099.68 183.329C1105.66 182.398 1111.78 183.021 1117.44 185.14L1183.48 209.832C1196.51 214.706 1211.19 211.45 1220.94 201.524L1278.35 143.08C1286.24 135.051 1297.49 131.274 1308.62 132.917L1429.33 150.731C1439.69 152.26 1450.2 149.097 1458 142.101L1499.1 105.216C1508.05 97.1842 1520.49 94.2745 1532.07 97.4993L1576.75 109.935C1584.26 112.026 1592.25 111.566 1599.47 108.627L1656.63 85.3627C1662.26 83.0706 1668.39 82.2753 1674.42 83.0544L1739.06 91.4059C1743.75 92.0109 1748.5 91.6684 1753.05 90.3987L1819 71.9844" stroke="url(#paint0_linear_65_58)" stroke-opacity="0.15" stroke-width="9.39258" stroke-linecap="round" stroke-linejoin="round"/>
<path d="M0 341.597L65.2841 327.019C68.9494 326.2 72.4598 324.8 75.6819 322.87L151.507 277.464C156.963 274.196 163.205 272.47 169.565 272.47H216.727C224.453 272.47 231.964 269.925 238.098 265.227L299.761 218.003C310.672 209.647 325.452 208.416 337.595 214.853L464.926 282.354C476.936 288.72 491.539 287.592 502.427 279.456L550.237 243.734C558.054 237.893 567.947 235.565 577.548 237.306L633.143 247.39C641.104 248.834 649.32 247.487 656.403 243.576L728.69 203.669C739.771 197.551 753.286 197.864 764.072 204.488L806.214 230.368C818.486 237.905 834.115 237.193 845.65 228.571L865.39 213.817C873.493 207.761 883.811 205.49 893.708 207.583L942.288 217.861C951.713 219.855 961.543 217.893 969.48 212.434L1025.62 173.827C1031.05 170.088 1037.43 167.954 1044.03 167.671L1109.39 164.862C1113.02 164.706 1116.66 165.115 1120.17 166.075L1174.21 180.853C1186.32 184.165 1199.28 180.766 1208.2 171.937L1259.07 121.619C1268.64 112.151 1282.78 108.982 1295.47 113.458L1322.32 122.921C1396.23 148.975 1478.28 136.355 1540.94 89.2909L1568.21 68.8081C1580.25 59.7712 1596.7 59.3965 1609.13 67.8762L1650.26 95.9325C1659.65 102.337 1671.56 103.806 1682.22 99.8753L1738.81 79.0184C1743.65 77.2335 1748.04 74.4043 1751.66 70.7317L1819 2.52148" stroke="url(#paint1_linear_65_58)" stroke-opacity="0.15" stroke-width="4.68651" stroke-linecap="round" stroke-linejoin="round"/>
<defs>
<linearGradient id="paint0_linear_65_58" x1="1895.89" y1="99.0009" x2="1686.93" y2="954.292" gradientUnits="userSpaceOnUse">
<stop stop-color="#FF7144" stop-opacity="0.01"/>
<stop offset="0.0949252" stop-color="#FF8979"/>
<stop offset="0.239409" stop-color="#FF4DCA"/>
<stop offset="0.442535" stop-color="#E930FF"/>
<stop offset="0.940665" stop-color="#E44D88"/>
<stop offset="0.970958" stop-color="#E34E81" stop-opacity="0.594203"/>
<stop offset="1" stop-color="#E3507A" stop-opacity="0.01"/>
</linearGradient>
<linearGradient id="paint1_linear_65_58" x1="823.96" y1="511.135" x2="958.482" y2="-142.648" gradientUnits="userSpaceOnUse">
<stop stop-color="#45AFEE" stop-opacity="0.01"/>
<stop offset="0.0375866" stop-color="#43B1EC" stop-opacity="0.615533"/>
<stop offset="0.0805049" stop-color="#41B3E9" stop-opacity="0.767526"/>
<stop offset="0.146149" stop-color="#3EB7E5"/>
<stop offset="0.747659" stop-color="#23DBBD"/>
<stop offset="0.842081" stop-color="#1EE0B7" stop-opacity="0.852977"/>
<stop offset="0.896184" stop-color="#1CE4B3" stop-opacity="0.768733"/>
<stop offset="0.927591" stop-color="#1BE5B1" stop-opacity="0.144475"/>
<stop offset="1" stop-color="#17EAAC" stop-opacity="0.01"/>
</linearGradient>
</defs>
</svg>
