<svg width="17" height="17" viewBox="0 0 17 17" fill="none" xmlns="http://www.w3.org/2000/svg">
<path d="M14.4925 6.82139C14.393 5.78645 14.0273 4.7949 13.4308 3.9433C12.8344 3.0917 12.0275 2.40906 11.0889 1.96186C10.1503 1.51466 9.11189 1.31815 8.07477 1.39145C7.03766 1.46475 6.0372 1.80537 5.17081 2.38014C4.42649 2.87784 3.80164 3.53422 3.34115 4.30212C2.88065 5.07002 2.59594 5.93038 2.50748 6.82139C2.42069 7.70656 2.53204 8.59995 2.83343 9.43675C3.13482 10.2735 3.61871 11.0328 4.24998 11.6593L8.00414 15.4206C8.06999 15.4869 8.14833 15.5396 8.23465 15.5756C8.32097 15.6116 8.41355 15.6301 8.50706 15.6301C8.60057 15.6301 8.69315 15.6116 8.77947 15.5756C8.86579 15.5396 8.94413 15.4869 9.00998 15.4206L12.75 11.6593C13.3812 11.0328 13.8651 10.2735 14.1665 9.43675C14.4679 8.59995 14.5793 7.70656 14.4925 6.82139ZM11.7583 10.6606L8.49998 13.9189L5.24164 10.6606C4.76146 10.1803 4.39363 9.5997 4.1646 8.96038C3.93557 8.32106 3.85103 7.63894 3.91706 6.96305C3.98351 6.27675 4.20164 5.61379 4.55567 5.02211C4.9097 4.43043 5.39079 3.9248 5.96414 3.5418C6.71565 3.0426 7.59778 2.7763 8.49998 2.7763C9.40218 2.7763 10.2843 3.0426 11.0358 3.5418C11.6074 3.92332 12.0875 4.42671 12.4414 5.0158C12.7953 5.60489 13.0144 6.26506 13.0829 6.94889C13.1511 7.62706 13.0676 8.31192 12.8385 8.95386C12.6094 9.5958 12.2404 10.1788 11.7583 10.6606ZM8.49998 4.25014C7.86955 4.25014 7.25328 4.43708 6.7291 4.78733C6.20492 5.13757 5.79637 5.63539 5.55511 6.21783C5.31386 6.80027 5.25073 7.44117 5.37372 8.05949C5.49671 8.6778 5.80029 9.24576 6.24607 9.69154C6.69185 10.1373 7.25981 10.4409 7.87813 10.5639C8.49644 10.6869 9.13734 10.6238 9.71978 10.3825C10.3022 10.1412 10.8 9.7327 11.1503 9.20852C11.5005 8.68434 11.6875 8.06807 11.6875 7.43764C11.6856 6.59283 11.3492 5.78317 10.7518 5.1858C10.1544 4.58843 9.34478 4.25201 8.49998 4.25014ZM8.49998 9.20847C8.14974 9.20847 7.80737 9.10461 7.51615 8.91003C7.22494 8.71545 6.99797 8.43888 6.86394 8.11531C6.72991 7.79173 6.69484 7.43567 6.76317 7.09216C6.8315 6.74866 7.00015 6.43312 7.24781 6.18547C7.49546 5.93781 7.811 5.76916 8.1545 5.70083C8.49801 5.6325 8.85407 5.66757 9.17765 5.8016C9.50122 5.93563 9.77779 6.1626 9.97237 6.45381C10.167 6.74503 10.2708 7.0874 10.2708 7.43764C10.2708 7.90729 10.0842 8.35771 9.75214 8.68981C9.42005 9.0219 8.96963 9.20847 8.49998 9.20847Z" fill="#7786A5"/>
</svg>
