<svg width="17" height="17" viewBox="0 0 17 17" fill="none" xmlns="http://www.w3.org/2000/svg">
<g clip-path="url(#clip0_0_356)">
<path d="M8.50297 4.13525C6.09251 4.13525 4.14105 6.08884 4.14105 8.49717C4.14105 10.9076 6.09464 12.8591 8.50297 12.8591C10.9134 12.8591 12.8649 10.9055 12.8649 8.49717C12.8649 6.08671 10.9113 4.13525 8.50297 4.13525ZM8.50297 11.3284C6.93826 11.3284 5.67176 10.0612 5.67176 8.49717C5.67176 6.93317 6.93897 5.66596 8.50297 5.66596C10.067 5.66596 11.3342 6.93317 11.3342 8.49717C11.3349 10.0612 10.0677 11.3284 8.50297 11.3284Z" fill="#7786A5"/>
<path d="M12.0049 0.0538871C10.4409 -0.0190711 6.567 -0.0155295 5.00158 0.0538871C3.626 0.118345 2.41262 0.450553 1.43441 1.42876C-0.200419 3.06359 0.00853891 5.2665 0.00853891 8.4972C0.00853891 11.8037 -0.175628 13.9556 1.43441 15.5656C3.07562 17.2061 5.31041 16.9915 8.50287 16.9915C11.7782 16.9915 12.9087 16.9936 14.0668 16.5453C15.6415 15.934 16.83 14.5265 16.9462 11.9985C17.0199 10.4338 17.0156 6.56063 16.9462 4.99521C16.806 2.01101 15.2044 0.20122 12.0049 0.0538871ZM14.4805 14.484C13.4088 15.5557 11.922 15.4601 8.48233 15.4601C4.94066 15.4601 3.52046 15.5125 2.48416 14.4734C1.29062 13.2855 1.50666 11.378 1.50666 8.48587C1.50666 4.57234 1.10504 1.75388 5.03275 1.55272C5.93516 1.52084 6.20079 1.51022 8.47241 1.51022L8.50429 1.53147C12.279 1.53147 15.2405 1.13622 15.4183 5.06321C15.4587 5.95925 15.4679 6.22842 15.4679 8.4965C15.4672 11.9971 15.5338 13.4258 14.4805 14.484Z" fill="#7786A5"/>
<path d="M13.0375 4.98242C13.6005 4.98242 14.0568 4.52607 14.0568 3.96314C14.0568 3.4002 13.6005 2.94385 13.0375 2.94385C12.4746 2.94385 12.0182 3.4002 12.0182 3.96314C12.0182 4.52607 12.4746 4.98242 13.0375 4.98242Z" fill="#7786A5"/>
</g>
<defs>
<clipPath id="clip0_0_356">
<rect width="17" height="17" fill="white"/>
</clipPath>
</defs>
</svg>
