<svg width="188" height="34" viewBox="0 0 188 34" fill="none" xmlns="http://www.w3.org/2000/svg">
<path d="M62.8232 9.35938V25H59.6113V9.35938H62.8232ZM80.7713 9.35938V25H77.5486L71.2645 14.5156V25H68.0418V9.35938H71.2645L77.5594 19.8545V9.35938H80.7713ZM91.4146 21.7344L95.0992 9.35938H98.6871L93.2408 25H90.8775L91.4146 21.7344ZM88.0201 9.35938L91.6939 21.7344L92.2525 25H89.8678L84.4537 9.35938H88.0201ZM112.843 22.4863V25H104.518V22.4863H112.843ZM105.571 9.35938V25H102.348V9.35938H105.571ZM111.758 15.7295V18.1787H104.518V15.7295H111.758ZM112.832 9.35938V11.8838H104.518V9.35938H112.832Z" fill="#7786A5"/>
<path d="M116.923 9.35938H122.756C123.952 9.35938 124.98 9.53841 125.839 9.89648C126.706 10.2546 127.372 10.7845 127.837 11.4863C128.303 12.1882 128.535 13.0511 128.535 14.0752C128.535 14.9131 128.392 15.6328 128.106 16.2344C127.826 16.8288 127.429 17.3265 126.913 17.7275C126.405 18.1214 125.807 18.4365 125.119 18.6729L124.099 19.21H119.029L119.007 16.6963H122.778C123.343 16.6963 123.812 16.596 124.185 16.3955C124.557 16.195 124.836 15.9157 125.023 15.5576C125.216 15.1995 125.313 14.7842 125.313 14.3115C125.313 13.8102 125.22 13.377 125.033 13.0117C124.847 12.6465 124.564 12.3672 124.185 12.1738C123.805 11.9805 123.329 11.8838 122.756 11.8838H120.146V25H116.923V9.35938ZM125.667 25L122.101 18.0283L125.506 18.0068L129.115 24.8496V25H125.667ZM146.064 16.8145V17.5557C146.064 18.7445 145.903 19.8115 145.581 20.7568C145.259 21.7021 144.804 22.5078 144.217 23.1738C143.63 23.8327 142.928 24.3376 142.111 24.6885C141.302 25.0394 140.403 25.2148 139.415 25.2148C138.434 25.2148 137.535 25.0394 136.719 24.6885C135.91 24.3376 135.208 23.8327 134.613 23.1738C134.019 22.5078 133.557 21.7021 133.228 20.7568C132.905 19.8115 132.744 18.7445 132.744 17.5557V16.8145C132.744 15.6185 132.905 14.5514 133.228 13.6133C133.55 12.668 134.005 11.8623 134.592 11.1963C135.186 10.5303 135.888 10.0218 136.697 9.6709C137.514 9.31999 138.412 9.14453 139.394 9.14453C140.382 9.14453 141.281 9.31999 142.09 9.6709C142.906 10.0218 143.608 10.5303 144.195 11.1963C144.79 11.8623 145.248 12.668 145.57 13.6133C145.9 14.5514 146.064 15.6185 146.064 16.8145ZM142.81 17.5557V16.793C142.81 15.9622 142.734 15.2318 142.584 14.6016C142.434 13.9714 142.212 13.4414 141.918 13.0117C141.624 12.582 141.266 12.2598 140.844 12.0449C140.421 11.8229 139.938 11.7119 139.394 11.7119C138.849 11.7119 138.366 11.8229 137.943 12.0449C137.528 12.2598 137.174 12.582 136.88 13.0117C136.593 13.4414 136.375 13.9714 136.225 14.6016C136.074 15.2318 135.999 15.9622 135.999 16.793V17.5557C135.999 18.3792 136.074 19.1097 136.225 19.7471C136.375 20.3773 136.597 20.9108 136.891 21.3477C137.184 21.7773 137.542 22.1032 137.965 22.3252C138.387 22.5472 138.871 22.6582 139.415 22.6582C139.959 22.6582 140.443 22.5472 140.865 22.3252C141.288 22.1032 141.642 21.7773 141.929 21.3477C142.215 20.9108 142.434 20.3773 142.584 19.7471C142.734 19.1097 142.81 18.3792 142.81 17.5557ZM163.432 16.8145V17.5557C163.432 18.7445 163.271 19.8115 162.949 20.7568C162.627 21.7021 162.172 22.5078 161.585 23.1738C160.998 23.8327 160.296 24.3376 159.479 24.6885C158.67 25.0394 157.771 25.2148 156.783 25.2148C155.802 25.2148 154.903 25.0394 154.087 24.6885C153.277 24.3376 152.576 23.8327 151.981 23.1738C151.387 22.5078 150.925 21.7021 150.596 20.7568C150.273 19.8115 150.112 18.7445 150.112 17.5557V16.8145C150.112 15.6185 150.273 14.5514 150.596 13.6133C150.918 12.668 151.373 11.8623 151.96 11.1963C152.554 10.5303 153.256 10.0218 154.065 9.6709C154.882 9.31999 155.78 9.14453 156.762 9.14453C157.75 9.14453 158.649 9.31999 159.458 9.6709C160.274 10.0218 160.976 10.5303 161.563 11.1963C162.158 11.8623 162.616 12.668 162.938 13.6133C163.268 14.5514 163.432 15.6185 163.432 16.8145ZM160.178 17.5557V16.793C160.178 15.9622 160.102 15.2318 159.952 14.6016C159.802 13.9714 159.58 13.4414 159.286 13.0117C158.992 12.582 158.634 12.2598 158.212 12.0449C157.789 11.8229 157.306 11.7119 156.762 11.7119C156.217 11.7119 155.734 11.8229 155.311 12.0449C154.896 12.2598 154.541 12.582 154.248 13.0117C153.961 13.4414 153.743 13.9714 153.593 14.6016C153.442 15.2318 153.367 15.9622 153.367 16.793V17.5557C153.367 18.3792 153.442 19.1097 153.593 19.7471C153.743 20.3773 153.965 20.9108 154.259 21.3477C154.552 21.7773 154.91 22.1032 155.333 22.3252C155.755 22.5472 156.239 22.6582 156.783 22.6582C157.327 22.6582 157.811 22.5472 158.233 22.3252C158.656 22.1032 159.01 21.7773 159.297 21.3477C159.583 20.9108 159.802 20.3773 159.952 19.7471C160.102 19.1097 160.178 18.3792 160.178 17.5557ZM169.424 9.35938H172.153L176.171 20.8428L180.188 9.35938H182.917L177.266 25H175.075L169.424 9.35938ZM167.953 9.35938H170.671L171.165 20.5527V25H167.953V9.35938ZM181.671 9.35938H184.399V25H181.176V20.5527L181.671 9.35938Z" fill="#46536D"/>
<path d="M18.5446 2.12476L2.1605 2.12477C2.07178 2.12477 1.99987 2.19668 1.99987 2.2854L1.99987 32.0819" stroke="#46536D" stroke-width="3.21256" stroke-linecap="round"/>
<path d="M22.4729 32.0818L38.857 32.0818C38.9457 32.0818 39.0176 32.0099 39.0176 31.9211L39.0176 2.12467" stroke="#46536D" stroke-width="3.21256" stroke-linecap="round"/>
<line x1="12.1885" y1="22.6842" x2="12.1885" y2="31.9203" stroke="#7786A5" stroke-width="3.21256" stroke-linecap="round"/>
<line x1="29.2992" y1="2.60604" x2="29.2992" y2="11.8421" stroke="#7786A5" stroke-width="3.21256" stroke-linecap="round"/>
<line x1="20.7862" y1="11.6021" x2="20.7862" y2="20.8382" stroke="#7786A5" stroke-width="3.21256" stroke-linecap="round"/>
</svg>
