<svg width="1824" height="357" viewBox="0 0 1824 357" fill="none" xmlns="http://www.w3.org/2000/svg">
<path d="M0 338.251L64.676 351.407C71.3263 352.759 78.2259 352.162 84.5448 349.686L161.744 319.442C165.838 317.838 170.195 317.015 174.592 317.015H235.487C242.875 317.015 250.076 314.692 256.071 310.374L314.994 267.939C323.132 262.078 333.382 259.964 343.175 262.127L386.368 271.668C394.281 273.416 402.555 272.382 409.794 268.74L465.414 240.76C474.397 236.242 484.883 235.778 494.23 239.486L540.741 257.936C553.921 263.164 568.951 259.98 578.878 249.855L619.527 208.4C626.967 200.813 637.433 196.99 648.01 197.996L751.768 207.86C758.321 208.484 764.918 207.258 770.81 204.322L873.249 153.281C876.489 151.667 879.958 150.562 883.535 150.005L1099.68 116.329C1105.66 115.398 1111.78 116.021 1117.44 118.14L1183.48 142.832C1196.51 147.706 1211.19 144.45 1220.94 134.524L1278.35 76.0798C1286.24 68.0509 1297.49 64.2743 1308.62 65.9174L1429.33 83.7305C1439.69 85.2598 1450.2 82.0971 1458 75.1012L1499.1 38.2162C1508.05 30.1842 1520.49 27.2745 1532.07 30.4993L1576.75 42.9355C1584.26 45.0258 1592.25 44.5655 1599.47 41.6267L1656.63 18.3627C1662.26 16.0706 1668.39 15.2753 1674.42 16.0544L1739.06 24.4059C1743.75 25.0109 1748.5 24.6684 1753.05 23.3987L1819 4.98438" stroke="url(#paint0_linear_0_173)" stroke-opacity="0.15" stroke-width="9.39258" stroke-linecap="round" stroke-linejoin="round"/>
<defs>
<linearGradient id="paint0_linear_0_173" x1="1895.89" y1="32.0009" x2="1686.93" y2="887.292" gradientUnits="userSpaceOnUse">
<stop stop-color="#FF7144" stop-opacity="0.01"/>
<stop offset="0.0949252" stop-color="#FF8979"/>
<stop offset="0.239409" stop-color="#FF4DCA"/>
<stop offset="0.442535" stop-color="#E930FF"/>
<stop offset="0.940665" stop-color="#E44D88"/>
<stop offset="0.970958" stop-color="#E34E81" stop-opacity="0.594203"/>
<stop offset="1" stop-color="#E3507A" stop-opacity="0.01"/>
</linearGradient>
</defs>
</svg>
