<svg width="17" height="15" viewBox="0 0 17 15" fill="none" xmlns="http://www.w3.org/2000/svg">
<path fill-rule="evenodd" clip-rule="evenodd" d="M1.16866 6.06495C5.73205 4.07676 8.77503 2.76602 10.2976 2.13273C14.6448 0.324578 15.5481 0.0104822 16.1369 0.000110585C16.2664 -0.00217054 16.5559 0.0299218 16.7435 0.182106C16.9018 0.310608 16.9454 0.484196 16.9663 0.60603C16.9871 0.727863 17.0131 1.0054 16.9924 1.22227C16.7569 3.69749 15.7375 9.70422 15.2189 12.4765C14.9995 13.6496 14.5674 14.0429 14.1492 14.0814C13.2401 14.165 12.5498 13.4806 11.6694 12.9035C10.2916 12.0004 9.5133 11.4382 8.17597 10.5569C6.63045 9.53842 7.63235 8.97865 8.51313 8.06383C8.74364 7.82442 12.7489 4.18132 12.8264 3.85083C12.8361 3.8095 12.8451 3.65543 12.7536 3.57408C12.6621 3.49272 12.527 3.52054 12.4295 3.54267C12.2913 3.57403 10.0904 5.02878 5.82663 7.9069C5.2019 8.33589 4.63604 8.54491 4.12904 8.53396C3.57012 8.52188 2.49498 8.21793 1.69573 7.95813C0.715411 7.63947 -0.063727 7.47099 0.00411841 6.9298C0.0394565 6.64792 0.427637 6.35963 1.16866 6.06495Z" fill="#7786A5"/>
</svg>
