<svg width="40" height="40" viewBox="0 0 40 40" fill="none" xmlns="http://www.w3.org/2000/svg">
<path d="M7.99374 11.7596C7.99374 9.67798 9.68208 7.98964 11.7621 7.98964H13.4771C14.4704 7.98964 15.4254 7.59631 16.1321 6.89464L17.3304 5.69464C18.7987 4.21964 21.1854 4.21298 22.6604 5.68131L22.6754 5.69464L23.8754 6.89464C24.5804 7.59631 25.5354 7.98964 26.5304 7.98964H28.2437C30.3254 7.98964 32.0137 9.67798 32.0137 11.7596V13.4713C32.0137 14.468 32.4071 15.4213 33.1087 16.128L34.3087 17.328C35.7837 18.7963 35.7921 21.1813 34.3237 22.658L34.3087 22.673L33.1087 23.873C32.4071 24.5763 32.0137 25.533 32.0137 26.5263V28.2413C32.0137 30.323 30.3254 32.0096 28.2437 32.0096H26.5304C25.5354 32.0096 24.5804 32.4046 23.8754 33.1063L22.6754 34.3046C21.2087 35.7813 18.8221 35.788 17.3454 34.3196C17.3404 34.3146 17.3354 34.3096 17.3304 34.3046L16.1321 33.1063C15.4254 32.4046 14.4704 32.0096 13.4771 32.0096H11.7621C9.68208 32.0096 7.99374 30.323 7.99374 28.2413V26.5263C7.99374 25.533 7.59874 24.5763 6.89708 23.873L5.69874 22.673C4.22208 21.2046 4.21541 18.818 5.68374 17.343L5.69874 17.328L6.89708 16.128C7.59874 15.4213 7.99374 14.468 7.99374 13.4713V11.7596" stroke="#7786A5" stroke-width="2.5" stroke-linecap="round" stroke-linejoin="round"/>
<path d="M15.7173 24.2825L24.284 15.7159" stroke="#7786A5" stroke-width="2.5" stroke-linecap="round" stroke-linejoin="round"/>
<path d="M24.2789 25.5372C23.9456 25.5372 23.6289 25.4039 23.3956 25.1705C23.2789 25.0539 23.1956 24.9039 23.1289 24.7539C23.0623 24.6039 23.0289 24.4555 23.0289 24.2872C23.0289 24.1205 23.0623 23.9539 23.1289 23.8039C23.1956 23.6539 23.2789 23.5205 23.3956 23.4039C23.8623 22.9372 24.6956 22.9372 25.1623 23.4039C25.2789 23.5205 25.3789 23.6539 25.4456 23.8039C25.4956 23.9539 25.5289 24.1205 25.5289 24.2872C25.5289 24.4555 25.4956 24.6039 25.4456 24.7539C25.3789 24.9039 25.2789 25.0539 25.1623 25.1705C24.9289 25.4039 24.6123 25.5372 24.2789 25.5372" fill="#7786A5"/>
<path d="M15.7128 16.9711C15.5461 16.9711 15.3961 16.9361 15.2461 16.8695C15.0961 16.8028 14.9461 16.7211 14.8294 16.6045C14.7128 16.4711 14.6294 16.3378 14.5628 16.1878C14.4961 16.0361 14.4628 15.8878 14.4628 15.7211C14.4628 15.5528 14.4961 15.3878 14.5628 15.2378C14.6294 15.0878 14.7128 14.9378 14.8294 14.8378C15.3128 14.3695 16.1294 14.3695 16.5961 14.8378C16.8294 15.0695 16.9628 15.3878 16.9628 15.7211C16.9628 15.8878 16.9461 16.0361 16.8794 16.1878C16.8128 16.3378 16.7128 16.4711 16.5961 16.6045C16.4794 16.7211 16.3461 16.8028 16.1961 16.8695C16.0461 16.9361 15.8794 16.9711 15.7128 16.9711" fill="#7786A5"/>
</svg>
