<svg width="15" height="15" viewBox="0 0 15 15" fill="none" xmlns="http://www.w3.org/2000/svg">
<path d="M7.91794 8.20824L6.28877 9.83032C6.22238 9.89617 6.16968 9.97452 6.13372 10.0608C6.09776 10.1472 6.07925 10.2397 6.07925 10.3332C6.07925 10.4267 6.09776 10.5193 6.13372 10.6056C6.16968 10.692 6.22238 10.7703 6.28877 10.8362C6.35462 10.9025 6.43296 10.9552 6.51928 10.9912C6.6056 11.0272 6.69818 11.0457 6.79169 11.0457C6.8852 11.0457 6.97778 11.0272 7.0641 10.9912C7.15041 10.9552 7.22875 10.9025 7.2946 10.8362L10.1279 8.00282C10.1924 7.93546 10.243 7.85602 10.2767 7.76907C10.3475 7.59662 10.3475 7.40319 10.2767 7.23074C10.243 7.14379 10.1924 7.06436 10.1279 6.99699L7.2946 4.16366C7.22856 4.09761 7.15015 4.04522 7.06386 4.00948C6.97757 3.97374 6.88509 3.95534 6.79169 3.95534C6.69829 3.95534 6.6058 3.97374 6.51951 4.00948C6.43322 4.04522 6.35481 4.09761 6.28877 4.16366C6.22273 4.2297 6.17034 4.30811 6.13459 4.3944C6.09885 4.48069 6.08046 4.57317 6.08046 4.66657C6.08046 4.75997 6.09885 4.85246 6.13459 4.93875C6.17034 5.02504 6.22273 5.10345 6.28877 5.16949L7.91794 6.79157H1.12502C0.937159 6.79157 0.756991 6.8662 0.624153 6.99904C0.491315 7.13188 0.416687 7.31205 0.416687 7.49991C0.416687 7.68777 0.491315 7.86794 0.624153 8.00078C0.756991 8.13361 0.937159 8.20824 1.12502 8.20824H7.91794ZM7.50002 0.416575C6.17621 0.410664 4.87723 0.77585 3.75044 1.47071C2.62364 2.16557 1.71411 3.16229 1.12502 4.34782C1.04048 4.5169 1.02657 4.71263 1.08635 4.89196C1.14613 5.0713 1.27469 5.21954 1.44377 5.30407C1.61285 5.38861 1.80858 5.40252 1.98791 5.34275C2.16724 5.28297 2.31548 5.1544 2.40002 4.98532C2.84782 4.08101 3.52899 3.31268 4.37312 2.75973C5.21725 2.20679 6.19373 1.88928 7.20164 1.84004C8.20955 1.79079 9.21233 2.01158 10.1063 2.4796C11.0004 2.94762 11.7532 3.64589 12.287 4.50224C12.8208 5.35859 13.1163 6.34196 13.1429 7.35072C13.1695 8.35949 12.9262 9.35705 12.4382 10.2403C11.9502 11.1236 11.2352 11.8605 10.367 12.375C9.49889 12.8894 8.50913 13.1627 7.50002 13.1666C6.44381 13.1711 5.40771 12.8778 4.51064 12.3203C3.61356 11.7628 2.89186 10.9636 2.42835 10.0145C2.34382 9.84542 2.19558 9.71685 2.01624 9.65707C1.83691 9.59729 1.64118 9.6112 1.4721 9.69574C1.30303 9.78028 1.17446 9.92852 1.11468 10.1079C1.05491 10.2872 1.06882 10.4829 1.15335 10.652C1.71494 11.7821 2.56826 12.7417 3.62506 13.4315C4.68186 14.1213 5.90375 14.5162 7.16436 14.5754C8.42496 14.6347 9.67849 14.356 10.7953 13.7683C11.9121 13.1806 12.8516 12.3052 13.5167 11.2327C14.1817 10.1602 14.5481 8.92942 14.578 7.66778C14.6079 6.40615 14.3003 5.15943 13.6868 4.05658C13.0733 2.95373 12.1763 2.03481 11.0886 1.39486C10.0009 0.754906 8.76201 0.417167 7.50002 0.416575Z" fill="#7786A5"/>
</svg>
