<svg width="13" height="15" viewBox="0 0 13 15" fill="none" xmlns="http://www.w3.org/2000/svg">
<path d="M10.75 0.416504H3.66666C2.91522 0.416504 2.19455 0.715015 1.66319 1.24637C1.13184 1.77772 0.833328 2.49839 0.833328 3.24984V11.7498C0.833328 12.5013 1.13184 13.222 1.66319 13.7533C2.19455 14.2847 2.91522 14.5832 3.66666 14.5832H10.75C11.1257 14.5832 11.4861 14.4339 11.7517 14.1682C12.0174 13.9026 12.1667 13.5422 12.1667 13.1665V1.83317C12.1667 1.45745 12.0174 1.09711 11.7517 0.831436C11.4861 0.565759 11.1257 0.416504 10.75 0.416504ZM2.24999 3.24984C2.24999 2.87411 2.39925 2.51378 2.66493 2.2481C2.9306 1.98243 3.29094 1.83317 3.66666 1.83317H10.75V8.9165H3.66666C3.16732 8.9186 2.67782 9.05565 2.24999 9.31317V3.24984ZM3.66666 13.1665C3.29094 13.1665 2.9306 13.0172 2.66493 12.7516C2.39925 12.4859 2.24999 12.1256 2.24999 11.7498C2.24999 11.3741 2.39925 11.0138 2.66493 10.7481C2.9306 10.4824 3.29094 10.3332 3.66666 10.3332H10.75V13.1665H3.66666ZM5.08333 4.6665H7.91666C8.10452 4.6665 8.28469 4.59188 8.41753 4.45904C8.55037 4.3262 8.625 4.14603 8.625 3.95817C8.625 3.77031 8.55037 3.59014 8.41753 3.4573C8.28469 3.32447 8.10452 3.24984 7.91666 3.24984H5.08333C4.89547 3.24984 4.7153 3.32447 4.58246 3.4573C4.44962 3.59014 4.375 3.77031 4.375 3.95817C4.375 4.14603 4.44962 4.3262 4.58246 4.45904C4.7153 4.59188 4.89547 4.6665 5.08333 4.6665Z" fill="#7786A5"/>
</svg>
