<svg width="15" height="15" viewBox="0 0 15 15" fill="none" xmlns="http://www.w3.org/2000/svg">
<path d="M9.42667 5.22609L6.38792 8.27192L5.21917 7.10317C5.15567 7.02902 5.07752 6.9688 4.98965 6.92628C4.90177 6.88376 4.80605 6.85987 4.7085 6.8561C4.61095 6.85234 4.51367 6.86877 4.42277 6.90439C4.33187 6.94 4.24932 6.99401 4.18029 7.06304C4.11126 7.13207 4.05724 7.21463 4.02163 7.30553C3.98602 7.39642 3.96958 7.4937 3.97335 7.59125C3.97712 7.6888 4.00101 7.78452 4.04353 7.8724C4.08604 7.96028 4.14627 8.03842 4.22042 8.10192L5.885 9.77359C5.95119 9.83924 6.02968 9.89117 6.11598 9.92642C6.20228 9.96167 6.2947 9.97954 6.38792 9.979C6.57374 9.97822 6.75182 9.90445 6.88375 9.77359L10.4254 6.23192C10.4918 6.16607 10.5445 6.08773 10.5805 6.00141C10.6164 5.9151 10.6349 5.82251 10.6349 5.729C10.6349 5.6355 10.6164 5.54291 10.5805 5.4566C10.5445 5.37028 10.4918 5.29194 10.4254 5.22609C10.2927 5.09416 10.1132 5.02011 9.92604 5.02011C9.73891 5.02011 9.55938 5.09416 9.42667 5.22609ZM7.5 0.416504C6.09905 0.416504 4.72956 0.831934 3.56471 1.61026C2.39986 2.38859 1.49197 3.49485 0.955854 4.78916C0.419733 6.08347 0.27946 7.50769 0.552772 8.88173C0.826084 10.2558 1.50071 11.5179 2.49133 12.5085C3.48195 13.4991 4.74408 14.1738 6.11811 14.4471C7.49214 14.7204 8.91637 14.5801 10.2107 14.044C11.505 13.5079 12.6112 12.6 13.3896 11.4351C14.1679 10.2703 14.5833 8.90079 14.5833 7.49984C14.5833 6.56964 14.4001 5.64855 14.0441 4.78916C13.6882 3.92977 13.1664 3.14891 12.5087 2.49116C11.8509 1.83342 11.0701 1.31166 10.2107 0.955691C9.35129 0.59972 8.4302 0.416504 7.5 0.416504ZM7.5 13.1665C6.37924 13.1665 5.28365 12.8342 4.35177 12.2115C3.41989 11.5888 2.69358 10.7038 2.26468 9.66838C1.83579 8.63293 1.72357 7.49355 1.94222 6.39433C2.16087 5.2951 2.70056 4.2854 3.49306 3.4929C4.28556 2.7004 5.29526 2.1607 6.39449 1.94205C7.49371 1.7234 8.63309 1.83562 9.66854 2.26452C10.704 2.69342 11.589 3.41973 12.2117 4.35161C12.8343 5.28348 13.1667 6.37908 13.1667 7.49984C13.1667 9.00273 12.5696 10.4441 11.5069 11.5068C10.4442 12.5695 9.00289 13.1665 7.5 13.1665Z" fill="white"/>
</svg>
