<svg width="15" height="15" viewBox="0 0 15 15" fill="none" xmlns="http://www.w3.org/2000/svg">
<path d="M12.4583 3.60433H10.3333V2.896C10.3333 2.33241 10.1094 1.79191 9.71093 1.39339C9.31241 0.994879 8.77191 0.770996 8.20832 0.770996H6.79166C6.22807 0.770996 5.68757 0.994879 5.28905 1.39339C4.89054 1.79191 4.66666 2.33241 4.66666 2.896V3.60433H2.54166C1.97807 3.60433 1.43757 3.82821 1.03905 4.22673C0.64054 4.62524 0.416656 5.16574 0.416656 5.72933V12.1043C0.416656 12.6679 0.64054 13.2084 1.03905 13.6069C1.43757 14.0054 1.97807 14.2293 2.54166 14.2293H12.4583C13.0219 14.2293 13.5624 14.0054 13.9609 13.6069C14.3594 13.2084 14.5833 12.6679 14.5833 12.1043V5.72933C14.5833 5.16574 14.3594 4.62524 13.9609 4.22673C13.5624 3.82821 13.0219 3.60433 12.4583 3.60433ZM6.08332 2.896C6.08332 2.70813 6.15795 2.52797 6.29079 2.39513C6.42363 2.26229 6.60379 2.18766 6.79166 2.18766H8.20832C8.39618 2.18766 8.57635 2.26229 8.70919 2.39513C8.84203 2.52797 8.91666 2.70813 8.91666 2.896V3.60433H6.08332V2.896ZM13.1667 12.1043C13.1667 12.2922 13.092 12.4724 12.9592 12.6052C12.8264 12.738 12.6462 12.8127 12.4583 12.8127H2.54166C2.35379 12.8127 2.17363 12.738 2.04079 12.6052C1.90795 12.4724 1.83332 12.2922 1.83332 12.1043V8.2085C3.63692 8.92401 5.55964 9.29173 7.49999 9.29225C9.44027 9.29105 11.3629 8.92336 13.1667 8.2085V12.1043ZM13.1667 6.65725C11.3805 7.44192 9.45089 7.84709 7.49999 7.84709C5.54909 7.84709 3.61946 7.44192 1.83332 6.65725V5.72933C1.83332 5.54147 1.90795 5.3613 2.04079 5.22846C2.17363 5.09562 2.35379 5.021 2.54166 5.021H12.4583C12.6462 5.021 12.8264 5.09562 12.9592 5.22846C13.092 5.3613 13.1667 5.54147 13.1667 5.72933V6.65725Z" fill="#7786A5"/>
</svg>
