<svg width="1006" height="305" viewBox="0 0 1006 305" fill="none" xmlns="http://www.w3.org/2000/svg">
<g opacity="0.542522" filter="url(#filter0_f_0_186)">
<path d="M68.5344 226.205C62.3031 223.929 68.7635 221.096 74.9948 223.372L101.415 233.022C101.953 233.219 138.105 220.325 138.105 220.325C141.841 218.934 145.955 218.21 150.126 218.21H181.482C181.944 218.21 209.026 198.009 209.026 198.009C215.775 193.649 224.956 192.064 233.568 193.77L254.067 197.831C254.571 197.931 281.46 186.84 281.46 186.84C289.218 183.34 298.798 182.985 306.978 185.896L330.126 186.286C330.927 186.571 331.884 186.41 332.446 185.896L353.244 166.874C358.906 161.695 367.614 158.948 376.51 159.533L406.728 160.337C443.941 162.788 563.247 108.437 582.106 88.3987C582.106 88.3987 617.119 115.074 627.478 121.246C627.478 121.246 664.162 95.1657 671.885 95.1657C684.175 95.1657 721.118 113.265 721.118 113.265C721.31 113.341 783.316 76.5698 791.276 77.0664C802.26 77.7517 812.757 84.4093 819.585 88.3987C820.569 88.9737 855.303 77.0664 855.303 77.0664C863.475 70.9189 865.542 76.7589 875.933 80.582L897.035 88.3455C897.704 88.5912 940.255 66.2069 940.255 66.2069C945.69 62.9809 906.389 98.6069 897.035 95.1657L863.026 84.3061C862.284 84.0331 830.743 105.043 823.164 104.577C816.889 104.192 791.276 88.3987 791.276 88.3987C790.236 87.7735 741.391 128.695 741.391 128.695C735.06 129.795 704.647 130.971 698.9 128.695L680.093 121.246C660.523 113.496 623.101 165.268 616.444 171.599L600.331 149.182C600.331 149.182 568.184 182.641 547.353 185.896C526.522 189.15 496.611 174.485 496.611 174.485L455.429 170.283C454.082 170.771 452.683 171.174 451.247 171.489L414.471 179.54C411.247 180.245 407.877 180.495 404.532 180.274L374.315 178.285C373.679 178.243 373.057 178.439 372.653 178.809L351.855 197.831C343.984 205.03 330.585 207.283 319.368 203.292L297.032 193.77C296.447 193.562 268.494 207.466 268.494 207.466C262.235 210.289 254.719 211.093 247.657 209.694L227.158 203.292C226.543 203.171 188.239 223.372 188.239 223.372C185.824 224.932 176.977 221.222 147.694 224.514C137.327 225.68 112.941 235.616 112.941 235.616C105.433 238.412 100.204 240.541 92.6684 237.788L68.5344 226.205Z" fill="url(#paint0_linear_0_186)"/>
</g>
<defs>
<filter id="filter0_f_0_186" x="0.966064" y="0.966064" width="1004.84" height="303.138" filterUnits="userSpaceOnUse" color-interpolation-filters="sRGB">
<feFlood flood-opacity="0" result="BackgroundImageFix"/>
<feBlend mode="normal" in="SourceGraphic" in2="BackgroundImageFix" result="shape"/>
<feGaussianBlur stdDeviation="32.517" result="effect1_foregroundBlur_0_186"/>
</filter>
<linearGradient id="paint0_linear_0_186" x1="528.233" y1="-14.0244" x2="458.609" y2="320.728" gradientUnits="userSpaceOnUse">
<stop stop-color="#054BFF" stop-opacity="0.389719"/>
<stop offset="0.445538" stop-color="#3D53CB"/>
<stop offset="0.790756" stop-color="#6FBEDA"/>
<stop offset="1" stop-color="#38B7FF" stop-opacity="0.489074"/>
</linearGradient>
</defs>
</svg>
