<svg width="13" height="15" viewBox="0 0 13 15" fill="none" xmlns="http://www.w3.org/2000/svg">
<path d="M12.1667 4.66685L7.91667 0.941021C7.52707 0.592553 7.02271 0.399902 6.50001 0.399902C5.9773 0.399902 5.47294 0.592553 5.08334 0.941021L0.833339 4.66685C0.60835 4.86807 0.42881 5.11492 0.306674 5.39094C0.184537 5.66697 0.122607 5.96585 0.125006 6.26769V12.4585C0.125006 13.0221 0.348889 13.5626 0.747404 13.9611C1.14592 14.3596 1.68642 14.5835 2.25001 14.5835H10.75C11.3136 14.5835 11.8541 14.3596 12.2526 13.9611C12.6511 13.5626 12.875 13.0221 12.875 12.4585V6.2606C12.8764 5.95996 12.814 5.66245 12.6919 5.38771C12.5698 5.11298 12.3908 4.86728 12.1667 4.66685ZM7.91667 13.1669H5.08334V9.62519C5.08334 9.43733 5.15797 9.25716 5.29081 9.12432C5.42364 8.99148 5.60381 8.91685 5.79167 8.91685H7.20834C7.3962 8.91685 7.57637 8.99148 7.70921 9.12432C7.84204 9.25716 7.91667 9.43733 7.91667 9.62519V13.1669ZM11.4583 12.4585C11.4583 12.6464 11.3837 12.8265 11.2509 12.9594C11.118 13.0922 10.9379 13.1669 10.75 13.1669H9.33334V9.62519C9.33334 9.0616 9.10946 8.5211 8.71094 8.12258C8.31243 7.72407 7.77192 7.50019 7.20834 7.50019H5.79167C5.22809 7.50019 4.68759 7.72407 4.28907 8.12258C3.89056 8.5211 3.66667 9.0616 3.66667 9.62519V13.1669H2.25001C2.06214 13.1669 1.88198 13.0922 1.74914 12.9594C1.6163 12.8265 1.54167 12.6464 1.54167 12.4585V6.2606C1.5418 6.16003 1.56334 6.06064 1.60487 5.96904C1.64639 5.87744 1.70695 5.79573 1.78251 5.72935L6.03251 2.0106C6.16177 1.89704 6.32795 1.83442 6.50001 1.83442C6.67207 1.83442 6.83824 1.89704 6.96751 2.0106L11.2175 5.72935C11.2931 5.79573 11.3536 5.87744 11.3951 5.96904C11.4367 6.06064 11.4582 6.16003 11.4583 6.2606V12.4585Z" fill="white"/>
</svg>
