<svg width="15" height="15" viewBox="0 0 15 15" fill="none" xmlns="http://www.w3.org/2000/svg">
<circle cx="7.5" cy="7.5" r="6.5" stroke="#7786A5" stroke-width="1.375" stroke-linecap="round" stroke-linejoin="round"/>
<path d="M13.1875 10.344C13.1875 10.344 11.1237 9.13477 7.50797 9.13477C3.89226 9.13477 1.8125 10.344 1.8125 10.344" stroke="#7786A5" stroke-width="1.375" stroke-linecap="round" stroke-linejoin="round"/>
<path d="M13.2931 5.33788C13.2931 5.33788 10.4005 3.8916 7.50795 3.8916C4.61538 3.8916 1.40625 5.46899 1.40625 5.46899" stroke="#7786A5" stroke-width="1.375" stroke-linecap="round" stroke-linejoin="round"/>
<path d="M5.33713 1.72287C5.33713 1.72287 4.80609 4.61728 4.81604 7.50982C4.82599 10.4024 5.37692 13.2931 5.37692 13.2931" stroke="#7786A5" stroke-width="1.375" stroke-linecap="round" stroke-linejoin="round"/>
<path d="M8.71491 1.40765C8.71491 1.40765 9.52771 4.60933 9.53766 7.50162C9.54761 10.3939 8.3089 13.5922 8.3089 13.5922" stroke="#7786A5" stroke-width="1.375" stroke-linecap="round" stroke-linejoin="round"/>
</svg>
