<svg width="137" height="26" viewBox="0 0 137 26" fill="none" xmlns="http://www.w3.org/2000/svg">
<path d="M44.1754 6.80847V18.4736H41.7799V6.80847H44.1754ZM57.5615 6.80847V18.4736H55.158L50.4711 10.6541V18.4736H48.0675V6.80847H50.4711L55.166 14.636V6.80847H57.5615ZM65.4996 16.0381L68.2476 6.80847H70.9236L66.8616 18.4736H65.099L65.4996 16.0381ZM62.9679 6.80847L65.7079 16.0381L66.1245 18.4736H64.3459L60.3079 6.80847H62.9679ZM81.4815 16.5989V18.4736H75.2724V16.5989H81.4815ZM76.0575 6.80847V18.4736H73.654V6.80847H76.0575ZM80.6723 11.5595V13.3861H75.2724V11.5595H80.6723ZM81.4735 6.80847V8.69124H75.2724V6.80847H81.4735Z" fill="white"/>
<path d="M84.5244 6.80847H88.8748C89.7667 6.80847 90.5332 6.942 91.1741 7.20906C91.8204 7.47612 92.3172 7.87137 92.6643 8.39481C93.0115 8.91824 93.1851 9.56186 93.1851 10.3256C93.1851 10.9506 93.0783 11.4874 92.8646 11.936C92.6563 12.3793 92.3599 12.7505 91.9753 13.0497C91.5961 13.3434 91.1501 13.5784 90.6374 13.7547L89.8762 14.1553H86.0947L86.0787 12.2805H88.8908C89.3127 12.2805 89.6626 12.2057 89.9403 12.0562C90.2181 11.9066 90.4264 11.6983 90.5653 11.4313C90.7095 11.1642 90.7816 10.8544 90.7816 10.5019C90.7816 10.128 90.7121 9.80488 90.5733 9.53248C90.4344 9.26008 90.2234 9.05177 89.9403 8.90756C89.6572 8.76335 89.3021 8.69124 88.8748 8.69124H86.9279V18.4736H84.5244V6.80847ZM91.046 18.4736L88.386 13.274L90.9258 13.258L93.6177 18.3615V18.4736H91.046ZM106.259 12.3687V12.9215C106.259 13.8081 106.139 14.6039 105.898 15.309C105.658 16.014 105.319 16.6149 104.881 17.1116C104.443 17.603 103.919 17.9796 103.31 18.2413C102.707 18.503 102.037 18.6339 101.299 18.6339C100.568 18.6339 99.8974 18.503 99.2885 18.2413C98.6849 17.9796 98.1615 17.603 97.7182 17.1116C97.2749 16.6149 96.9303 16.014 96.6847 15.309C96.4443 14.6039 96.3241 13.8081 96.3241 12.9215V12.3687C96.3241 11.4767 96.4443 10.6808 96.6847 9.98114C96.925 9.2761 97.2642 8.67522 97.7021 8.17849C98.1455 7.68176 98.6689 7.30253 99.2725 7.04082C99.8814 6.7791 100.552 6.64824 101.283 6.64824C102.021 6.64824 102.691 6.7791 103.294 7.04082C103.903 7.30253 104.427 7.68176 104.865 8.17849C105.308 8.67522 105.65 9.2761 105.89 9.98114C106.136 10.6808 106.259 11.4767 106.259 12.3687ZM103.831 12.9215V12.3526C103.831 11.7331 103.775 11.1883 103.663 10.7182C103.551 10.2482 103.385 9.85295 103.166 9.53248C102.947 9.21201 102.68 8.97166 102.365 8.81142C102.05 8.64584 101.689 8.56306 101.283 8.56306C100.877 8.56306 100.517 8.64584 100.202 8.81142C99.892 8.97166 99.6276 9.21201 99.4087 9.53248C99.195 9.85295 99.0321 10.2482 98.9199 10.7182C98.8078 11.1883 98.7517 11.7331 98.7517 12.3526V12.9215C98.7517 13.5357 98.8078 14.0805 98.9199 14.5559C99.0321 15.0259 99.1977 15.4238 99.4167 15.7496C99.6357 16.0701 99.9027 16.3131 100.218 16.4787C100.533 16.6443 100.894 16.7271 101.299 16.7271C101.705 16.7271 102.066 16.6443 102.381 16.4787C102.696 16.3131 102.961 16.0701 103.174 15.7496C103.388 15.4238 103.551 15.0259 103.663 14.5559C103.775 14.0805 103.831 13.5357 103.831 12.9215ZM119.212 12.3687V12.9215C119.212 13.8081 119.092 14.6039 118.852 15.309C118.611 16.014 118.272 16.6149 117.834 17.1116C117.396 17.603 116.873 17.9796 116.264 18.2413C115.66 18.503 114.99 18.6339 114.253 18.6339C113.521 18.6339 112.851 18.503 112.242 18.2413C111.638 17.9796 111.115 17.603 110.672 17.1116C110.228 16.6149 109.884 16.014 109.638 15.309C109.398 14.6039 109.278 13.8081 109.278 12.9215V12.3687C109.278 11.4767 109.398 10.6808 109.638 9.98114C109.878 9.2761 110.218 8.67522 110.656 8.17849C111.099 7.68176 111.622 7.30253 112.226 7.04082C112.835 6.7791 113.505 6.64824 114.237 6.64824C114.974 6.64824 115.644 6.7791 116.248 7.04082C116.857 7.30253 117.38 7.68176 117.818 8.17849C118.261 8.67522 118.603 9.2761 118.844 9.98114C119.089 10.6808 119.212 11.4767 119.212 12.3687ZM116.785 12.9215V12.3526C116.785 11.7331 116.729 11.1883 116.616 10.7182C116.504 10.2482 116.339 9.85295 116.12 9.53248C115.901 9.21201 115.634 8.97166 115.318 8.81142C115.003 8.64584 114.643 8.56306 114.237 8.56306C113.831 8.56306 113.47 8.64584 113.155 8.81142C112.845 8.97166 112.581 9.21201 112.362 9.53248C112.148 9.85295 111.986 10.2482 111.873 10.7182C111.761 11.1883 111.705 11.7331 111.705 12.3526V12.9215C111.705 13.5357 111.761 14.0805 111.873 14.5559C111.986 15.0259 112.151 15.4238 112.37 15.7496C112.589 16.0701 112.856 16.3131 113.171 16.4787C113.486 16.6443 113.847 16.7271 114.253 16.7271C114.659 16.7271 115.019 16.6443 115.334 16.4787C115.65 16.3131 115.914 16.0701 116.128 15.7496C116.341 15.4238 116.504 15.0259 116.616 14.5559C116.729 14.0805 116.785 13.5357 116.785 12.9215ZM123.681 6.80847H125.716L128.713 15.3731L131.709 6.80847H133.744L129.53 18.4736H127.895L123.681 6.80847ZM122.584 6.80847H124.611L124.979 15.1568V18.4736H122.584V6.80847ZM132.815 6.80847H134.85V18.4736H132.446V15.1568L132.815 6.80847Z" fill="#7786A5"/>
<path d="M14.2109 1.83008L2.12205 1.83009C2.05659 1.83009 2.00353 1.88315 2.00353 1.9486L2.00353 23.9338" stroke="#7786A5" stroke-width="2.37037" stroke-linecap="round"/>
<path d="M17.1094 23.9336L29.1983 23.9336C29.2637 23.9336 29.3168 23.8805 29.3168 23.8151L29.3168 1.82989" stroke="#7786A5" stroke-width="2.37037" stroke-linecap="round"/>
<line x1="9.52112" y1="16.9996" x2="9.52112" y2="23.8145" stroke="#E1EDFD" stroke-width="2.37037" stroke-linecap="round"/>
<line x1="22.1461" y1="2.18519" x2="22.1461" y2="9" stroke="#E1EDFD" stroke-width="2.37037" stroke-linecap="round"/>
<line x1="15.8649" y1="8.82288" x2="15.8649" y2="15.6377" stroke="#E1EDFD" stroke-width="2.37037" stroke-linecap="round"/>
</svg>
