<svg width="40" height="40" viewBox="0 0 40 40" fill="none" xmlns="http://www.w3.org/2000/svg">
<path opacity="0.4" d="M29.3241 18.2184C31.9947 18.2184 34.161 16.0536 34.161 13.383C34.161 10.7125 31.9947 8.54761 29.3241 8.54761" stroke="#2A344A" stroke-width="2.67858" stroke-linecap="round" stroke-linejoin="round"/>
<path d="M31.5469 23.4736C32.3444 23.5286 33.1373 23.6417 33.918 23.8174C35.0027 24.0297 36.3074 24.4743 36.7719 25.4475C37.0683 26.0709 37.0683 26.7966 36.7719 27.4214C36.309 28.3946 35.0027 28.8377 33.918 29.0607" stroke="#A1A9B7" stroke-width="2.67858" stroke-linecap="round" stroke-linejoin="round"/>
<path opacity="0.4" d="M10.4854 18.2187C7.81483 18.2187 5.64844 16.0538 5.64844 13.3833C5.64844 10.7127 7.81483 8.54785 10.4854 8.54785" stroke="#2A344A" stroke-width="2.67858" stroke-linecap="round" stroke-linejoin="round"/>
<path d="M8.25941 23.4738C7.46191 23.5288 6.66899 23.6418 5.8883 23.8175C4.80358 24.0299 3.49885 24.4745 3.03594 25.4477C2.73802 26.071 2.73802 26.7967 3.03594 27.4216C3.49733 28.3948 4.80358 28.8378 5.8883 29.0609" stroke="#A1A9B7" stroke-width="2.67858" stroke-linecap="round" stroke-linejoin="round"/>
<path fill-rule="evenodd" clip-rule="evenodd" d="M19.8977 24.5146C25.3091 24.5146 29.9322 25.3335 29.9322 28.6106C29.9322 31.8862 25.3397 32.7356 19.8977 32.7356C14.4848 32.7356 9.86328 31.9167 9.86328 28.6397C9.86328 25.3626 14.4558 24.5146 19.8977 24.5146Z" stroke="#A1A9B7" stroke-width="2.67858" stroke-linecap="round" stroke-linejoin="round"/>
<path opacity="0.4" fill-rule="evenodd" clip-rule="evenodd" d="M19.8953 19.8399C16.3264 19.8399 13.4648 16.9784 13.4648 13.408C13.4648 9.83907 16.3264 6.97754 19.8953 6.97754C23.4642 6.97754 26.3257 9.83907 26.3257 13.408C26.3257 16.9784 23.4642 19.8399 19.8953 19.8399Z" stroke="#2A344A" stroke-width="2.67858" stroke-linecap="round" stroke-linejoin="round"/>
</svg>
