<svg width="15" height="15" viewBox="0 0 15 15" fill="none" xmlns="http://www.w3.org/2000/svg">
<path d="M12.7704 8.20838C12.6146 8.20838 12.4517 8.1588 12.2958 8.12338C11.9802 8.05384 11.6701 7.96152 11.3679 7.84713C11.0393 7.72759 10.6781 7.73379 10.3538 7.86456C10.0295 7.99533 9.76501 8.24141 9.61124 8.55546L9.45541 8.87421C8.76549 8.49042 8.13152 8.01375 7.57124 7.45755C7.01503 6.89727 6.53836 6.2633 6.15457 5.57338L6.45207 5.37505C6.76612 5.22128 7.01221 4.9568 7.14298 4.6325C7.27374 4.30819 7.27995 3.94699 7.16041 3.61838C7.04794 3.31551 6.95565 3.00553 6.88416 2.69047C6.84874 2.53463 6.82041 2.37172 6.79916 2.2088C6.71314 1.70986 6.45181 1.25803 6.06222 0.934677C5.67264 0.611321 5.1804 0.437689 4.67416 0.445049H2.54916C2.24389 0.442183 1.94158 0.505125 1.66283 0.629591C1.38407 0.754058 1.1354 0.937125 0.933754 1.16633C0.732105 1.39554 0.582211 1.6655 0.494274 1.95785C0.406336 2.25019 0.382422 2.55805 0.424157 2.86047C0.801513 5.82794 2.15676 8.58513 4.27583 10.6965C6.39489 12.8079 9.15699 14.1531 12.1258 14.5196H12.395C12.9173 14.5204 13.4216 14.3288 13.8117 13.9813C14.0357 13.7809 14.2148 13.5352 14.3369 13.2604C14.459 12.9857 14.5214 12.6882 14.52 12.3875V10.2625C14.5113 9.77053 14.3321 9.29677 14.0131 8.92214C13.694 8.54752 13.2548 8.29524 12.7704 8.20838ZM13.1246 12.4584C13.1244 12.559 13.1029 12.6583 13.0614 12.7499C13.0199 12.8415 12.9593 12.9233 12.8837 12.9896C12.8048 13.0583 12.7123 13.1096 12.6122 13.1401C12.5121 13.1707 12.4067 13.1797 12.3029 13.1667C9.65013 12.8266 7.18607 11.613 5.29941 9.71734C3.41275 7.8217 2.21086 5.35191 1.88332 2.69755C1.87205 2.59379 1.88193 2.48882 1.91237 2.38899C1.9428 2.28916 1.99316 2.19654 2.06041 2.11672C2.12679 2.04116 2.20849 1.9806 2.30009 1.93908C2.39169 1.89755 2.49108 1.87601 2.59166 1.87588H4.71666C4.88138 1.87222 5.04222 1.92609 5.17151 2.02822C5.30079 2.13036 5.39043 2.27437 5.42499 2.43547C5.45332 2.62908 5.48874 2.82033 5.53124 3.00922C5.61307 3.38261 5.72197 3.74955 5.85707 4.10713L4.86541 4.56755C4.78062 4.60645 4.70435 4.66172 4.64098 4.73018C4.57761 4.79864 4.52838 4.87894 4.49613 4.96648C4.46388 5.05401 4.44924 5.14706 4.45305 5.24027C4.45686 5.33348 4.47904 5.42502 4.51832 5.50963C5.53776 7.69325 7.29304 9.44853 9.47666 10.468C9.64911 10.5388 9.84254 10.5388 10.015 10.468C10.1033 10.4364 10.1845 10.3875 10.2538 10.3243C10.3231 10.2611 10.3792 10.1847 10.4187 10.0996L10.8579 9.10797C11.2241 9.23892 11.5978 9.34773 11.9771 9.4338C12.166 9.4763 12.3572 9.51171 12.5508 9.54005C12.7119 9.57461 12.8559 9.66424 12.9581 9.79353C13.0602 9.92281 13.1141 10.0837 13.1104 10.2484L13.1246 12.4584Z" fill="#7786A5"/>
</svg>
