<svg width="220" height="270" viewBox="0 0 220 270" fill="none" xmlns="http://www.w3.org/2000/svg">
<g filter="url(#filter0_d_4_21)">
<path d="M15 20C15 14.4771 19.4772 10 25 10H185C190.523 10 195 14.4772 195 20V230C195 235.523 190.523 240 185 240H25C19.4772 240 15 235.523 15 230V20Z" fill="white"/>
</g>
<path d="M38.3408 187.003V188H31.3457V187.003H38.3408ZM31.5425 187.003V190.272H30.3301L30.3237 187.003H31.5425ZM39.4072 187.003L39.3945 190.266H38.1821V187.003H39.4072ZM37.1411 178.758V179.761H33.0913V178.758H37.1411ZM38.1948 178.758V188H36.9761V178.758H38.1948ZM32.6724 178.758H33.8975L33.707 182.478C33.6816 183.036 33.6287 183.552 33.5483 184.026C33.4679 184.496 33.3685 184.926 33.25 185.315C33.1315 185.704 32.9961 186.053 32.8438 186.362C32.6914 186.667 32.5285 186.931 32.355 187.156C32.1815 187.376 31.9995 187.558 31.8091 187.702C31.6229 187.841 31.4346 187.941 31.2441 188H30.6855V187.003H31.0791C31.1891 186.885 31.314 186.714 31.4536 186.489C31.5975 186.265 31.7393 185.975 31.8789 185.62C32.0228 185.26 32.1476 184.822 32.2534 184.306C32.3634 183.789 32.4375 183.18 32.4756 182.478L32.6724 178.758ZM40.3594 184.642V184.496C40.3594 184.001 40.4313 183.542 40.5752 183.119C40.7191 182.691 40.9264 182.321 41.1973 182.008C41.4681 181.69 41.7961 181.445 42.1812 181.271C42.5662 181.094 42.9979 181.005 43.4761 181.005C43.9585 181.005 44.3923 181.094 44.7773 181.271C45.1667 181.445 45.4967 181.69 45.7676 182.008C46.0426 182.321 46.2521 182.691 46.396 183.119C46.5399 183.542 46.6118 184.001 46.6118 184.496V184.642C46.6118 185.137 46.5399 185.596 46.396 186.02C46.2521 186.443 46.0426 186.813 45.7676 187.13C45.4967 187.444 45.1688 187.689 44.7837 187.867C44.4028 188.04 43.9712 188.127 43.4888 188.127C43.0063 188.127 42.5726 188.04 42.1875 187.867C41.8024 187.689 41.4723 187.444 41.1973 187.13C40.9264 186.813 40.7191 186.443 40.5752 186.02C40.4313 185.596 40.3594 185.137 40.3594 184.642ZM41.5337 184.496V184.642C41.5337 184.985 41.5739 185.309 41.6543 185.613C41.7347 185.914 41.8553 186.18 42.0161 186.413C42.1812 186.646 42.3864 186.83 42.6318 186.965C42.8773 187.097 43.1629 187.162 43.4888 187.162C43.8104 187.162 44.0918 187.097 44.333 186.965C44.5785 186.83 44.7816 186.646 44.9424 186.413C45.1032 186.18 45.2238 185.914 45.3042 185.613C45.3888 185.309 45.4312 184.985 45.4312 184.642V184.496C45.4312 184.158 45.3888 183.838 45.3042 183.538C45.2238 183.233 45.1011 182.964 44.936 182.731C44.7752 182.494 44.5721 182.308 44.3267 182.173C44.0854 182.037 43.8019 181.97 43.4761 181.97C43.1545 181.97 42.8709 182.037 42.6255 182.173C42.3843 182.308 42.1812 182.494 42.0161 182.731C41.8553 182.964 41.7347 183.233 41.6543 183.538C41.5739 183.838 41.5337 184.158 41.5337 184.496ZM48.7383 181.132L50.2427 183.633L51.7661 181.132H53.1436L50.8965 184.521L53.2134 188H51.855L50.2681 185.423L48.6812 188H47.3164L49.627 184.521L47.3862 181.132H48.7383ZM53.9561 184.642V184.496C53.9561 184.001 54.028 183.542 54.1719 183.119C54.3158 182.691 54.5231 182.321 54.7939 182.008C55.0648 181.69 55.3927 181.445 55.7778 181.271C56.1629 181.094 56.5946 181.005 57.0728 181.005C57.5552 181.005 57.9889 181.094 58.374 181.271C58.7633 181.445 59.0934 181.69 59.3643 182.008C59.6393 182.321 59.8488 182.691 59.9927 183.119C60.1366 183.542 60.2085 184.001 60.2085 184.496V184.642C60.2085 185.137 60.1366 185.596 59.9927 186.02C59.8488 186.443 59.6393 186.813 59.3643 187.13C59.0934 187.444 58.7655 187.689 58.3804 187.867C57.9995 188.04 57.5679 188.127 57.0854 188.127C56.603 188.127 56.1693 188.04 55.7842 187.867C55.3991 187.689 55.069 187.444 54.7939 187.13C54.5231 186.813 54.3158 186.443 54.1719 186.02C54.028 185.596 53.9561 185.137 53.9561 184.642ZM55.1304 184.496V184.642C55.1304 184.985 55.1706 185.309 55.251 185.613C55.3314 185.914 55.452 186.18 55.6128 186.413C55.7778 186.646 55.9831 186.83 56.2285 186.965C56.474 187.097 56.7596 187.162 57.0854 187.162C57.4071 187.162 57.6885 187.097 57.9297 186.965C58.1751 186.83 58.3783 186.646 58.5391 186.413C58.6999 186.18 58.8205 185.914 58.9009 185.613C58.9855 185.309 59.0278 184.985 59.0278 184.642V184.496C59.0278 184.158 58.9855 183.838 58.9009 183.538C58.8205 183.233 58.6978 182.964 58.5327 182.731C58.3719 182.494 58.1688 182.308 57.9233 182.173C57.6821 182.037 57.3986 181.97 57.0728 181.97C56.7511 181.97 56.4676 182.037 56.2222 182.173C55.981 182.308 55.7778 182.494 55.6128 182.731C55.452 182.964 55.3314 183.233 55.251 183.538C55.1706 183.838 55.1304 184.158 55.1304 184.496ZM62.4619 181.132H63.6362L63.5347 183.703C63.5093 184.354 63.4352 184.917 63.3125 185.391C63.1898 185.865 63.0332 186.269 62.8428 186.604C62.6523 186.934 62.4386 187.211 62.2017 187.435C61.9689 187.659 61.7277 187.848 61.478 188H60.894L60.9258 187.042L61.167 187.035C61.3066 186.87 61.4421 186.701 61.5732 186.527C61.7044 186.35 61.825 186.14 61.9351 185.899C62.0451 185.653 62.1361 185.355 62.208 185.004C62.2842 184.648 62.3328 184.215 62.354 183.703L62.4619 181.132ZM62.7539 181.132H66.8862V188H65.7119V182.217H62.7539V181.132ZM60.6274 187.035H67.7686V190.025H66.5942V188H61.8018V190.025H60.6211L60.6274 187.035ZM75.519 184.979H73.2656L73.2529 184.039H75.0938C75.4577 184.039 75.7603 184.003 76.0015 183.931C76.2469 183.859 76.431 183.751 76.5537 183.607C76.6764 183.464 76.7378 183.286 76.7378 183.074C76.7378 182.909 76.7018 182.765 76.6299 182.643C76.5622 182.516 76.4585 182.412 76.3188 182.332C76.1792 182.247 76.0057 182.186 75.7983 182.147C75.5952 182.105 75.3561 182.084 75.0811 182.084H73.5767V188H72.4023V181.132H75.0811C75.5169 181.132 75.9084 181.17 76.2554 181.246C76.6066 181.322 76.9049 181.439 77.1504 181.595C77.4001 181.748 77.5905 181.942 77.7217 182.179C77.8529 182.416 77.9185 182.695 77.9185 183.017C77.9185 183.224 77.8761 183.421 77.7915 183.607C77.7069 183.794 77.582 183.959 77.417 184.103C77.252 184.246 77.0488 184.365 76.8076 184.458C76.5664 184.547 76.2892 184.604 75.9761 184.629L75.519 184.979ZM75.519 188H72.8403L73.4243 187.048H75.519C75.8449 187.048 76.1157 187.008 76.3315 186.927C76.5474 186.843 76.7082 186.724 76.814 186.572C76.924 186.415 76.979 186.229 76.979 186.013C76.979 185.797 76.924 185.613 76.814 185.461C76.7082 185.304 76.5474 185.186 76.3315 185.105C76.1157 185.021 75.8449 184.979 75.519 184.979H73.7354L73.748 184.039H75.9761L76.4014 184.395C76.778 184.424 77.0975 184.517 77.3599 184.674C77.6222 184.83 77.8211 185.029 77.9565 185.271C78.092 185.507 78.1597 185.766 78.1597 186.045C78.1597 186.367 78.0983 186.65 77.9756 186.896C77.8571 187.141 77.6836 187.346 77.4551 187.511C77.2266 187.672 76.9494 187.795 76.6235 187.879C76.2977 187.96 75.9295 188 75.519 188ZM87.3955 181.132V182.103H84.2217V188H83.0474V181.132H87.3955ZM87.9795 184.642V184.496C87.9795 184.001 88.0514 183.542 88.1953 183.119C88.3392 182.691 88.5465 182.321 88.8174 182.008C89.0882 181.69 89.4162 181.445 89.8013 181.271C90.1864 181.094 90.618 181.005 91.0962 181.005C91.5786 181.005 92.0124 181.094 92.3975 181.271C92.7868 181.445 93.1169 181.69 93.3877 182.008C93.6628 182.321 93.8722 182.691 94.0161 183.119C94.16 183.542 94.2319 184.001 94.2319 184.496V184.642C94.2319 185.137 94.16 185.596 94.0161 186.02C93.8722 186.443 93.6628 186.813 93.3877 187.13C93.1169 187.444 92.7889 187.689 92.4038 187.867C92.0229 188.04 91.5913 188.127 91.1089 188.127C90.6265 188.127 90.1927 188.04 89.8076 187.867C89.4225 187.689 89.0924 187.444 88.8174 187.13C88.5465 186.813 88.3392 186.443 88.1953 186.02C88.0514 185.596 87.9795 185.137 87.9795 184.642ZM89.1538 184.496V184.642C89.1538 184.985 89.194 185.309 89.2744 185.613C89.3548 185.914 89.4754 186.18 89.6362 186.413C89.8013 186.646 90.0065 186.83 90.252 186.965C90.4974 187.097 90.783 187.162 91.1089 187.162C91.4305 187.162 91.7119 187.097 91.9531 186.965C92.1986 186.83 92.4017 186.646 92.5625 186.413C92.7233 186.18 92.8439 185.914 92.9243 185.613C93.009 185.309 93.0513 184.985 93.0513 184.642V184.496C93.0513 184.158 93.009 183.838 92.9243 183.538C92.8439 183.233 92.7212 182.964 92.5562 182.731C92.3953 182.494 92.1922 182.308 91.9468 182.173C91.7056 182.037 91.422 181.97 91.0962 181.97C90.7746 181.97 90.491 182.037 90.2456 182.173C90.0044 182.308 89.8013 182.494 89.6362 182.731C89.4754 182.964 89.3548 183.233 89.2744 183.538C89.194 183.838 89.1538 184.158 89.1538 184.496ZM96.4854 181.132H97.6597L97.5581 183.703C97.5327 184.354 97.4587 184.917 97.3359 185.391C97.2132 185.865 97.0566 186.269 96.8662 186.604C96.6758 186.934 96.4621 187.211 96.2251 187.435C95.9924 187.659 95.7511 187.848 95.5015 188H94.9175L94.9492 187.042L95.1904 187.035C95.3301 186.87 95.4655 186.701 95.5967 186.527C95.7279 186.35 95.8485 186.14 95.9585 185.899C96.0685 185.653 96.1595 185.355 96.2314 185.004C96.3076 184.648 96.3563 184.215 96.3774 183.703L96.4854 181.132ZM96.7773 181.132H100.91V188H99.7354V182.217H96.7773V181.132ZM94.6509 187.035H101.792V190.025H100.618V188H95.8252V190.025H94.6445L94.6509 187.035ZM103.042 187.378C103.042 187.179 103.104 187.012 103.227 186.876C103.354 186.737 103.535 186.667 103.772 186.667C104.009 186.667 104.189 186.737 104.312 186.876C104.439 187.012 104.502 187.179 104.502 187.378C104.502 187.573 104.439 187.738 104.312 187.873C104.189 188.008 104.009 188.076 103.772 188.076C103.535 188.076 103.354 188.008 103.227 187.873C103.104 187.738 103.042 187.573 103.042 187.378ZM103.049 181.773C103.049 181.574 103.11 181.407 103.233 181.271C103.36 181.132 103.542 181.062 103.779 181.062C104.016 181.062 104.196 181.132 104.318 181.271C104.445 181.407 104.509 181.574 104.509 181.773C104.509 181.968 104.445 182.133 104.318 182.268C104.196 182.403 104.016 182.471 103.779 182.471C103.542 182.471 103.36 182.403 103.233 182.268C103.11 182.133 103.049 181.968 103.049 181.773Z" fill="#7786A5"/>
<path d="M117.046 178.013V188H115.398V179.968L112.958 180.795V179.435L116.848 178.013H117.046ZM127.115 178.047V178.949L123.137 188H121.4L125.372 179.359H120.218V178.047H127.115ZM131.88 180.487V179.961C131.88 179.583 131.962 179.239 132.126 178.929C132.29 178.619 132.529 178.37 132.844 178.184C133.158 177.997 133.536 177.903 133.979 177.903C134.434 177.903 134.817 177.997 135.127 178.184C135.441 178.37 135.681 178.619 135.845 178.929C136.009 179.239 136.091 179.583 136.091 179.961V180.487C136.091 180.856 136.009 181.196 135.845 181.506C135.685 181.816 135.448 182.064 135.134 182.251C134.824 182.438 134.443 182.531 133.992 182.531C133.546 182.531 133.163 182.438 132.844 182.251C132.529 182.064 132.29 181.816 132.126 181.506C131.962 181.196 131.88 180.856 131.88 180.487ZM133.021 179.961V180.487C133.021 180.67 133.056 180.843 133.124 181.007C133.197 181.171 133.306 181.303 133.452 181.403C133.598 181.504 133.778 181.554 133.992 181.554C134.211 181.554 134.389 181.504 134.525 181.403C134.667 181.303 134.771 181.171 134.84 181.007C134.908 180.843 134.942 180.67 134.942 180.487V179.961C134.942 179.774 134.906 179.599 134.833 179.435C134.765 179.266 134.66 179.132 134.519 179.031C134.377 178.931 134.197 178.881 133.979 178.881C133.769 178.881 133.591 178.931 133.445 179.031C133.304 179.132 133.197 179.266 133.124 179.435C133.056 179.599 133.021 179.774 133.021 179.961ZM136.679 186.093V185.56C136.679 185.186 136.761 184.844 136.925 184.534C137.093 184.224 137.335 183.976 137.649 183.789C137.964 183.602 138.342 183.509 138.784 183.509C139.24 183.509 139.623 183.602 139.933 183.789C140.247 183.976 140.484 184.224 140.644 184.534C140.808 184.844 140.89 185.186 140.89 185.56V186.093C140.89 186.466 140.808 186.808 140.644 187.118C140.484 187.428 140.249 187.676 139.939 187.863C139.63 188.05 139.251 188.144 138.805 188.144C138.354 188.144 137.968 188.05 137.649 187.863C137.335 187.676 137.093 187.428 136.925 187.118C136.761 186.808 136.679 186.466 136.679 186.093ZM137.827 185.56V186.093C137.827 186.275 137.864 186.448 137.937 186.612C138.014 186.776 138.126 186.911 138.271 187.016C138.417 187.116 138.593 187.166 138.798 187.166C139.03 187.166 139.217 187.116 139.358 187.016C139.5 186.911 139.6 186.779 139.659 186.619C139.723 186.455 139.755 186.28 139.755 186.093V185.56C139.755 185.373 139.718 185.197 139.646 185.033C139.577 184.869 139.47 184.737 139.324 184.637C139.183 184.536 139.003 184.486 138.784 184.486C138.57 184.486 138.392 184.536 138.251 184.637C138.11 184.737 138.003 184.869 137.93 185.033C137.861 185.197 137.827 185.373 137.827 185.56ZM139.194 179.469L134.334 187.248L133.493 186.763L138.354 178.983L139.194 179.469Z" fill="#2551AF"/>
<path d="M39.0898 213.972L38.9756 217.228H37.8774V215H36.9697V213.972H39.0898ZM31.1108 215V205.758H32.3423V214.003H36.8936V205.758H38.1187V215H31.1108ZM43.2539 215.127C42.7757 215.127 42.342 215.047 41.9526 214.886C41.5675 214.721 41.2354 214.49 40.9561 214.194C40.681 213.898 40.4694 213.546 40.3213 213.14C40.1732 212.734 40.0991 212.29 40.0991 211.807V211.541C40.0991 210.982 40.1816 210.485 40.3467 210.049C40.5117 209.609 40.736 209.236 41.0195 208.932C41.3031 208.627 41.6247 208.396 41.9844 208.24C42.3441 208.083 42.7165 208.005 43.1016 208.005C43.5924 208.005 44.0156 208.09 44.3711 208.259C44.7308 208.428 45.0249 208.665 45.2534 208.97C45.4819 209.27 45.6512 209.626 45.7612 210.036C45.8713 210.442 45.9263 210.887 45.9263 211.369V211.896H40.7974V210.938H44.752V210.849C44.735 210.544 44.6715 210.248 44.5615 209.96C44.4557 209.672 44.2865 209.435 44.0537 209.249C43.821 209.063 43.5036 208.97 43.1016 208.97C42.835 208.97 42.5895 209.027 42.3652 209.141C42.141 209.251 41.9484 209.416 41.7876 209.636C41.6268 209.856 41.502 210.125 41.4131 210.442C41.3242 210.76 41.2798 211.126 41.2798 211.541V211.807C41.2798 212.133 41.3242 212.44 41.4131 212.728C41.5062 213.011 41.6395 213.261 41.813 213.477C41.9907 213.692 42.2044 213.862 42.4541 213.984C42.708 214.107 42.9958 214.168 43.3174 214.168C43.7321 214.168 44.0833 214.084 44.3711 213.915C44.6589 213.745 44.9106 213.519 45.1265 213.235L45.8374 213.8C45.6893 214.025 45.501 214.238 45.2725 214.441C45.0439 214.645 44.7625 214.81 44.4282 214.937C44.0981 215.063 43.7067 215.127 43.2539 215.127ZM51.9565 211.109V212.061H48.3257V211.109H51.9565ZM48.5732 208.132V215H47.3989V208.132H48.5732ZM52.9087 208.132V215H51.728V208.132H52.9087ZM58.8501 213.826V210.29C58.8501 210.019 58.7951 209.784 58.6851 209.585C58.5793 209.382 58.4185 209.226 58.2026 209.116C57.9868 209.006 57.7202 208.951 57.4028 208.951C57.1066 208.951 56.8464 209.001 56.6221 209.103C56.402 209.205 56.2285 209.338 56.1016 209.503C55.9788 209.668 55.9175 209.846 55.9175 210.036H54.7432C54.7432 209.791 54.8066 209.547 54.9336 209.306C55.0605 209.065 55.2425 208.847 55.4795 208.652C55.7207 208.453 56.0085 208.297 56.3428 208.183C56.6813 208.064 57.0579 208.005 57.4727 208.005C57.972 208.005 58.4121 208.09 58.793 208.259C59.1781 208.428 59.4785 208.684 59.6943 209.027C59.9144 209.365 60.0244 209.791 60.0244 210.303V213.502C60.0244 213.73 60.0435 213.974 60.0815 214.232C60.1239 214.49 60.1852 214.712 60.2656 214.898V215H59.0405C58.9813 214.865 58.9347 214.685 58.9009 214.46C58.867 214.232 58.8501 214.02 58.8501 213.826ZM59.0532 210.836L59.0659 211.661H57.8789C57.5446 211.661 57.2463 211.689 56.9839 211.744C56.7215 211.794 56.5015 211.873 56.3237 211.979C56.146 212.084 56.0106 212.218 55.9175 212.378C55.8244 212.535 55.7778 212.719 55.7778 212.931C55.7778 213.146 55.8265 213.343 55.9238 213.521C56.0212 213.699 56.1672 213.84 56.3618 213.946C56.5607 214.048 56.804 214.099 57.0918 214.099C57.4515 214.099 57.7689 214.022 58.0439 213.87C58.319 213.718 58.5369 213.532 58.6978 213.312C58.8628 213.091 58.9517 212.878 58.9644 212.67L59.4658 213.235C59.4362 213.413 59.3558 213.61 59.2246 213.826C59.0934 214.042 58.9178 214.249 58.6978 214.448C58.4819 214.642 58.2238 214.805 57.9233 214.937C57.6271 215.063 57.2928 215.127 56.9204 215.127C56.4549 215.127 56.0465 215.036 55.6953 214.854C55.3483 214.672 55.0775 214.429 54.8828 214.124C54.6924 213.815 54.5972 213.47 54.5972 213.089C54.5972 212.721 54.6691 212.397 54.813 212.118C54.9569 211.835 55.1642 211.6 55.4351 211.414C55.7059 211.223 56.0317 211.079 56.4126 210.982C56.7935 210.885 57.2188 210.836 57.6885 210.836H59.0532ZM64.7852 211.642V211.496C64.7852 211.001 64.8571 210.542 65.001 210.119C65.1449 209.691 65.3522 209.321 65.623 209.008C65.8939 208.69 66.2218 208.445 66.6069 208.271C66.992 208.094 67.4237 208.005 67.9019 208.005C68.3843 208.005 68.818 208.094 69.2031 208.271C69.5924 208.445 69.9225 208.69 70.1934 209.008C70.4684 209.321 70.6779 209.691 70.8218 210.119C70.9657 210.542 71.0376 211.001 71.0376 211.496V211.642C71.0376 212.137 70.9657 212.596 70.8218 213.02C70.6779 213.443 70.4684 213.813 70.1934 214.13C69.9225 214.444 69.5946 214.689 69.2095 214.867C68.8286 215.04 68.397 215.127 67.9146 215.127C67.4321 215.127 66.9984 215.04 66.6133 214.867C66.2282 214.689 65.8981 214.444 65.623 214.13C65.3522 213.813 65.1449 213.443 65.001 213.02C64.8571 212.596 64.7852 212.137 64.7852 211.642ZM65.9595 211.496V211.642C65.9595 211.985 65.9997 212.309 66.0801 212.613C66.1605 212.914 66.2811 213.18 66.4419 213.413C66.6069 213.646 66.8122 213.83 67.0576 213.965C67.3031 214.097 67.5887 214.162 67.9146 214.162C68.2362 214.162 68.5176 214.097 68.7588 213.965C69.0042 213.83 69.2074 213.646 69.3682 213.413C69.529 213.18 69.6496 212.914 69.73 212.613C69.8146 212.309 69.8569 211.985 69.8569 211.642V211.496C69.8569 211.158 69.8146 210.838 69.73 210.538C69.6496 210.233 69.5269 209.964 69.3618 209.731C69.201 209.494 68.9979 209.308 68.7524 209.173C68.5112 209.037 68.2277 208.97 67.9019 208.97C67.5802 208.97 67.2967 209.037 67.0513 209.173C66.8101 209.308 66.6069 209.494 66.4419 209.731C66.2811 209.964 66.1605 210.233 66.0801 210.538C65.9997 210.838 65.9595 211.158 65.9595 211.496ZM75.1699 208.132V215H73.9893V208.132H75.1699ZM77.4741 208.132V209.084H71.7295V208.132H77.4741ZM78.5786 214.378C78.5786 214.179 78.64 214.012 78.7627 213.876C78.8896 213.737 79.0716 213.667 79.3086 213.667C79.5456 213.667 79.7254 213.737 79.8481 213.876C79.9751 214.012 80.0386 214.179 80.0386 214.378C80.0386 214.573 79.9751 214.738 79.8481 214.873C79.7254 215.008 79.5456 215.076 79.3086 215.076C79.0716 215.076 78.8896 215.008 78.7627 214.873C78.64 214.738 78.5786 214.573 78.5786 214.378ZM78.585 208.773C78.585 208.574 78.6463 208.407 78.769 208.271C78.896 208.132 79.078 208.062 79.3149 208.062C79.5519 208.062 79.7318 208.132 79.8545 208.271C79.9814 208.407 80.0449 208.574 80.0449 208.773C80.0449 208.968 79.9814 209.133 79.8545 209.268C79.7318 209.403 79.5519 209.471 79.3149 209.471C79.078 209.471 78.896 209.403 78.769 209.268C78.6463 209.133 78.585 208.968 78.585 208.773Z" fill="#7786A5"/>
<path d="M94.7559 213.688V215H88.084V213.872L91.3242 210.338C91.6797 209.937 91.96 209.59 92.165 209.299C92.3701 209.007 92.5137 208.745 92.5957 208.513C92.6823 208.276 92.7256 208.046 92.7256 207.822C92.7256 207.508 92.6663 207.232 92.5479 206.995C92.4339 206.754 92.2653 206.564 92.042 206.428C91.8187 206.286 91.5475 206.216 91.2285 206.216C90.8594 206.216 90.5495 206.296 90.2988 206.455C90.0482 206.615 89.859 206.836 89.7314 207.118C89.6038 207.396 89.54 207.715 89.54 208.075H87.8926C87.8926 207.496 88.0247 206.968 88.2891 206.489C88.5534 206.006 88.9362 205.623 89.4375 205.341C89.9388 205.054 90.5426 204.91 91.249 204.91C91.9144 204.91 92.4795 205.022 92.9443 205.245C93.4092 205.468 93.7624 205.785 94.0039 206.195C94.25 206.605 94.373 207.091 94.373 207.651C94.373 207.961 94.3229 208.269 94.2227 208.574C94.1224 208.88 93.9788 209.185 93.792 209.49C93.6097 209.791 93.3932 210.094 93.1426 210.399C92.8919 210.7 92.6162 211.006 92.3154 211.315L90.1621 213.688H94.7559ZM97.7705 210.372L96.458 210.051L96.998 205.047H102.364V206.441H98.3652L98.0918 208.882C98.2467 208.791 98.4609 208.702 98.7344 208.615C99.0078 208.524 99.32 208.479 99.6709 208.479C100.14 208.479 100.56 208.556 100.929 208.711C101.302 208.861 101.619 209.082 101.879 209.374C102.139 209.661 102.337 210.012 102.474 210.427C102.61 210.837 102.679 211.299 102.679 211.814C102.679 212.275 102.61 212.705 102.474 213.106C102.341 213.507 102.141 213.861 101.872 214.166C101.603 214.471 101.264 214.711 100.854 214.884C100.448 215.052 99.9671 215.137 99.4111 215.137C98.9964 215.137 98.5977 215.077 98.2148 214.959C97.8366 214.836 97.4971 214.656 97.1963 214.419C96.8955 214.177 96.654 213.881 96.4717 213.53C96.2894 213.175 96.1846 212.767 96.1572 212.307H97.7705C97.8115 212.63 97.9004 212.906 98.0371 213.134C98.1784 213.357 98.3652 213.528 98.5977 213.646C98.8301 213.765 99.099 213.824 99.4043 213.824C99.6823 213.824 99.9215 213.776 100.122 213.681C100.323 213.58 100.489 213.439 100.621 213.257C100.758 213.07 100.858 212.851 100.922 212.601C100.99 212.35 101.024 212.072 101.024 211.767C101.024 211.475 100.986 211.208 100.908 210.967C100.835 210.725 100.724 210.516 100.573 210.338C100.427 210.16 100.243 210.023 100.02 209.928C99.7962 209.827 99.5387 209.777 99.2471 209.777C98.8551 209.777 98.5544 209.834 98.3447 209.948C98.1396 210.062 97.9482 210.203 97.7705 210.372ZM110.485 209.189V210.816C110.485 211.596 110.408 212.261 110.253 212.812C110.103 213.359 109.884 213.804 109.597 214.146C109.31 214.487 108.965 214.738 108.564 214.897C108.168 215.057 107.724 215.137 107.231 215.137C106.84 215.137 106.475 215.087 106.138 214.986C105.805 214.886 105.504 214.729 105.235 214.515C104.966 214.3 104.736 214.025 104.545 213.688C104.358 213.346 104.212 212.938 104.107 212.464C104.007 211.99 103.957 211.441 103.957 210.816V209.189C103.957 208.406 104.035 207.745 104.189 207.207C104.344 206.665 104.565 206.225 104.853 205.888C105.14 205.546 105.481 205.298 105.878 205.143C106.279 204.988 106.726 204.91 107.218 204.91C107.614 204.91 107.979 204.96 108.312 205.061C108.649 205.156 108.95 205.309 109.214 205.519C109.483 205.728 109.711 206.002 109.897 206.339C110.089 206.672 110.235 207.075 110.335 207.549C110.435 208.018 110.485 208.565 110.485 209.189ZM108.838 211.049V208.943C108.838 208.547 108.815 208.198 108.77 207.897C108.724 207.592 108.656 207.335 108.564 207.125C108.478 206.911 108.368 206.738 108.236 206.605C108.104 206.469 107.954 206.371 107.785 206.312C107.617 206.248 107.427 206.216 107.218 206.216C106.963 206.216 106.735 206.266 106.534 206.366C106.334 206.462 106.165 206.617 106.028 206.831C105.892 207.045 105.787 207.328 105.714 207.679C105.646 208.025 105.611 208.447 105.611 208.943V211.049C105.611 211.45 105.634 211.803 105.68 212.108C105.725 212.414 105.794 212.676 105.885 212.895C105.976 213.109 106.085 213.286 106.213 213.428C106.345 213.564 106.495 213.665 106.664 213.729C106.837 213.792 107.026 213.824 107.231 213.824C107.491 213.824 107.721 213.774 107.922 213.674C108.122 213.574 108.291 213.414 108.428 213.195C108.564 212.972 108.667 212.683 108.735 212.327C108.804 211.972 108.838 211.546 108.838 211.049ZM121.929 209.189V210.816C121.929 211.596 121.851 212.261 121.696 212.812C121.546 213.359 121.327 213.804 121.04 214.146C120.753 214.487 120.409 214.738 120.008 214.897C119.611 215.057 119.167 215.137 118.675 215.137C118.283 215.137 117.918 215.087 117.581 214.986C117.248 214.886 116.948 214.729 116.679 214.515C116.41 214.3 116.18 214.025 115.988 213.688C115.801 213.346 115.656 212.938 115.551 212.464C115.451 211.99 115.4 211.441 115.4 210.816V209.189C115.4 208.406 115.478 207.745 115.633 207.207C115.788 206.665 116.009 206.225 116.296 205.888C116.583 205.546 116.925 205.298 117.321 205.143C117.722 204.988 118.169 204.91 118.661 204.91C119.058 204.91 119.422 204.96 119.755 205.061C120.092 205.156 120.393 205.309 120.657 205.519C120.926 205.728 121.154 206.002 121.341 206.339C121.532 206.672 121.678 207.075 121.778 207.549C121.879 208.018 121.929 208.565 121.929 209.189ZM120.281 211.049V208.943C120.281 208.547 120.258 208.198 120.213 207.897C120.167 207.592 120.099 207.335 120.008 207.125C119.921 206.911 119.812 206.738 119.68 206.605C119.548 206.469 119.397 206.371 119.229 206.312C119.06 206.248 118.871 206.216 118.661 206.216C118.406 206.216 118.178 206.266 117.978 206.366C117.777 206.462 117.608 206.617 117.472 206.831C117.335 207.045 117.23 207.328 117.157 207.679C117.089 208.025 117.055 208.447 117.055 208.943V211.049C117.055 211.45 117.077 211.803 117.123 212.108C117.169 212.414 117.237 212.676 117.328 212.895C117.419 213.109 117.529 213.286 117.656 213.428C117.788 213.564 117.939 213.665 118.107 213.729C118.281 213.792 118.47 213.824 118.675 213.824C118.935 213.824 119.165 213.774 119.365 213.674C119.566 213.574 119.734 213.414 119.871 213.195C120.008 212.972 120.11 212.683 120.179 212.327C120.247 211.972 120.281 211.546 120.281 211.049ZM129.886 209.189V210.816C129.886 211.596 129.808 212.261 129.653 212.812C129.503 213.359 129.284 213.804 128.997 214.146C128.71 214.487 128.366 214.738 127.965 214.897C127.568 215.057 127.124 215.137 126.632 215.137C126.24 215.137 125.875 215.087 125.538 214.986C125.205 214.886 124.905 214.729 124.636 214.515C124.367 214.3 124.137 214.025 123.945 213.688C123.758 213.346 123.613 212.938 123.508 212.464C123.408 211.99 123.357 211.441 123.357 210.816V209.189C123.357 208.406 123.435 207.745 123.59 207.207C123.745 206.665 123.966 206.225 124.253 205.888C124.54 205.546 124.882 205.298 125.278 205.143C125.679 204.988 126.126 204.91 126.618 204.91C127.015 204.91 127.379 204.96 127.712 205.061C128.049 205.156 128.35 205.309 128.614 205.519C128.883 205.728 129.111 206.002 129.298 206.339C129.489 206.672 129.635 207.075 129.735 207.549C129.836 208.018 129.886 208.565 129.886 209.189ZM128.238 211.049V208.943C128.238 208.547 128.215 208.198 128.17 207.897C128.124 207.592 128.056 207.335 127.965 207.125C127.878 206.911 127.769 206.738 127.637 206.605C127.505 206.469 127.354 206.371 127.186 206.312C127.017 206.248 126.828 206.216 126.618 206.216C126.363 206.216 126.135 206.266 125.935 206.366C125.734 206.462 125.565 206.617 125.429 206.831C125.292 207.045 125.187 207.328 125.114 207.679C125.046 208.025 125.012 208.447 125.012 208.943V211.049C125.012 211.45 125.035 211.803 125.08 212.108C125.126 212.414 125.194 212.676 125.285 212.895C125.376 213.109 125.486 213.286 125.613 213.428C125.745 213.564 125.896 213.665 126.064 213.729C126.238 213.792 126.427 213.824 126.632 213.824C126.892 213.824 127.122 213.774 127.322 213.674C127.523 213.574 127.691 213.414 127.828 213.195C127.965 212.972 128.067 212.683 128.136 212.327C128.204 211.972 128.238 211.546 128.238 211.049ZM137.843 209.189V210.816C137.843 211.596 137.765 212.261 137.61 212.812C137.46 213.359 137.241 213.804 136.954 214.146C136.667 214.487 136.323 214.738 135.922 214.897C135.525 215.057 135.081 215.137 134.589 215.137C134.197 215.137 133.832 215.087 133.495 214.986C133.162 214.886 132.862 214.729 132.593 214.515C132.324 214.3 132.094 214.025 131.902 213.688C131.715 213.346 131.57 212.938 131.465 212.464C131.365 211.99 131.314 211.441 131.314 210.816V209.189C131.314 208.406 131.392 207.745 131.547 207.207C131.702 206.665 131.923 206.225 132.21 205.888C132.497 205.546 132.839 205.298 133.235 205.143C133.636 204.988 134.083 204.91 134.575 204.91C134.972 204.91 135.336 204.96 135.669 205.061C136.006 205.156 136.307 205.309 136.571 205.519C136.84 205.728 137.068 206.002 137.255 206.339C137.446 206.672 137.592 207.075 137.692 207.549C137.793 208.018 137.843 208.565 137.843 209.189ZM136.195 211.049V208.943C136.195 208.547 136.173 208.198 136.127 207.897C136.081 207.592 136.013 207.335 135.922 207.125C135.835 206.911 135.726 206.738 135.594 206.605C135.462 206.469 135.311 206.371 135.143 206.312C134.974 206.248 134.785 206.216 134.575 206.216C134.32 206.216 134.092 206.266 133.892 206.366C133.691 206.462 133.522 206.617 133.386 206.831C133.249 207.045 133.144 207.328 133.071 207.679C133.003 208.025 132.969 208.447 132.969 208.943V211.049C132.969 211.45 132.992 211.803 133.037 212.108C133.083 212.414 133.151 212.676 133.242 212.895C133.333 213.109 133.443 213.286 133.57 213.428C133.702 213.564 133.853 213.665 134.021 213.729C134.195 213.792 134.384 213.824 134.589 213.824C134.849 213.824 135.079 213.774 135.279 213.674C135.48 213.574 135.648 213.414 135.785 213.195C135.922 212.972 136.024 212.683 136.093 212.327C136.161 211.972 136.195 211.546 136.195 211.049ZM151.303 213.783C151.549 213.783 151.788 213.765 152.021 213.729C152.253 213.692 152.474 213.637 152.684 213.564L152.882 214.932C152.618 214.995 152.342 215.046 152.055 215.082C151.768 215.118 151.476 215.137 151.18 215.137C150.619 215.137 150.104 215.055 149.635 214.891C149.17 214.727 148.767 214.483 148.425 214.159C148.083 213.831 147.816 213.425 147.625 212.942C147.438 212.455 147.345 211.887 147.345 211.24V208.923C147.345 208.257 147.438 207.676 147.625 207.18C147.816 206.678 148.085 206.259 148.432 205.922C148.783 205.585 149.195 205.332 149.669 205.163C150.147 204.994 150.676 204.91 151.255 204.91C151.537 204.91 151.811 204.931 152.075 204.972C152.344 205.008 152.613 205.058 152.882 205.122L152.684 206.496C152.483 206.428 152.264 206.373 152.027 206.332C151.795 206.291 151.56 206.271 151.323 206.271C150.972 206.271 150.656 206.323 150.373 206.428C150.095 206.533 149.858 206.692 149.662 206.906C149.466 207.116 149.316 207.387 149.211 207.72C149.111 208.052 149.061 208.449 149.061 208.909V211.24C149.061 211.696 149.113 212.086 149.218 212.409C149.327 212.728 149.48 212.99 149.676 213.195C149.872 213.396 150.106 213.544 150.38 213.64C150.658 213.735 150.965 213.783 151.303 213.783ZM151.508 208.608V209.545H146.162V208.608H151.508ZM151.508 210.44V211.377H146.162V210.44H151.508Z" fill="#2551AF"/>
<rect x="30" y="29" width="63" height="15" rx="7.5" fill="#7786A5"/>
<path d="M43.0781 32.8906H44.3135V40H43.0781V34.9365L39.958 40H38.7227V32.8906H39.958V37.959L43.0781 32.8906ZM51.2178 37.6855C51.1462 38.444 50.8662 39.0365 50.3779 39.4629C49.8896 39.8861 49.2402 40.0977 48.4297 40.0977C47.8633 40.0977 47.3636 39.9642 46.9307 39.6973C46.501 39.4271 46.1689 39.0446 45.9346 38.5498C45.7002 38.055 45.5781 37.4805 45.5684 36.8262V36.1621C45.5684 35.4915 45.6872 34.9007 45.9248 34.3896C46.1624 33.8786 46.5026 33.4847 46.9453 33.208C47.3913 32.9313 47.9056 32.793 48.4883 32.793C49.2728 32.793 49.9043 33.0062 50.3828 33.4326C50.8613 33.859 51.1396 34.4613 51.2178 35.2393H49.9873C49.9287 34.7282 49.779 34.3604 49.5381 34.1357C49.3005 33.9079 48.9505 33.7939 48.4883 33.7939C47.9512 33.7939 47.5378 33.9909 47.248 34.3848C46.9616 34.7754 46.8151 35.3499 46.8086 36.1084V36.7383C46.8086 37.5065 46.9453 38.0924 47.2188 38.4961C47.4954 38.8997 47.8991 39.1016 48.4297 39.1016C48.9147 39.1016 49.2793 38.9925 49.5234 38.7744C49.7676 38.5563 49.9222 38.1934 49.9873 37.6855H51.2178ZM57.9512 40H56.7207V33.8867H53.5908V40H52.3604V32.8906H57.9512V40ZM63.4248 38.3447H60.6709L60.0947 40H58.8105L61.4961 32.8906H62.6045L65.2949 40H64.0059L63.4248 38.3447ZM61.0176 37.3486H63.0781L62.0479 34.3994L61.0176 37.3486ZM71.75 40H70.5195V36.8408H67.3408V40H66.1055V32.8906H67.3408V35.8496H70.5195V32.8906H71.75V40ZM77.5703 32.8906H78.8057V40H77.5703V34.9365L74.4502 40H73.2148V32.8906H74.4502V37.959L77.5703 32.8906ZM83.791 40V37.3438H82.4141L81.042 40H79.7188L81.3057 36.9775C80.4788 36.5869 80.0654 35.9473 80.0654 35.0586C80.0654 34.3783 80.2884 33.8493 80.7344 33.4717C81.1836 33.0908 81.8086 32.8971 82.6094 32.8906H85.0264V40H83.791ZM81.2959 35.1123C81.2959 35.5127 81.4082 35.8252 81.6328 36.0498C81.8574 36.2744 82.1943 36.3867 82.6436 36.3867H83.791V33.8867H82.6436C82.1878 33.8867 81.8493 33.9958 81.6279 34.2139C81.4066 34.432 81.2959 34.7314 81.2959 35.1123Z" fill="white"/>
<path d="M38.2393 65.7368V67H31.4282V65.7368H38.2393ZM31.8218 65.7368V69.2725H30.2983L30.2412 65.7368H31.8218ZM39.4707 65.7368L39.3755 69.2661H37.8774V65.7368H39.4707ZM37.1221 57.7578V59.0273H32.8564V57.7578H37.1221ZM38.3408 57.7578V67H36.7539V57.7578H38.3408ZM32.5391 57.7578H34.1323L33.9102 61.5029C33.8763 62.0954 33.8149 62.6286 33.7261 63.1025C33.6372 63.5765 33.5293 64.0018 33.4023 64.3784C33.2796 64.7508 33.14 65.0809 32.9834 65.3687C32.8268 65.6522 32.6597 65.8976 32.4819 66.105C32.3042 66.3123 32.1222 66.4901 31.936 66.6382C31.7541 66.7821 31.5742 66.9027 31.3965 67H30.5459V65.7368H30.9585C31.0728 65.631 31.1997 65.4787 31.3394 65.2798C31.479 65.0767 31.6144 64.8122 31.7456 64.4863C31.881 64.1562 31.9995 63.7479 32.1011 63.2612C32.2026 62.7746 32.2725 62.1885 32.3105 61.5029L32.5391 57.7578ZM40.2324 63.6421V63.4961C40.2324 63.001 40.3044 62.5418 40.4482 62.1187C40.5921 61.6912 40.7995 61.321 41.0703 61.0078C41.3454 60.6904 41.6797 60.445 42.0732 60.2715C42.471 60.0938 42.9196 60.0049 43.4189 60.0049C43.9225 60.0049 44.3711 60.0938 44.7646 60.2715C45.1624 60.445 45.4989 60.6904 45.7739 61.0078C46.049 61.321 46.2585 61.6912 46.4023 62.1187C46.5462 62.5418 46.6182 63.001 46.6182 63.4961V63.6421C46.6182 64.1372 46.5462 64.5964 46.4023 65.0195C46.2585 65.4427 46.049 65.813 45.7739 66.1304C45.4989 66.4435 45.1646 66.689 44.771 66.8667C44.3774 67.0402 43.931 67.127 43.4316 67.127C42.9281 67.127 42.4774 67.0402 42.0796 66.8667C41.686 66.689 41.3517 66.4435 41.0767 66.1304C40.8016 65.813 40.5921 65.4427 40.4482 65.0195C40.3044 64.5964 40.2324 64.1372 40.2324 63.6421ZM41.7622 63.4961V63.6421C41.7622 63.951 41.7939 64.243 41.8574 64.5181C41.9209 64.7931 42.0203 65.0343 42.1558 65.2417C42.2912 65.4491 42.4647 65.612 42.6763 65.7305C42.8879 65.849 43.1396 65.9082 43.4316 65.9082C43.7152 65.9082 43.9606 65.849 44.168 65.7305C44.3796 65.612 44.5531 65.4491 44.6885 65.2417C44.8239 65.0343 44.9233 64.7931 44.9868 64.5181C45.0545 64.243 45.0884 63.951 45.0884 63.6421V63.4961C45.0884 63.1914 45.0545 62.9036 44.9868 62.6328C44.9233 62.3577 44.8218 62.1144 44.6821 61.9028C44.5467 61.6912 44.3732 61.5262 44.1616 61.4077C43.9543 61.285 43.7067 61.2236 43.4189 61.2236C43.1312 61.2236 42.8815 61.285 42.6699 61.4077C42.4626 61.5262 42.2912 61.6912 42.1558 61.9028C42.0203 62.1144 41.9209 62.3577 41.8574 62.6328C41.7939 62.9036 41.7622 63.1914 41.7622 63.4961ZM48.9287 60.1318L50.2363 62.4106L51.5693 60.1318H53.2515L51.1694 63.5024L53.334 67H51.6519L50.2554 64.626L48.8589 67H47.1704L49.3286 63.5024L47.2529 60.1318H48.9287ZM53.8291 63.6421V63.4961C53.8291 63.001 53.901 62.5418 54.0449 62.1187C54.1888 61.6912 54.3962 61.321 54.667 61.0078C54.9421 60.6904 55.2764 60.445 55.6699 60.2715C56.0677 60.0938 56.5163 60.0049 57.0156 60.0049C57.5192 60.0049 57.9678 60.0938 58.3613 60.2715C58.7591 60.445 59.0955 60.6904 59.3706 61.0078C59.6457 61.321 59.8551 61.6912 59.999 62.1187C60.1429 62.5418 60.2148 63.001 60.2148 63.4961V63.6421C60.2148 64.1372 60.1429 64.5964 59.999 65.0195C59.8551 65.4427 59.6457 65.813 59.3706 66.1304C59.0955 66.4435 58.7612 66.689 58.3677 66.8667C57.9741 67.0402 57.5277 67.127 57.0283 67.127C56.5247 67.127 56.0741 67.0402 55.6763 66.8667C55.2827 66.689 54.9484 66.4435 54.6733 66.1304C54.3983 65.813 54.1888 65.4427 54.0449 65.0195C53.901 64.5964 53.8291 64.1372 53.8291 63.6421ZM55.3589 63.4961V63.6421C55.3589 63.951 55.3906 64.243 55.4541 64.5181C55.5176 64.7931 55.617 65.0343 55.7524 65.2417C55.8879 65.4491 56.0614 65.612 56.2729 65.7305C56.4845 65.849 56.7363 65.9082 57.0283 65.9082C57.3118 65.9082 57.5573 65.849 57.7646 65.7305C57.9762 65.612 58.1497 65.4491 58.2852 65.2417C58.4206 65.0343 58.52 64.7931 58.5835 64.5181C58.6512 64.243 58.6851 63.951 58.6851 63.6421V63.4961C58.6851 63.1914 58.6512 62.9036 58.5835 62.6328C58.52 62.3577 58.4185 62.1144 58.2788 61.9028C58.1434 61.6912 57.9699 61.5262 57.7583 61.4077C57.5509 61.285 57.3034 61.2236 57.0156 61.2236C56.7279 61.2236 56.4782 61.285 56.2666 61.4077C56.0592 61.5262 55.8879 61.6912 55.7524 61.9028C55.617 62.1144 55.5176 62.3577 55.4541 62.6328C55.3906 62.9036 55.3589 63.1914 55.3589 63.4961ZM62.2842 60.1318H63.814L63.7378 62.5503C63.7166 63.2528 63.6362 63.8558 63.4966 64.3594C63.3569 64.863 63.175 65.2882 62.9507 65.6353C62.7264 65.978 62.4725 66.2594 62.189 66.4795C61.9097 66.6995 61.6156 66.873 61.3066 67H60.856V65.7939L61.0718 65.7812C61.2537 65.5866 61.4103 65.3919 61.5415 65.1973C61.6769 64.9984 61.7912 64.7804 61.8843 64.5435C61.9774 64.3022 62.0493 64.0208 62.1001 63.6992C62.1551 63.3776 62.1911 62.9946 62.208 62.5503L62.2842 60.1318ZM62.6904 60.1318H67.0449V67H65.5215V61.4268H62.6904V60.1318ZM60.5068 65.7812H67.9844V69.0439H66.4546V67H62.0557V69.0439H60.5005L60.5068 65.7812ZM73.729 63.001V64.207H70.1743V63.001H73.729ZM70.6187 60.1318V67H69.0889V60.1318H70.6187ZM74.8335 60.1318V67H73.3037V60.1318H74.8335ZM77.6011 62.3154H79.626C80.2184 62.3154 80.722 62.4149 81.1367 62.6138C81.5514 62.8127 81.8667 63.0898 82.0825 63.4453C82.3026 63.7965 82.4126 64.1986 82.4126 64.6514C82.4126 64.9857 82.3512 65.2967 82.2285 65.5845C82.1058 65.868 81.9238 66.1156 81.6826 66.3271C81.4456 66.5387 81.1536 66.7038 80.8066 66.8223C80.4639 66.9408 80.0703 67 79.626 67H76.5854V60.1318H78.1216V65.7876H79.626C79.9307 65.7876 80.174 65.7347 80.356 65.6289C80.5379 65.5231 80.6691 65.3856 80.7495 65.2163C80.8341 65.047 80.8765 64.8672 80.8765 64.6768C80.8765 64.4821 80.8341 64.298 80.7495 64.1245C80.6691 63.951 80.5379 63.8092 80.356 63.6992C80.174 63.5892 79.9307 63.5342 79.626 63.5342H77.6011V62.3154ZM85.1167 60.1318V67H83.5869V60.1318H85.1167ZM89.9536 67.127C89.4458 67.127 88.9867 67.0444 88.5762 66.8794C88.1699 66.7101 87.8229 66.4753 87.5352 66.1748C87.2516 65.8743 87.0337 65.521 86.8813 65.1147C86.729 64.7085 86.6528 64.2705 86.6528 63.8008V63.5469C86.6528 63.0094 86.7311 62.5228 86.8877 62.0869C87.0443 61.651 87.2622 61.2786 87.5415 60.9697C87.8208 60.6566 88.1509 60.4175 88.5317 60.2524C88.9126 60.0874 89.3252 60.0049 89.7695 60.0049C90.2604 60.0049 90.6899 60.0874 91.0581 60.2524C91.4263 60.4175 91.731 60.6502 91.9722 60.9507C92.2176 61.2469 92.3996 61.6003 92.5181 62.0107C92.6408 62.4212 92.7021 62.874 92.7021 63.3691V64.0229H87.3955V62.9248H91.1914V62.8042C91.1829 62.5291 91.1279 62.271 91.0264 62.0298C90.929 61.7886 90.7788 61.5939 90.5757 61.4458C90.3726 61.2977 90.1017 61.2236 89.7632 61.2236C89.5093 61.2236 89.2829 61.2786 89.084 61.3887C88.8893 61.4945 88.7264 61.6489 88.5952 61.8521C88.464 62.0552 88.3625 62.3006 88.2905 62.5884C88.2228 62.8719 88.189 63.1914 88.189 63.5469V63.8008C88.189 64.1012 88.2292 64.3805 88.3096 64.6387C88.3942 64.8926 88.5169 65.1147 88.6777 65.3052C88.8385 65.4956 89.0332 65.6458 89.2617 65.7559C89.4902 65.8617 89.7505 65.9146 90.0425 65.9146C90.4106 65.9146 90.7386 65.8405 91.0264 65.6924C91.3141 65.5443 91.5638 65.3348 91.7754 65.064L92.5815 65.8447C92.4334 66.0605 92.2409 66.2679 92.0039 66.4668C91.7669 66.6615 91.4771 66.8201 91.1343 66.9429C90.7957 67.0656 90.4022 67.127 89.9536 67.127ZM98.7832 60.1318V67H97.2534V60.1318H98.7832ZM103.265 60.1318L100.173 64.2642H98.4277L98.2246 62.8804H99.5005L101.354 60.1318H103.265ZM101.475 67L99.4053 64.0039L100.611 63.1343L103.487 67H101.475ZM107.657 64.061H105.461L105.448 62.9819H107.251C107.547 62.9819 107.791 62.9523 107.981 62.8931C108.176 62.8338 108.319 62.745 108.413 62.6265C108.506 62.5037 108.552 62.3556 108.552 62.1821C108.552 62.0382 108.525 61.9134 108.47 61.8076C108.415 61.6976 108.33 61.6087 108.216 61.541C108.106 61.4691 107.966 61.4183 107.797 61.3887C107.632 61.3548 107.439 61.3379 107.219 61.3379H105.969V67H104.439V60.1318H107.219C107.659 60.1318 108.055 60.1699 108.406 60.2461C108.762 60.3223 109.064 60.4386 109.314 60.5952C109.564 60.7518 109.754 60.9507 109.885 61.1919C110.021 61.4289 110.088 61.7082 110.088 62.0298C110.088 62.2414 110.042 62.4403 109.949 62.6265C109.86 62.8127 109.727 62.9777 109.549 63.1216C109.371 63.2655 109.153 63.384 108.895 63.4771C108.637 63.5659 108.341 63.6209 108.006 63.6421L107.657 64.061ZM107.657 67H105.017L105.626 65.7939H107.657C107.928 65.7939 108.152 65.7601 108.33 65.6924C108.508 65.6247 108.639 65.5273 108.724 65.4004C108.812 65.2692 108.857 65.1147 108.857 64.937C108.857 64.755 108.815 64.5985 108.73 64.4673C108.645 64.3361 108.514 64.2367 108.336 64.1689C108.163 64.097 107.937 64.061 107.657 64.061H105.912L105.924 62.9819H108L108.438 63.4009C108.874 63.4305 109.236 63.5236 109.523 63.6802C109.811 63.8368 110.027 64.0335 110.171 64.2705C110.315 64.5075 110.387 64.7656 110.387 65.0449C110.387 65.3665 110.325 65.6501 110.203 65.8955C110.084 66.141 109.906 66.3462 109.669 66.5112C109.437 66.672 109.151 66.7948 108.812 66.8794C108.474 66.9598 108.089 67 107.657 67ZM115.579 65.6226V62.3472C115.579 62.1017 115.535 61.8901 115.446 61.7124C115.357 61.5347 115.222 61.3971 115.04 61.2998C114.862 61.2025 114.638 61.1538 114.367 61.1538C114.117 61.1538 113.901 61.1961 113.719 61.2808C113.537 61.3654 113.396 61.4797 113.294 61.6235C113.192 61.7674 113.142 61.9303 113.142 62.1123H111.618C111.618 61.8415 111.684 61.5791 111.815 61.3252C111.946 61.0713 112.137 60.8449 112.386 60.646C112.636 60.4471 112.934 60.2905 113.281 60.1763C113.628 60.062 114.018 60.0049 114.449 60.0049C114.965 60.0049 115.423 60.0916 115.82 60.2651C116.222 60.4386 116.538 60.701 116.766 61.0522C116.999 61.3993 117.115 61.8351 117.115 62.3599V65.4131C117.115 65.7262 117.136 66.0076 117.179 66.2573C117.225 66.5028 117.291 66.7165 117.375 66.8984V67H115.808C115.736 66.835 115.679 66.6255 115.636 66.3716C115.598 66.1134 115.579 65.8638 115.579 65.6226ZM115.801 62.8232L115.814 63.769H114.716C114.432 63.769 114.183 63.7965 113.967 63.8516C113.751 63.9023 113.571 63.9785 113.427 64.0801C113.283 64.1816 113.175 64.3044 113.104 64.4482C113.032 64.5921 112.996 64.755 112.996 64.937C112.996 65.119 113.038 65.2861 113.123 65.4385C113.207 65.5866 113.33 65.703 113.491 65.7876C113.656 65.8722 113.855 65.9146 114.087 65.9146C114.401 65.9146 114.674 65.8511 114.906 65.7241C115.143 65.5929 115.329 65.4342 115.465 65.248C115.6 65.0576 115.672 64.8778 115.681 64.7085L116.176 65.3877C116.125 65.5612 116.038 65.7474 115.916 65.9463C115.793 66.1452 115.632 66.3356 115.433 66.5176C115.238 66.6953 115.004 66.8413 114.729 66.9556C114.458 67.0698 114.145 67.127 113.789 67.127C113.34 67.127 112.941 67.0381 112.589 66.8604C112.238 66.6784 111.963 66.4351 111.764 66.1304C111.565 65.8215 111.466 65.4723 111.466 65.083C111.466 64.7191 111.534 64.3975 111.669 64.1182C111.809 63.8346 112.012 63.5977 112.278 63.4072C112.549 63.2168 112.879 63.0729 113.269 62.9756C113.658 62.874 114.102 62.8232 114.602 62.8232H115.801ZM120.251 61.4521V69.6406H118.721V60.1318H120.13L120.251 61.4521ZM124.726 63.5024V63.6357C124.726 64.1351 124.667 64.5985 124.548 65.0259C124.434 65.4491 124.263 65.8193 124.034 66.1367C123.81 66.4499 123.533 66.6932 123.203 66.8667C122.873 67.0402 122.492 67.127 122.06 67.127C121.633 67.127 121.258 67.0487 120.937 66.8921C120.619 66.7313 120.35 66.5049 120.13 66.2129C119.91 65.9209 119.733 65.5781 119.597 65.1846C119.466 64.7868 119.373 64.3509 119.318 63.877V63.3628C119.373 62.8592 119.466 62.4022 119.597 61.9917C119.733 61.5812 119.91 61.2279 120.13 60.9316C120.35 60.6354 120.619 60.4069 120.937 60.2461C121.254 60.0853 121.624 60.0049 122.047 60.0049C122.479 60.0049 122.862 60.0895 123.196 60.2588C123.531 60.4238 123.812 60.6608 124.041 60.9697C124.269 61.2744 124.44 61.6426 124.555 62.0742C124.669 62.5016 124.726 62.9777 124.726 63.5024ZM123.196 63.6357V63.5024C123.196 63.1851 123.167 62.891 123.107 62.6201C123.048 62.3451 122.955 62.1038 122.828 61.8965C122.701 61.6891 122.538 61.5283 122.339 61.4141C122.145 61.2956 121.91 61.2363 121.635 61.2363C121.364 61.2363 121.131 61.2829 120.937 61.376C120.742 61.4648 120.579 61.5897 120.448 61.7505C120.317 61.9113 120.215 62.0996 120.143 62.3154C120.071 62.527 120.02 62.7576 119.991 63.0073V64.2388C120.042 64.5435 120.128 64.8228 120.251 65.0767C120.374 65.3306 120.547 65.5337 120.771 65.686C121 65.8341 121.292 65.9082 121.647 65.9082C121.923 65.9082 122.157 65.849 122.352 65.7305C122.547 65.612 122.705 65.4491 122.828 65.2417C122.955 65.0301 123.048 64.7868 123.107 64.5117C123.167 64.2367 123.196 63.9447 123.196 63.6357ZM128.795 60.1318V67H127.259V60.1318H128.795ZM131.048 60.1318V61.3379H125.043V60.1318H131.048ZM133.651 64.7656L136.349 60.1318H137.878V67H136.349V62.3599L133.651 67H132.121V60.1318H133.651V64.7656ZM141.033 61.4521V69.6406H139.503V60.1318H140.913L141.033 61.4521ZM145.508 63.5024V63.6357C145.508 64.1351 145.449 64.5985 145.331 65.0259C145.216 65.4491 145.045 65.8193 144.816 66.1367C144.592 66.4499 144.315 66.6932 143.985 66.8667C143.655 67.0402 143.274 67.127 142.842 67.127C142.415 67.127 142.04 67.0487 141.719 66.8921C141.401 66.7313 141.133 66.5049 140.913 66.2129C140.693 65.9209 140.515 65.5781 140.379 65.1846C140.248 64.7868 140.155 64.3509 140.1 63.877V63.3628C140.155 62.8592 140.248 62.4022 140.379 61.9917C140.515 61.5812 140.693 61.2279 140.913 60.9316C141.133 60.6354 141.401 60.4069 141.719 60.2461C142.036 60.0853 142.406 60.0049 142.83 60.0049C143.261 60.0049 143.644 60.0895 143.979 60.2588C144.313 60.4238 144.594 60.6608 144.823 60.9697C145.051 61.2744 145.223 61.6426 145.337 62.0742C145.451 62.5016 145.508 62.9777 145.508 63.5024ZM143.979 63.6357V63.5024C143.979 63.1851 143.949 62.891 143.89 62.6201C143.83 62.3451 143.737 62.1038 143.61 61.8965C143.483 61.6891 143.32 61.5283 143.122 61.4141C142.927 61.2956 142.692 61.2363 142.417 61.2363C142.146 61.2363 141.913 61.2829 141.719 61.376C141.524 61.4648 141.361 61.5897 141.23 61.7505C141.099 61.9113 140.997 62.0996 140.925 62.3154C140.853 62.527 140.803 62.7576 140.773 63.0073V64.2388C140.824 64.5435 140.91 64.8228 141.033 65.0767C141.156 65.3306 141.329 65.5337 141.554 65.686C141.782 65.8341 142.074 65.9082 142.43 65.9082C142.705 65.9082 142.94 65.849 143.134 65.7305C143.329 65.612 143.488 65.4491 143.61 65.2417C143.737 65.0301 143.83 64.7868 143.89 64.5117C143.949 64.2367 143.979 63.9447 143.979 63.6357ZM147.946 62.3154H149.971C150.563 62.3154 151.067 62.4149 151.481 62.6138C151.896 62.8127 152.211 63.0898 152.427 63.4453C152.647 63.7965 152.757 64.1986 152.757 64.6514C152.757 64.9857 152.696 65.2967 152.573 65.5845C152.451 65.868 152.269 66.1156 152.027 66.3271C151.79 66.5387 151.498 66.7038 151.151 66.8223C150.809 66.9408 150.415 67 149.971 67H146.93V60.1318H148.466V65.7876H149.971C150.275 65.7876 150.519 65.7347 150.701 65.6289C150.883 65.5231 151.014 65.3856 151.094 65.2163C151.179 65.047 151.221 64.8672 151.221 64.6768C151.221 64.4821 151.179 64.298 151.094 64.1245C151.014 63.951 150.883 63.8092 150.701 63.6992C150.519 63.5892 150.275 63.5342 149.971 63.5342H147.946V62.3154ZM155.461 60.1318V67H153.932V60.1318H155.461ZM163.847 64.061H161.65L161.638 62.9819H163.44C163.737 62.9819 163.98 62.9523 164.17 62.8931C164.365 62.8338 164.509 62.745 164.602 62.6265C164.695 62.5037 164.742 62.3556 164.742 62.1821C164.742 62.0382 164.714 61.9134 164.659 61.8076C164.604 61.6976 164.52 61.6087 164.405 61.541C164.295 61.4691 164.156 61.4183 163.986 61.3887C163.821 61.3548 163.629 61.3379 163.409 61.3379H162.158V67H160.628V60.1318H163.409C163.849 60.1318 164.244 60.1699 164.596 60.2461C164.951 60.3223 165.254 60.4386 165.503 60.5952C165.753 60.7518 165.944 60.9507 166.075 61.1919C166.21 61.4289 166.278 61.7082 166.278 62.0298C166.278 62.2414 166.231 62.4403 166.138 62.6265C166.049 62.8127 165.916 62.9777 165.738 63.1216C165.561 63.2655 165.343 63.384 165.084 63.4771C164.826 63.5659 164.53 63.6209 164.196 63.6421L163.847 64.061ZM163.847 67H161.206L161.815 65.7939H163.847C164.118 65.7939 164.342 65.7601 164.52 65.6924C164.697 65.6247 164.828 65.5273 164.913 65.4004C165.002 65.2692 165.046 65.1147 165.046 64.937C165.046 64.755 165.004 64.5985 164.919 64.4673C164.835 64.3361 164.704 64.2367 164.526 64.1689C164.352 64.097 164.126 64.061 163.847 64.061H162.101L162.114 62.9819H164.189L164.627 63.4009C165.063 63.4305 165.425 63.5236 165.713 63.6802C166.001 63.8368 166.216 64.0335 166.36 64.2705C166.504 64.5075 166.576 64.7656 166.576 65.0449C166.576 65.3665 166.515 65.6501 166.392 65.8955C166.274 66.141 166.096 66.3462 165.859 66.5112C165.626 66.672 165.34 66.7948 165.002 66.8794C164.663 66.9598 164.278 67 163.847 67ZM30.8379 85V78.1318H32.3677V83.7812H35.0591V78.1318H36.5952V85H30.8379ZM37.5283 83.7876L37.4077 87.0376H36.0049V85H35.1797V83.7876H37.5283ZM41.6353 85.127C41.1274 85.127 40.6683 85.0444 40.2578 84.8794C39.8516 84.7101 39.5046 84.4753 39.2168 84.1748C38.9333 83.8743 38.7153 83.521 38.563 83.1147C38.4106 82.7085 38.3345 82.2705 38.3345 81.8008V81.5469C38.3345 81.0094 38.4128 80.5228 38.5693 80.0869C38.7259 79.651 38.9438 79.2786 39.2231 78.9697C39.5024 78.6566 39.8325 78.4175 40.2134 78.2524C40.5942 78.0874 41.0068 78.0049 41.4512 78.0049C41.9421 78.0049 42.3716 78.0874 42.7397 78.2524C43.1079 78.4175 43.4126 78.6502 43.6538 78.9507C43.8993 79.2469 44.0812 79.6003 44.1997 80.0107C44.3224 80.4212 44.3838 80.874 44.3838 81.3691V82.0229H39.0771V80.9248H42.873V80.8042C42.8646 80.5291 42.8096 80.271 42.708 80.0298C42.6107 79.7886 42.4604 79.5939 42.2573 79.4458C42.0542 79.2977 41.7834 79.2236 41.4448 79.2236C41.1909 79.2236 40.9645 79.2786 40.7656 79.3887C40.571 79.4945 40.408 79.6489 40.2769 79.8521C40.1457 80.0552 40.0441 80.3006 39.9722 80.5884C39.9045 80.8719 39.8706 81.1914 39.8706 81.5469V81.8008C39.8706 82.1012 39.9108 82.3805 39.9912 82.6387C40.0758 82.8926 40.1986 83.1147 40.3594 83.3052C40.5202 83.4956 40.7148 83.6458 40.9434 83.7559C41.1719 83.8617 41.4321 83.9146 41.7241 83.9146C42.0923 83.9146 42.4202 83.8405 42.708 83.6924C42.9958 83.5443 43.2454 83.3348 43.457 83.064L44.2632 83.8447C44.1151 84.0605 43.9225 84.2679 43.6855 84.4668C43.4486 84.6615 43.1587 84.8201 42.8159 84.9429C42.4774 85.0656 42.0838 85.127 41.6353 85.127ZM50.2681 81.001V82.207H46.7134V81.001H50.2681ZM47.1577 78.1318V85H45.6279V78.1318H47.1577ZM51.3726 78.1318V85H49.8428V78.1318H51.3726ZM56.1904 78.1318V85H54.6543V78.1318H56.1904ZM58.4438 78.1318V79.3379H52.439V78.1318H58.4438ZM61.002 79.4521V87.6406H59.4722V78.1318H60.8813L61.002 79.4521ZM65.4771 81.5024V81.6357C65.4771 82.1351 65.4178 82.5985 65.2993 83.0259C65.1851 83.4491 65.0137 83.8193 64.7852 84.1367C64.5609 84.4499 64.2837 84.6932 63.9536 84.8667C63.6235 85.0402 63.2427 85.127 62.811 85.127C62.3836 85.127 62.0091 85.0487 61.6875 84.8921C61.3701 84.7313 61.1014 84.5049 60.8813 84.2129C60.6613 83.9209 60.4836 83.5781 60.3481 83.1846C60.217 82.7868 60.1239 82.3509 60.0688 81.877V81.3628C60.1239 80.8592 60.217 80.4022 60.3481 79.9917C60.4836 79.5812 60.6613 79.2279 60.8813 78.9316C61.1014 78.6354 61.3701 78.4069 61.6875 78.2461C62.0049 78.0853 62.3752 78.0049 62.7983 78.0049C63.23 78.0049 63.613 78.0895 63.9473 78.2588C64.2816 78.4238 64.563 78.6608 64.7915 78.9697C65.02 79.2744 65.1914 79.6426 65.3057 80.0742C65.4199 80.5016 65.4771 80.9777 65.4771 81.5024ZM63.9473 81.6357V81.5024C63.9473 81.1851 63.9176 80.891 63.8584 80.6201C63.7992 80.3451 63.7061 80.1038 63.5791 79.8965C63.4521 79.6891 63.2892 79.5283 63.0903 79.4141C62.8957 79.2956 62.6608 79.2363 62.3857 79.2363C62.1149 79.2363 61.8822 79.2829 61.6875 79.376C61.4928 79.4648 61.3299 79.5897 61.1987 79.7505C61.0675 79.9113 60.966 80.0996 60.894 80.3154C60.8221 80.527 60.7713 80.7576 60.7417 81.0073V82.2388C60.7925 82.5435 60.8792 82.8228 61.002 83.0767C61.1247 83.3306 61.2982 83.5337 61.5225 83.686C61.751 83.8341 62.043 83.9082 62.3984 83.9082C62.6735 83.9082 62.9084 83.849 63.103 83.7305C63.2977 83.612 63.4564 83.4491 63.5791 83.2417C63.7061 83.0301 63.7992 82.7868 63.8584 82.5117C63.9176 82.2367 63.9473 81.9447 63.9473 81.6357ZM69.8062 85.127C69.2983 85.127 68.8392 85.0444 68.4287 84.8794C68.0225 84.7101 67.6755 84.4753 67.3877 84.1748C67.1042 83.8743 66.8862 83.521 66.7339 83.1147C66.5815 82.7085 66.5054 82.2705 66.5054 81.8008V81.5469C66.5054 81.0094 66.5837 80.5228 66.7402 80.0869C66.8968 79.651 67.1147 79.2786 67.394 78.9697C67.6733 78.6566 68.0034 78.4175 68.3843 78.2524C68.7651 78.0874 69.1777 78.0049 69.6221 78.0049C70.113 78.0049 70.5425 78.0874 70.9106 78.2524C71.2788 78.4175 71.5835 78.6502 71.8247 78.9507C72.0701 79.2469 72.2521 79.6003 72.3706 80.0107C72.4933 80.4212 72.5547 80.874 72.5547 81.3691V82.0229H67.248V80.9248H71.0439V80.8042C71.0355 80.5291 70.9805 80.271 70.8789 80.0298C70.7816 79.7886 70.6313 79.5939 70.4282 79.4458C70.2251 79.2977 69.9543 79.2236 69.6157 79.2236C69.3618 79.2236 69.1354 79.2786 68.9365 79.3887C68.7419 79.4945 68.5789 79.6489 68.4478 79.8521C68.3166 80.0552 68.215 80.3006 68.1431 80.5884C68.0754 80.8719 68.0415 81.1914 68.0415 81.5469V81.8008C68.0415 82.1012 68.0817 82.3805 68.1621 82.6387C68.2467 82.8926 68.3695 83.1147 68.5303 83.3052C68.6911 83.4956 68.8857 83.6458 69.1143 83.7559C69.3428 83.8617 69.603 83.9146 69.895 83.9146C70.2632 83.9146 70.5911 83.8405 70.8789 83.6924C71.1667 83.5443 71.4163 83.3348 71.6279 83.064L72.4341 83.8447C72.286 84.0605 72.0934 84.2679 71.8564 84.4668C71.6195 84.6615 71.3296 84.8201 70.9868 84.9429C70.6483 85.0656 70.2547 85.127 69.8062 85.127ZM82.9966 75.7578V77.0273H78.6992V85H77.1123V75.7578H82.9966ZM78.2168 79.3062H80.54C81.2425 79.3062 81.8434 79.4246 82.3428 79.6616C82.8421 79.8944 83.223 80.2223 83.4854 80.6455C83.7477 81.0687 83.8789 81.5617 83.8789 82.1245C83.8789 82.5477 83.8049 82.9349 83.6567 83.2861C83.5086 83.6374 83.2907 83.9421 83.0029 84.2002C82.7152 84.4541 82.3639 84.6509 81.9492 84.7905C81.5387 84.9302 81.069 85 80.54 85H77.1123V75.7578H78.7119V83.7368H80.54C80.9421 83.7368 81.2721 83.6628 81.5303 83.5146C81.7884 83.3623 81.9788 83.1634 82.1016 82.918C82.2285 82.6725 82.292 82.4038 82.292 82.1118C82.292 81.8283 82.2285 81.5701 82.1016 81.3374C81.9788 81.1047 81.7884 80.9185 81.5303 80.7788C81.2721 80.6392 80.9421 80.5693 80.54 80.5693H78.2168V79.3062ZM89.0332 83.6226V80.3472C89.0332 80.1017 88.9888 79.8901 88.8999 79.7124C88.811 79.5347 88.6756 79.3971 88.4937 79.2998C88.3159 79.2025 88.0916 79.1538 87.8208 79.1538C87.5711 79.1538 87.3553 79.1961 87.1733 79.2808C86.9914 79.3654 86.8496 79.4797 86.748 79.6235C86.6465 79.7674 86.5957 79.9303 86.5957 80.1123H85.0723C85.0723 79.8415 85.1379 79.5791 85.269 79.3252C85.4002 79.0713 85.5907 78.8449 85.8403 78.646C86.09 78.4471 86.3883 78.2905 86.7354 78.1763C87.0824 78.062 87.4717 78.0049 87.9033 78.0049C88.4196 78.0049 88.8766 78.0916 89.2744 78.2651C89.6764 78.4386 89.9917 78.701 90.2202 79.0522C90.453 79.3993 90.5693 79.8351 90.5693 80.3599V83.4131C90.5693 83.7262 90.5905 84.0076 90.6328 84.2573C90.6794 84.5028 90.745 84.7165 90.8296 84.8984V85H89.2617C89.1898 84.835 89.1326 84.6255 89.0903 84.3716C89.0522 84.1134 89.0332 83.8638 89.0332 83.6226ZM89.2554 80.8232L89.2681 81.769H88.1699C87.8864 81.769 87.6367 81.7965 87.4209 81.8516C87.2051 81.9023 87.0252 81.9785 86.8813 82.0801C86.7375 82.1816 86.6296 82.3044 86.5576 82.4482C86.4857 82.5921 86.4497 82.755 86.4497 82.937C86.4497 83.119 86.492 83.2861 86.5767 83.4385C86.6613 83.5866 86.784 83.703 86.9448 83.7876C87.1099 83.8722 87.3088 83.9146 87.5415 83.9146C87.8547 83.9146 88.1276 83.8511 88.3604 83.7241C88.5973 83.5929 88.7835 83.4342 88.9189 83.248C89.0544 83.0576 89.1263 82.8778 89.1348 82.7085L89.6299 83.3877C89.5791 83.5612 89.4924 83.7474 89.3696 83.9463C89.2469 84.1452 89.0861 84.3356 88.8872 84.5176C88.6925 84.6953 88.4577 84.8413 88.1826 84.9556C87.9118 85.0698 87.5986 85.127 87.2432 85.127C86.7946 85.127 86.3947 85.0381 86.0435 84.8604C85.6922 84.6784 85.4172 84.4351 85.2183 84.1304C85.0194 83.8215 84.9199 83.4723 84.9199 83.083C84.9199 82.7191 84.9876 82.3975 85.123 82.1182C85.2627 81.8346 85.4658 81.5977 85.7324 81.4072C86.0033 81.2168 86.3333 81.0729 86.7227 80.9756C87.112 80.874 87.5563 80.8232 88.0557 80.8232H89.2554ZM93.7051 79.4521V87.6406H92.1753V78.1318H93.5845L93.7051 79.4521ZM98.1802 81.5024V81.6357C98.1802 82.1351 98.1209 82.5985 98.0024 83.0259C97.8882 83.4491 97.7168 83.8193 97.4883 84.1367C97.264 84.4499 96.9868 84.6932 96.6567 84.8667C96.3267 85.0402 95.9458 85.127 95.5142 85.127C95.0868 85.127 94.7122 85.0487 94.3906 84.8921C94.0732 84.7313 93.8045 84.5049 93.5845 84.2129C93.3644 83.9209 93.1867 83.5781 93.0513 83.1846C92.9201 82.7868 92.827 82.3509 92.772 81.877V81.3628C92.827 80.8592 92.9201 80.4022 93.0513 79.9917C93.1867 79.5812 93.3644 79.2279 93.5845 78.9316C93.8045 78.6354 94.0732 78.4069 94.3906 78.2461C94.708 78.0853 95.0783 78.0049 95.5015 78.0049C95.9331 78.0049 96.3161 78.0895 96.6504 78.2588C96.9847 78.4238 97.2661 78.6608 97.4946 78.9697C97.7231 79.2744 97.8945 79.6426 98.0088 80.0742C98.123 80.5016 98.1802 80.9777 98.1802 81.5024ZM96.6504 81.6357V81.5024C96.6504 81.1851 96.6208 80.891 96.5615 80.6201C96.5023 80.3451 96.4092 80.1038 96.2822 79.8965C96.1553 79.6891 95.9924 79.5283 95.7935 79.4141C95.5988 79.2956 95.3639 79.2363 95.0889 79.2363C94.818 79.2363 94.5853 79.2829 94.3906 79.376C94.196 79.4648 94.033 79.5897 93.9019 79.7505C93.7707 79.9113 93.6691 80.0996 93.5972 80.3154C93.5252 80.527 93.4744 80.7576 93.4448 81.0073V82.2388C93.4956 82.5435 93.5824 82.8228 93.7051 83.0767C93.8278 83.3306 94.0013 83.5337 94.2256 83.686C94.4541 83.8341 94.7461 83.9082 95.1016 83.9082C95.3766 83.9082 95.6115 83.849 95.8062 83.7305C96.0008 83.612 96.1595 83.4491 96.2822 83.2417C96.4092 83.0301 96.5023 82.7868 96.5615 82.5117C96.6208 82.2367 96.6504 81.9447 96.6504 81.6357ZM102.287 83.9082C102.537 83.9082 102.761 83.8595 102.96 83.7622C103.163 83.6606 103.326 83.521 103.449 83.3433C103.576 83.1655 103.646 82.9603 103.658 82.7275H105.099C105.091 83.1719 104.959 83.576 104.706 83.9399C104.452 84.3039 104.115 84.5938 103.696 84.8096C103.277 85.0212 102.814 85.127 102.306 85.127C101.781 85.127 101.324 85.0381 100.935 84.8604C100.546 84.6784 100.222 84.4287 99.9639 84.1113C99.7057 83.7939 99.5111 83.4279 99.3799 83.0132C99.2529 82.5985 99.1895 82.1541 99.1895 81.6802V81.458C99.1895 80.984 99.2529 80.5397 99.3799 80.125C99.5111 79.7061 99.7057 79.3379 99.9639 79.0205C100.222 78.7031 100.546 78.4556 100.935 78.2778C101.324 78.0959 101.779 78.0049 102.3 78.0049C102.85 78.0049 103.332 78.1149 103.747 78.335C104.162 78.5508 104.488 78.8534 104.725 79.2427C104.966 79.6278 105.091 80.0763 105.099 80.5884H103.658C103.646 80.3345 103.582 80.106 103.468 79.9028C103.358 79.6955 103.201 79.5304 102.998 79.4077C102.799 79.285 102.56 79.2236 102.281 79.2236C101.972 79.2236 101.716 79.2871 101.513 79.4141C101.31 79.5368 101.151 79.7061 101.037 79.9219C100.922 80.1335 100.84 80.3726 100.789 80.6392C100.743 80.9015 100.719 81.1745 100.719 81.458V81.6802C100.719 81.9637 100.743 82.2388 100.789 82.5054C100.836 82.772 100.916 83.0111 101.03 83.2227C101.149 83.43 101.31 83.5972 101.513 83.7241C101.716 83.8468 101.974 83.9082 102.287 83.9082ZM109.301 85.127C108.793 85.127 108.334 85.0444 107.924 84.8794C107.518 84.7101 107.171 84.4753 106.883 84.1748C106.599 83.8743 106.381 83.521 106.229 83.1147C106.077 82.7085 106 82.2705 106 81.8008V81.5469C106 81.0094 106.079 80.5228 106.235 80.0869C106.392 79.651 106.61 79.2786 106.889 78.9697C107.168 78.6566 107.499 78.4175 107.879 78.2524C108.26 78.0874 108.673 78.0049 109.117 78.0049C109.608 78.0049 110.038 78.0874 110.406 78.2524C110.774 78.4175 111.079 78.6502 111.32 78.9507C111.565 79.2469 111.747 79.6003 111.866 80.0107C111.988 80.4212 112.05 80.874 112.05 81.3691V82.0229H106.743V80.9248H110.539V80.8042C110.531 80.5291 110.476 80.271 110.374 80.0298C110.277 79.7886 110.126 79.5939 109.923 79.4458C109.72 79.2977 109.449 79.2236 109.111 79.2236C108.857 79.2236 108.631 79.2786 108.432 79.3887C108.237 79.4945 108.074 79.6489 107.943 79.8521C107.812 80.0552 107.71 80.3006 107.638 80.5884C107.57 80.8719 107.537 81.1914 107.537 81.5469V81.8008C107.537 82.1012 107.577 82.3805 107.657 82.6387C107.742 82.8926 107.865 83.1147 108.025 83.3052C108.186 83.4956 108.381 83.6458 108.609 83.7559C108.838 83.8617 109.098 83.9146 109.39 83.9146C109.758 83.9146 110.086 83.8405 110.374 83.6924C110.662 83.5443 110.911 83.3348 111.123 83.064L111.929 83.8447C111.781 84.0605 111.589 84.2679 111.352 84.4668C111.115 84.6615 110.825 84.8201 110.482 84.9429C110.143 85.0656 109.75 85.127 109.301 85.127ZM117.858 78.1318V79.3506H114.506V78.1318H117.858ZM119.058 78.1318V85H117.528V78.1318H119.058ZM114.132 78.1318H115.643L115.458 81.5278C115.433 82.0314 115.382 82.4757 115.306 82.8608C115.234 83.2417 115.137 83.5697 115.014 83.8447C114.891 84.1156 114.741 84.3356 114.563 84.5049C114.386 84.6742 114.178 84.799 113.941 84.8794C113.704 84.9598 113.438 85 113.142 85H112.666L112.659 83.7432L112.9 83.7241C113.057 83.7114 113.192 83.6712 113.307 83.6035C113.421 83.5316 113.518 83.43 113.599 83.2988C113.683 83.1676 113.751 82.9984 113.802 82.791C113.857 82.5837 113.899 82.3382 113.929 82.0547C113.963 81.7712 113.988 81.4411 114.005 81.0645L114.132 78.1318ZM120.391 81.6421V81.4961C120.391 81.001 120.463 80.5418 120.606 80.1187C120.75 79.6912 120.958 79.321 121.229 79.0078C121.504 78.6904 121.838 78.445 122.231 78.2715C122.629 78.0938 123.078 78.0049 123.577 78.0049C124.081 78.0049 124.529 78.0938 124.923 78.2715C125.321 78.445 125.657 78.6904 125.932 79.0078C126.207 79.321 126.417 79.6912 126.561 80.1187C126.704 80.5418 126.776 81.001 126.776 81.4961V81.6421C126.776 82.1372 126.704 82.5964 126.561 83.0195C126.417 83.4427 126.207 83.813 125.932 84.1304C125.657 84.4435 125.323 84.689 124.929 84.8667C124.536 85.0402 124.089 85.127 123.59 85.127C123.086 85.127 122.636 85.0402 122.238 84.8667C121.844 84.689 121.51 84.4435 121.235 84.1304C120.96 83.813 120.75 83.4427 120.606 83.0195C120.463 82.5964 120.391 82.1372 120.391 81.6421ZM121.92 81.4961V81.6421C121.92 81.951 121.952 82.243 122.016 82.5181C122.079 82.7931 122.179 83.0343 122.314 83.2417C122.449 83.4491 122.623 83.612 122.834 83.7305C123.046 83.849 123.298 83.9082 123.59 83.9082C123.873 83.9082 124.119 83.849 124.326 83.7305C124.538 83.612 124.711 83.4491 124.847 83.2417C124.982 83.0343 125.082 82.7931 125.145 82.5181C125.213 82.243 125.247 81.951 125.247 81.6421V81.4961C125.247 81.1914 125.213 80.9036 125.145 80.6328C125.082 80.3577 124.98 80.1144 124.84 79.9028C124.705 79.6912 124.531 79.5262 124.32 79.4077C124.112 79.285 123.865 79.2236 123.577 79.2236C123.289 79.2236 123.04 79.285 122.828 79.4077C122.621 79.5262 122.449 79.6912 122.314 79.9028C122.179 80.1144 122.079 80.3577 122.016 80.6328C121.952 80.9036 121.92 81.1914 121.92 81.4961ZM132.75 81.001V82.207H129.195V81.001H132.75ZM129.639 78.1318V85H128.109V78.1318H129.639ZM133.854 78.1318V85H132.324V78.1318H133.854ZM136.622 80.3154H138.646C139.239 80.3154 139.743 80.4149 140.157 80.6138C140.572 80.8127 140.887 81.0898 141.103 81.4453C141.323 81.7965 141.433 82.1986 141.433 82.6514C141.433 82.9857 141.372 83.2967 141.249 83.5845C141.126 83.868 140.944 84.1156 140.703 84.3271C140.466 84.5387 140.174 84.7038 139.827 84.8223C139.484 84.9408 139.091 85 138.646 85H135.606V78.1318H137.142V83.7876H138.646C138.951 83.7876 139.194 83.7347 139.376 83.6289C139.558 83.5231 139.69 83.3856 139.77 83.2163C139.855 83.047 139.897 82.8672 139.897 82.6768C139.897 82.4821 139.855 82.298 139.77 82.1245C139.69 81.951 139.558 81.8092 139.376 81.6992C139.194 81.5892 138.951 81.5342 138.646 81.5342H136.622V80.3154ZM144.137 78.1318V85H142.607V78.1318H144.137Z" fill="#2A344A"/>
<path d="M36.9287 106.843V107.337C36.9287 107.924 36.8553 108.451 36.7085 108.916C36.5617 109.382 36.3504 109.777 36.0747 110.103C35.799 110.429 35.4678 110.678 35.0811 110.85C34.6979 111.021 34.2682 111.107 33.792 111.107C33.3301 111.107 32.9058 111.021 32.519 110.85C32.1359 110.678 31.8029 110.429 31.52 110.103C31.2407 109.777 31.0241 109.382 30.8701 108.916C30.7161 108.451 30.6392 107.924 30.6392 107.337V106.843C30.6392 106.256 30.7144 105.731 30.8647 105.269C31.0187 104.804 31.2354 104.408 31.5146 104.082C31.7939 103.753 32.1252 103.502 32.5083 103.33C32.895 103.158 33.3193 103.072 33.7812 103.072C34.2575 103.072 34.6872 103.158 35.0703 103.33C35.457 103.502 35.7882 103.753 36.064 104.082C36.3433 104.408 36.5563 104.804 36.7031 105.269C36.8535 105.731 36.9287 106.256 36.9287 106.843ZM35.9028 107.337V106.832C35.9028 106.367 35.8545 105.955 35.7578 105.597C35.6647 105.239 35.5269 104.938 35.3442 104.694C35.1616 104.451 34.9378 104.266 34.6729 104.141C34.4115 104.016 34.1143 103.953 33.7812 103.953C33.459 103.953 33.1672 104.016 32.9058 104.141C32.6479 104.266 32.4259 104.451 32.2397 104.694C32.0571 104.938 31.9157 105.239 31.8154 105.597C31.7152 105.955 31.665 106.367 31.665 106.832V107.337C31.665 107.806 31.7152 108.221 31.8154 108.583C31.9157 108.941 32.0589 109.244 32.2451 109.491C32.4349 109.734 32.6587 109.919 32.9165 110.044C33.1779 110.169 33.4697 110.232 33.792 110.232C34.1286 110.232 34.4276 110.169 34.689 110.044C34.9504 109.919 35.1706 109.734 35.3496 109.491C35.5322 109.244 35.6701 108.941 35.7632 108.583C35.8563 108.221 35.9028 107.806 35.9028 107.337ZM42.0581 102.659H42.8745C42.8745 103.01 42.8208 103.289 42.7134 103.497C42.606 103.701 42.4591 103.858 42.2729 103.969C42.0903 104.08 41.8826 104.164 41.6499 104.222C41.4207 104.279 41.1826 104.334 40.9355 104.388C40.6276 104.453 40.3411 104.555 40.0762 104.694C39.8148 104.83 39.5892 105.024 39.3994 105.274C39.2132 105.525 39.0754 105.851 38.9858 106.252C38.8999 106.653 38.8766 107.149 38.916 107.74V108.234H38.0996V107.74C38.0996 107.077 38.1623 106.499 38.2876 106.005C38.4165 105.511 38.5973 105.094 38.8301 104.753C39.0628 104.413 39.3385 104.143 39.6572 103.942C39.9795 103.742 40.334 103.604 40.7207 103.529C41 103.475 41.2399 103.418 41.4404 103.357C41.641 103.292 41.7931 103.207 41.897 103.099C42.0044 102.992 42.0581 102.845 42.0581 102.659ZM40.8818 105.521C41.2614 105.521 41.5998 105.588 41.897 105.72C42.1942 105.853 42.4466 106.037 42.6543 106.273C42.862 106.51 43.0195 106.789 43.127 107.111C43.238 107.43 43.2935 107.777 43.2935 108.153V108.271C43.2935 108.676 43.2344 109.052 43.1162 109.399C43.0016 109.743 42.8315 110.044 42.606 110.302C42.384 110.556 42.1118 110.755 41.7896 110.898C41.4709 111.041 41.1074 111.113 40.6992 111.113C40.291 111.113 39.9258 111.041 39.6035 110.898C39.2848 110.755 39.0127 110.556 38.7871 110.302C38.5615 110.044 38.3896 109.743 38.2715 109.399C38.1569 109.052 38.0996 108.676 38.0996 108.271V108.153C38.0996 108.064 38.1157 107.976 38.1479 107.89C38.1802 107.804 38.2196 107.716 38.2661 107.627C38.3162 107.537 38.361 107.443 38.4004 107.342C38.5329 107.02 38.7137 106.721 38.9429 106.445C39.1756 106.17 39.4531 105.948 39.7754 105.779C40.1012 105.607 40.4701 105.521 40.8818 105.521ZM40.6885 106.333C40.3232 106.333 40.0225 106.417 39.7861 106.585C39.5534 106.753 39.3797 106.977 39.2651 107.256C39.1506 107.532 39.0933 107.831 39.0933 108.153V108.271C39.0933 108.544 39.1255 108.801 39.1899 109.045C39.2544 109.288 39.3511 109.505 39.48 109.695C39.6125 109.881 39.779 110.028 39.9795 110.135C40.1836 110.243 40.4235 110.296 40.6992 110.296C40.9749 110.296 41.2131 110.243 41.4136 110.135C41.6141 110.028 41.7788 109.881 41.9077 109.695C42.0366 109.505 42.1333 109.288 42.1978 109.045C42.2622 108.801 42.2944 108.544 42.2944 108.271V108.153C42.2944 107.91 42.2622 107.679 42.1978 107.46C42.1333 107.242 42.0348 107.049 41.9023 106.88C41.7734 106.712 41.6069 106.58 41.4028 106.483C41.2023 106.383 40.9642 106.333 40.6885 106.333ZM52.4028 110.184L52.3062 112.724H51.4199V111H50.6626V110.184H52.4028ZM44.3516 105.188H45.3452V110.184H47.4722V105.188H48.4712V110.184H50.5928V105.188H51.5864V111H44.3516V105.188ZM56.8608 110.006V107.015C56.8608 106.785 56.8143 106.587 56.7212 106.418C56.6317 106.247 56.4956 106.114 56.313 106.021C56.1304 105.928 55.9048 105.881 55.6362 105.881C55.3856 105.881 55.1654 105.924 54.9756 106.01C54.7894 106.096 54.6426 106.209 54.5352 106.349C54.4313 106.488 54.3794 106.639 54.3794 106.8H53.3857C53.3857 106.592 53.4395 106.386 53.5469 106.182C53.6543 105.978 53.8083 105.794 54.0088 105.629C54.2129 105.461 54.4564 105.328 54.7393 105.231C55.0257 105.131 55.3444 105.081 55.6953 105.081C56.1178 105.081 56.4902 105.153 56.8125 105.296C57.1383 105.439 57.3926 105.656 57.5752 105.946C57.7614 106.232 57.8545 106.592 57.8545 107.025V109.732C57.8545 109.926 57.8706 110.132 57.9028 110.35C57.9386 110.569 57.9906 110.757 58.0586 110.914V111H57.022C56.9718 110.885 56.9325 110.733 56.9038 110.543C56.8752 110.35 56.8608 110.171 56.8608 110.006ZM57.0327 107.477L57.0435 108.175H56.0391C55.7562 108.175 55.5037 108.198 55.2817 108.245C55.0597 108.288 54.8735 108.354 54.7231 108.443C54.5728 108.533 54.4582 108.646 54.3794 108.782C54.3006 108.914 54.2612 109.07 54.2612 109.249C54.2612 109.432 54.3024 109.598 54.3848 109.749C54.4671 109.899 54.5907 110.019 54.7554 110.108C54.9237 110.194 55.1296 110.237 55.373 110.237C55.6774 110.237 55.946 110.173 56.1787 110.044C56.4115 109.915 56.5959 109.757 56.7319 109.571C56.8716 109.385 56.9468 109.204 56.9575 109.029L57.3818 109.507C57.3568 109.657 57.2887 109.824 57.1777 110.006C57.0667 110.189 56.9181 110.364 56.7319 110.533C56.5493 110.697 56.3309 110.835 56.0767 110.946C55.826 111.054 55.5431 111.107 55.228 111.107C54.8341 111.107 54.4886 111.03 54.1914 110.876C53.8978 110.722 53.6686 110.517 53.5039 110.259C53.3428 109.997 53.2622 109.706 53.2622 109.383C53.2622 109.072 53.3231 108.798 53.4448 108.562C53.5666 108.322 53.742 108.123 53.9712 107.965C54.2004 107.804 54.4761 107.682 54.7983 107.6C55.1206 107.518 55.4805 107.477 55.8779 107.477H57.0327ZM60.5938 108.229H61.668L59.9868 111H58.9126L60.5938 108.229ZM61.4263 105.188H63.854V111H62.8604V105.994H61.4263C61.1434 105.994 60.9124 106.042 60.7334 106.139C60.5544 106.232 60.4237 106.354 60.3413 106.504C60.259 106.655 60.2178 106.811 60.2178 106.972C60.2178 107.129 60.2554 107.281 60.3306 107.428C60.4058 107.571 60.5239 107.69 60.6851 107.783C60.8462 107.876 61.0539 107.922 61.3081 107.922H63.1289V108.739H61.3081C60.9751 108.739 60.6797 108.694 60.4219 108.604C60.1641 108.515 59.9456 108.391 59.7666 108.234C59.5876 108.073 59.4515 107.885 59.3584 107.67C59.2653 107.451 59.2188 107.215 59.2188 106.961C59.2188 106.707 59.2671 106.472 59.3638 106.257C59.464 106.042 59.6073 105.854 59.7935 105.693C59.9832 105.532 60.2142 105.409 60.4863 105.323C60.762 105.233 61.0754 105.188 61.4263 105.188ZM65.4116 110.474C65.4116 110.305 65.4635 110.164 65.5674 110.049C65.6748 109.931 65.8288 109.872 66.0293 109.872C66.2298 109.872 66.382 109.931 66.4858 110.049C66.5933 110.164 66.647 110.305 66.647 110.474C66.647 110.638 66.5933 110.778 66.4858 110.893C66.382 111.007 66.2298 111.064 66.0293 111.064C65.8288 111.064 65.6748 111.007 65.5674 110.893C65.4635 110.778 65.4116 110.638 65.4116 110.474ZM65.417 105.731C65.417 105.563 65.4689 105.421 65.5728 105.307C65.6802 105.188 65.8341 105.129 66.0347 105.129C66.2352 105.129 66.3874 105.188 66.4912 105.307C66.5986 105.421 66.6523 105.563 66.6523 105.731C66.6523 105.896 66.5986 106.035 66.4912 106.15C66.3874 106.264 66.2352 106.322 66.0347 106.322C65.8341 106.322 65.6802 106.264 65.5728 106.15C65.4689 106.035 65.417 105.896 65.417 105.731Z" fill="#7786A5"/>
<path d="M71.9966 107.278L71.2017 107.074L71.5938 103.18H75.606V104.098H72.437L72.2007 106.225C72.3439 106.143 72.5247 106.066 72.7432 105.994C72.9652 105.923 73.2194 105.887 73.5059 105.887C73.8675 105.887 74.1916 105.949 74.478 106.075C74.7645 106.196 75.008 106.372 75.2085 106.601C75.4126 106.83 75.5684 107.106 75.6758 107.428C75.7832 107.75 75.8369 108.11 75.8369 108.508C75.8369 108.884 75.785 109.229 75.6812 109.544C75.5809 109.86 75.4287 110.135 75.2246 110.372C75.0205 110.604 74.7627 110.785 74.4512 110.914C74.1432 111.043 73.7798 111.107 73.3608 111.107C73.0457 111.107 72.7467 111.064 72.4639 110.979C72.1846 110.889 71.9339 110.755 71.7119 110.576C71.4935 110.393 71.3145 110.167 71.1748 109.899C71.0387 109.627 70.9528 109.308 70.917 108.943H71.8623C71.9053 109.236 71.9912 109.484 72.1201 109.684C72.249 109.885 72.4173 110.037 72.625 110.141C72.8363 110.241 73.0815 110.291 73.3608 110.291C73.5972 110.291 73.8066 110.25 73.9893 110.167C74.1719 110.085 74.3258 109.967 74.4512 109.813C74.5765 109.659 74.6714 109.473 74.7358 109.254C74.8039 109.036 74.8379 108.791 74.8379 108.519C74.8379 108.271 74.8039 108.042 74.7358 107.831C74.6678 107.62 74.5658 107.435 74.4297 107.278C74.2972 107.12 74.1343 106.999 73.9409 106.913C73.7476 106.823 73.5256 106.778 73.2749 106.778C72.9419 106.778 72.6895 106.823 72.5176 106.913C72.3493 107.002 72.1756 107.124 71.9966 107.278ZM81.8364 106.467V107.659C81.8364 108.3 81.7791 108.841 81.6646 109.281C81.55 109.722 81.3853 110.076 81.1704 110.345C80.9556 110.613 80.696 110.808 80.3916 110.93C80.0908 111.048 79.7507 111.107 79.3711 111.107C79.0703 111.107 78.7928 111.07 78.5386 110.995C78.2843 110.919 78.0552 110.799 77.8511 110.635C77.6506 110.466 77.4787 110.248 77.3354 109.979C77.1922 109.711 77.083 109.385 77.0078 109.002C76.9326 108.619 76.895 108.171 76.895 107.659V106.467C76.895 105.826 76.9523 105.289 77.0669 104.855C77.1851 104.422 77.3516 104.075 77.5664 103.813C77.7812 103.549 78.0391 103.359 78.3398 103.244C78.6442 103.13 78.9844 103.072 79.3604 103.072C79.6647 103.072 79.944 103.11 80.1982 103.185C80.4561 103.257 80.6852 103.373 80.8857 103.534C81.0863 103.692 81.2563 103.903 81.396 104.168C81.5392 104.429 81.6484 104.75 81.7236 105.129C81.7988 105.509 81.8364 105.955 81.8364 106.467ZM80.8374 107.82V106.3C80.8374 105.949 80.8159 105.641 80.7729 105.376C80.7336 105.108 80.6745 104.879 80.5957 104.689C80.5169 104.499 80.4167 104.345 80.2949 104.227C80.1768 104.109 80.0389 104.023 79.8813 103.969C79.7274 103.912 79.5537 103.883 79.3604 103.883C79.124 103.883 78.9146 103.928 78.7319 104.018C78.5493 104.104 78.3953 104.241 78.27 104.431C78.1483 104.621 78.0552 104.87 77.9907 105.178C77.9263 105.486 77.894 105.86 77.894 106.3V107.82C77.894 108.171 77.9137 108.481 77.9531 108.75C77.9961 109.018 78.0588 109.251 78.1411 109.448C78.2235 109.641 78.3237 109.8 78.4419 109.926C78.5601 110.051 78.6961 110.144 78.8501 110.205C79.0076 110.262 79.1813 110.291 79.3711 110.291C79.6146 110.291 79.8276 110.244 80.0103 110.151C80.1929 110.058 80.3451 109.913 80.4668 109.716C80.5921 109.516 80.6852 109.26 80.7461 108.948C80.807 108.633 80.8374 108.257 80.8374 107.82ZM93.1426 106.687V107.503H85.9668V106.687H93.1426ZM102.096 108.884C102.096 109.36 101.985 109.765 101.763 110.098C101.545 110.427 101.248 110.678 100.872 110.85C100.499 111.021 100.078 111.107 99.6094 111.107C99.1403 111.107 98.7178 111.021 98.3418 110.85C97.9658 110.678 97.6686 110.427 97.4502 110.098C97.2318 109.765 97.1226 109.36 97.1226 108.884C97.1226 108.572 97.1816 108.288 97.2998 108.03C97.4215 107.768 97.5916 107.541 97.8101 107.348C98.0321 107.154 98.2935 107.006 98.5942 106.902C98.8986 106.794 99.2334 106.741 99.5986 106.741C100.078 106.741 100.506 106.834 100.882 107.02C101.258 107.203 101.554 107.455 101.769 107.777C101.987 108.1 102.096 108.468 102.096 108.884ZM101.097 108.862C101.097 108.572 101.035 108.316 100.909 108.094C100.784 107.869 100.608 107.693 100.383 107.568C100.157 107.443 99.8958 107.38 99.5986 107.38C99.2943 107.38 99.0311 107.443 98.8091 107.568C98.5907 107.693 98.4206 107.869 98.2988 108.094C98.1771 108.316 98.1162 108.572 98.1162 108.862C98.1162 109.163 98.1753 109.421 98.2935 109.636C98.4152 109.847 98.5871 110.01 98.8091 110.125C99.0347 110.236 99.3014 110.291 99.6094 110.291C99.9173 110.291 100.182 110.236 100.404 110.125C100.626 110.01 100.796 109.847 100.915 109.636C101.036 109.421 101.097 109.163 101.097 108.862ZM101.914 105.215C101.914 105.595 101.813 105.937 101.613 106.241C101.412 106.546 101.138 106.785 100.791 106.961C100.444 107.136 100.05 107.224 99.6094 107.224C99.1618 107.224 98.7625 107.136 98.4116 106.961C98.0643 106.785 97.7922 106.546 97.5952 106.241C97.3983 105.937 97.2998 105.595 97.2998 105.215C97.2998 104.761 97.3983 104.374 97.5952 104.055C97.7957 103.736 98.0697 103.493 98.417 103.325C98.7643 103.156 99.16 103.072 99.604 103.072C100.052 103.072 100.449 103.156 100.796 103.325C101.144 103.493 101.416 103.736 101.613 104.055C101.813 104.374 101.914 104.761 101.914 105.215ZM100.92 105.231C100.92 104.97 100.864 104.739 100.753 104.539C100.642 104.338 100.488 104.181 100.292 104.066C100.095 103.948 99.8654 103.889 99.604 103.889C99.3426 103.889 99.1134 103.944 98.9165 104.055C98.7231 104.163 98.571 104.317 98.46 104.517C98.3525 104.718 98.2988 104.956 98.2988 105.231C98.2988 105.5 98.3525 105.735 98.46 105.935C98.571 106.136 98.7249 106.291 98.9219 106.402C99.1188 106.513 99.348 106.569 99.6094 106.569C99.8708 106.569 100.098 106.513 100.292 106.402C100.488 106.291 100.642 106.136 100.753 105.935C100.864 105.735 100.92 105.5 100.92 105.231ZM108.262 106.467V107.659C108.262 108.3 108.205 108.841 108.09 109.281C107.976 109.722 107.811 110.076 107.596 110.345C107.381 110.613 107.122 110.808 106.817 110.93C106.517 111.048 106.176 111.107 105.797 111.107C105.496 111.107 105.219 111.07 104.964 110.995C104.71 110.919 104.481 110.799 104.277 110.635C104.076 110.466 103.904 110.248 103.761 109.979C103.618 109.711 103.509 109.385 103.434 109.002C103.358 108.619 103.321 108.171 103.321 107.659V106.467C103.321 105.826 103.378 105.289 103.493 104.855C103.611 104.422 103.777 104.075 103.992 103.813C104.207 103.549 104.465 103.359 104.766 103.244C105.07 103.13 105.41 103.072 105.786 103.072C106.09 103.072 106.37 103.11 106.624 103.185C106.882 103.257 107.111 103.373 107.312 103.534C107.512 103.692 107.682 103.903 107.822 104.168C107.965 104.429 108.074 104.75 108.149 105.129C108.225 105.509 108.262 105.955 108.262 106.467ZM107.263 107.82V106.3C107.263 105.949 107.242 105.641 107.199 105.376C107.159 105.108 107.1 104.879 107.021 104.689C106.943 104.499 106.842 104.345 106.721 104.227C106.603 104.109 106.465 104.023 106.307 103.969C106.153 103.912 105.979 103.883 105.786 103.883C105.55 103.883 105.34 103.928 105.158 104.018C104.975 104.104 104.821 104.241 104.696 104.431C104.574 104.621 104.481 104.87 104.417 105.178C104.352 105.486 104.32 105.86 104.32 106.3V107.82C104.32 108.171 104.34 108.481 104.379 108.75C104.422 109.018 104.485 109.251 104.567 109.448C104.649 109.641 104.75 109.8 104.868 109.926C104.986 110.051 105.122 110.144 105.276 110.205C105.433 110.262 105.607 110.291 105.797 110.291C106.04 110.291 106.253 110.244 106.436 110.151C106.619 110.058 106.771 109.913 106.893 109.716C107.018 109.516 107.111 109.26 107.172 108.948C107.233 108.633 107.263 108.257 107.263 107.82ZM113.365 106.343V111H112.366V105.188H113.311L113.365 106.343ZM113.161 107.874L112.699 107.858C112.702 107.46 112.754 107.093 112.854 106.757C112.955 106.417 113.103 106.121 113.3 105.871C113.497 105.62 113.743 105.427 114.036 105.291C114.33 105.151 114.67 105.081 115.057 105.081C115.329 105.081 115.579 105.12 115.809 105.199C116.038 105.274 116.236 105.394 116.405 105.559C116.573 105.724 116.704 105.935 116.797 106.193C116.89 106.451 116.937 106.762 116.937 107.127V111H115.943V107.176C115.943 106.871 115.891 106.628 115.787 106.445C115.687 106.263 115.544 106.13 115.357 106.048C115.171 105.962 114.953 105.919 114.702 105.919C114.409 105.919 114.163 105.971 113.966 106.075C113.769 106.179 113.612 106.322 113.494 106.504C113.375 106.687 113.29 106.896 113.236 107.133C113.186 107.366 113.161 107.613 113.161 107.874ZM116.926 107.326L116.26 107.53C116.263 107.212 116.315 106.905 116.416 106.612C116.519 106.318 116.668 106.057 116.861 105.828C117.058 105.598 117.3 105.418 117.586 105.285C117.873 105.149 118.201 105.081 118.569 105.081C118.881 105.081 119.157 105.122 119.396 105.205C119.64 105.287 119.844 105.414 120.009 105.586C120.177 105.754 120.304 105.971 120.39 106.236C120.476 106.501 120.519 106.816 120.519 107.181V111H119.52V107.17C119.52 106.845 119.468 106.592 119.364 106.413C119.264 106.23 119.121 106.103 118.935 106.032C118.752 105.957 118.534 105.919 118.279 105.919C118.061 105.919 117.868 105.957 117.699 106.032C117.531 106.107 117.389 106.211 117.275 106.343C117.16 106.472 117.073 106.621 117.012 106.789C116.954 106.957 116.926 107.136 116.926 107.326ZM124.934 106.73V107.417H121.722V106.837L123.269 105.382C123.43 105.231 123.557 105.097 123.65 104.979C123.743 104.861 123.81 104.755 123.849 104.662C123.892 104.565 123.914 104.478 123.914 104.399C123.914 104.227 123.856 104.086 123.742 103.975C123.627 103.864 123.464 103.808 123.253 103.808C122.984 103.808 122.786 103.876 122.657 104.012C122.531 104.148 122.469 104.318 122.469 104.522H121.62C121.62 104.265 121.685 104.03 121.813 103.819C121.942 103.608 122.127 103.439 122.367 103.314C122.607 103.185 122.895 103.121 123.231 103.121C123.554 103.121 123.829 103.173 124.059 103.276C124.288 103.38 124.463 103.527 124.585 103.717C124.707 103.903 124.768 104.127 124.768 104.388C124.768 104.578 124.725 104.755 124.639 104.92C124.556 105.085 124.438 105.249 124.284 105.414C124.13 105.579 123.948 105.756 123.736 105.946L122.796 106.73H124.934Z" fill="#2A344A"/>
<defs>
<filter id="filter0_d_4_21" x="0" y="0" width="220" height="270" filterUnits="userSpaceOnUse" color-interpolation-filters="sRGB">
<feFlood flood-opacity="0" result="BackgroundImageFix"/>
<feColorMatrix in="SourceAlpha" type="matrix" values="0 0 0 0 0 0 0 0 0 0 0 0 0 0 0 0 0 0 127 0" result="hardAlpha"/>
<feOffset dx="5" dy="10"/>
<feGaussianBlur stdDeviation="10"/>
<feColorMatrix type="matrix" values="0 0 0 0 0.162847 0 0 0 0 0.203333 0 0 0 0 0.291667 0 0 0 0.15 0"/>
<feBlend mode="normal" in2="BackgroundImageFix" result="effect1_dropShadow_4_21"/>
<feBlend mode="normal" in="SourceGraphic" in2="effect1_dropShadow_4_21" result="shape"/>
</filter>
</defs>
</svg>
