<svg width="17" height="17" viewBox="0 0 17 17" fill="none" xmlns="http://www.w3.org/2000/svg">
<path fill-rule="evenodd" clip-rule="evenodd" d="M14.2955 2.125H2.70455C1.99327 2.125 1.41667 2.75926 1.41667 3.54167V4.95833C1.41667 5.74074 1.99327 6.375 2.70455 6.375H14.2955C15.0067 6.375 15.5833 5.74074 15.5833 4.95833V3.54167C15.5833 2.75926 15.0067 2.125 14.2955 2.125ZM2.70455 7.79167H14.2955C15.0067 7.79167 15.5833 8.42593 15.5833 9.20833V10.625C15.5833 11.4074 15.0067 12.0417 14.2955 12.0417H2.70455C1.99327 12.0417 1.41667 11.4074 1.41667 10.625V9.20833C1.41667 8.42593 1.99327 7.79167 2.70455 7.79167ZM2.83333 9.20833V10.625H14.1667V9.20833H2.83333ZM2.83333 3.54167V4.95833H14.1667V3.54167H2.83333ZM9.91667 13.4583H1.41667V14.875H9.91667V13.4583Z" fill="#7786A5"/>
</svg>
